<svg width="649" height="650" xmlns="http://www.w3.org/2000/svg" xmlns:xlink="http://www.w3.org/1999/xlink" xml:space="preserve" overflow="hidden"><defs><clipPath id="clip0"><rect x="650" y="1302" width="649" height="650"/></clipPath><clipPath id="clip1"><path d="M804.649 1459.5 1160.62 1478.04 1144.17 1793.96 788.195 1775.42Z" fill-rule="evenodd" clip-rule="evenodd"/></clipPath><clipPath id="clip2"><path d="M804.649 1459.5 1160.62 1478.04 1144.17 1793.96 788.195 1775.42Z" fill-rule="evenodd" clip-rule="evenodd"/></clipPath><clipPath id="clip3"><path d="M804.649 1459.5 1160.62 1478.04 1144.17 1793.96 788.195 1775.42Z" fill-rule="evenodd" clip-rule="evenodd"/></clipPath><clipPath id="clip4"><path d="M804.649 1459.5 1160.62 1478.04 1144.17 1793.96 788.195 1775.42Z"/></clipPath></defs><g clip-path="url(#clip0)" transform="translate(-650 -1302)"><rect x="650" y="1302" width="649" height="650" fill="#C38349"/><path d="M812.572 1385 768 1447.25 816 1468 840 1416.13 812.572 1385Z" fill="#CA915E" fill-rule="evenodd"/><path d="M917.205 1468C909.492 1476.91 877.713 1472.18 870 1481.09L872.037 1530 911.51 1529.08 945 1499 917.205 1468Z" fill="#CA915E" fill-rule="evenodd"/><path d="M1097 1423 1109.45 1462 1140 1441.35 1097 1423Z" fill="#CA915E" fill-rule="evenodd"/><path d="M1022 1641.87 1044.81 1583 1087 1616.96 1079.02 1643 1042.53 1630.55 1022 1641.87Z" fill="#CA915E" fill-rule="evenodd"/><path d="M789.546 1690.32 789.546 1684.59 830 1623.87 765.273 1617 741 1674.28 760.649 1735 789.546 1690.32Z" fill="#CA915E" fill-rule="evenodd"/><path d="M981 1718 928 1732 945.283 1697 981 1718Z" fill="#CA915E" fill-rule="evenodd"/><path d="M1175.99 1725 1122 1756.96C1122.38 1774.08 1122.77 1791.2 1123.15 1808.32L1187.47 1830 1207 1774.08 1175.99 1725Z" fill="#CA915E" fill-rule="evenodd"/><path d="M843.536 1811 842 1861.47 885 1863 883.464 1812.53 843.536 1811Z" fill="#CA915E" fill-rule="evenodd"/><path d="M1176.08 1519 1169.92 1538.93 1153 1565 1182.23 1561.93 1193 1528.2 1176.08 1519Z" fill="#CA915E" fill-rule="evenodd"/><g clip-path="url(#clip1)"><g clip-path="url(#clip2)"><g clip-path="url(#clip3)"><g clip-path="url(#clip4)"><path d="M865.175 1677.37C874.607 1691.1 886.373 1694.67 894.913 1698.6 903.453 1702.54 911.636 1700.97 916.41 1700.99 921.176 1701 919.66 1700.43 923.546 1698.71 927.425 1696.98 936.03 1693.14 939.698 1690.65 943.367 1688.16 940.333 1688.79 945.559 1683.76 950.785 1678.74 964.91 1665.94 971.045 1660.48 977.172 1655.03 977.524 1654.95 982.344 1651.04 987.162 1647.13 995.422 1640.3 999.951 1637 1004.49 1633.71 1005.44 1633.13 1009.54 1631.26 1013.66 1629.39 1021.01 1626.62 1024.62 1625.8 1028.23 1624.98 1028.67 1626.23 1031.23 1626.33 1033.79 1626.43 1036.28 1625.84 1039.95 1626.41 1043.62 1626.98 1049.63 1628.61 1053.23 1629.75 1056.84 1630.88 1057.85 1631.53 1061.59 1633.21 1065.33 1634.89 1065.85 1636.42 1075.66 1639.81 1066.74 1614.47 1025.85 1501.69 1008.07 1481.14 975.909 1459.85 941.586 1468.73 923.545 1489.93 904.522 1510.9 880.388 1534.12 860.927 1541.69 841.466 1549.25 817.089 1541.93 806.77 1535.33 805.57 1547.89 828.601 1592.55 838.334 1616.22 843.013 1639.88 855.743 1663.64 865.175 1677.37Z" fill="#FFFFFF" fill-rule="evenodd"/><path d="M1133.54 1791.47C1132.91 1790.11 1119.19 1755.78 1103.03 1715.2L1073.66 1641.41 1066.53 1637.3C1053.66 1629.9 1038.25 1625.98 1026.83 1627.2 1009.62 1629.03 994.527 1639.01 967.572 1666.33 947.883 1686.29 937.297 1694.41 925.098 1698.88 915.788 1702.3 915.491 1702.33 901.919 1701.59 886.76 1700.76 881.057 1699.08 869.085 1691.93L862.911 1688.24 831.894 1610.23C814.826 1567.33 800.894 1531.6 800.933 1530.84 800.983 1529.89 802.913 1530.51 807.09 1532.81 821.64 1540.83 836.827 1544.76 847.888 1543.37 865.059 1541.22 878.947 1532.12 905.094 1505.88 922.646 1488.27 933.395 1479.19 941.957 1474.72 959.672 1465.47 980.621 1465.99 1001.01 1476.18 1008.69 1480.01 1008.91 1480.07 1009.01 1478.11 1009.07 1476.9 1014.15 1475.36 1017.85 1475.42 1018.69 1475.44 1144.41 1789.44 1144.31 1791.27 1144.29 1791.65 1142.97 1792.18 1141.38 1792.44 1139.78 1792.7 1137.62 1793.15 1136.57 1793.44 1135.33 1793.78 1134.29 1793.11 1133.54 1791.48ZM918.673 1698.99C921.994 1698.09 928.312 1695.39 932.704 1692.98L940.692 1688.61 938.93 1684.16C937.958 1681.72 935.208 1674.86 932.827 1668.93L928.493 1658.15 921.163 1662.39C913.904 1666.59 903.197 1670.21 898.693 1669.97 897.408 1669.91 896.329 1670.39 896.295 1671.04 896.261 1671.7 898.685 1678.56 901.677 1686.29 907.809 1702.14 907.619 1702 918.673 1698.99ZM895.145 1670.29C895.16 1670.01 892.555 1663.27 889.354 1655.32 886.161 1647.37 883.561 1640.54 883.582 1640.13 883.603 1639.73 886.736 1638.79 890.557 1638.05 897.899 1636.61 903.207 1634.52 910.536 1630.14 913.007 1628.67 915.289 1627.48 915.622 1627.5 915.947 1627.52 918.711 1633.81 921.759 1641.5 924.815 1649.18 927.789 1655.95 928.379 1656.55 929.573 1657.78 936.19 1652.37 948.277 1640.3 952.466 1636.11 956.009 1632.7 956.145 1632.71 956.289 1632.71 958.926 1639.12 962.019 1646.95 965.105 1654.77 968.052 1661.2 968.558 1661.22 969.072 1661.25 972.193 1658.51 975.499 1655.13 978.805 1651.76 984.78 1646.32 988.777 1643.05L996.051 1637.1 990.903 1624.06C988.063 1616.89 985.423 1610.11 985.026 1609 984.385 1607.18 983.721 1607.42 978.641 1611.24 975.518 1613.59 969.294 1619.16 964.804 1623.61 960.313 1628.06 956.463 1631.69 956.236 1631.68 956.017 1631.67 953.134 1624.76 949.837 1616.32 946.54 1607.89 943.694 1601.12 943.512 1601.28 943.337 1601.44 938.667 1605.99 933.142 1611.38 927.617 1616.77 921.444 1622.38 919.42 1623.84L915.749 1626.51 910.184 1612.01C907.121 1604.03 904.21 1597.07 903.699 1596.55 903.196 1596.02 900.372 1597.12 897.402 1599.01 891.415 1602.8 880.827 1606.74 874.836 1607.41 872.693 1607.65 870.917 1608.16 870.897 1608.54 870.877 1608.93 873.477 1615.74 876.678 1623.69 879.872 1631.64 882.476 1638.38 882.461 1638.66 882.404 1639.77 870.73 1638.51 864.314 1636.71 860.617 1635.67 853.928 1633 849.452 1630.76 844.969 1628.53 841.297 1626.84 841.288 1627.02 841.279 1627.19 844.007 1634.19 847.359 1642.57L853.447 1657.81 862.157 1662.12C866.952 1664.5 873.78 1667.26 877.343 1668.27 883.631 1670.04 895.09 1671.35 895.145 1670.29ZM1064.71 1622.23C1061.74 1614.76 1058.74 1608.01 1058.06 1607.22 1056.17 1605.02 1047.09 1600.75 1038.16 1597.87 1029.07 1594.93 1016.67 1593.75 1017.54 1595.9 1017.83 1596.63 1020.58 1603.51 1023.64 1611.19L1029.21 1625.16 1036.63 1625.54C1044.62 1625.96 1055.73 1629.22 1064.18 1633.62 1067.06 1635.12 1069.57 1636.22 1069.77 1636.07 1069.97 1635.92 1067.7 1629.69 1064.71 1622.23ZM869.228 1607.27C869.582 1606.58 867.293 1599.61 864.146 1591.78 860.992 1583.95 858.683 1577.21 859.007 1576.81 859.332 1576.4 860.355 1576.1 861.269 1576.15 865.184 1576.35 876.835 1572.37 883.722 1568.47 891.07 1564.31 891.17 1564.29 892.078 1566.64 895.955 1576.74 903.158 1594.43 903.567 1594.87 904.205 1595.56 913.111 1587.81 922.856 1578.08 927.037 1573.9 930.834 1570.71 931.297 1570.99 931.76 1571.27 934.641 1577.94 937.702 1585.81 940.762 1593.68 943.661 1600.01 944.146 1599.87 944.631 1599.73 949.516 1596.29 955.135 1589.81 960.747 1583.34 966.681 1578.98 968.444 1577.71L971.641 1575.4 972.616 1577.93C973.158 1579.31 975.797 1586.12 978.483 1593.05 981.168 1599.98 983.554 1605.83 983.778 1606.04 984.001 1606.26 986.871 1604.85 990.155 1602.91 996.449 1599.19 1007.54 1595.13 1011 1595.29 1016.74 1595.54 1016.69 1594.3 1010.4 1578.6 1007.07 1570.28 1004.24 1563.37 1004.11 1563.24 1003.98 1563.11 1001.2 1563.47 997.916 1564.05 990.52 1565.34 983.664 1567.92 977.408 1571.77 974.77 1573.39 972.284 1574.7 971.884 1574.67 971.484 1574.65 968.596 1568.11 965.456 1560.14 962.325 1552.18 959.575 1545.45 959.347 1545.19 958.596 1544.33 947.708 1553.16 939.977 1560.89 935.796 1565.07 931.996 1568.47 931.528 1568.45 931.067 1568.43 928.144 1561.98 925.044 1554.12 921.937 1546.26 919.091 1539.65 918.709 1539.42 918.334 1539.19 913.965 1543.05 909.016 1548 900.023 1556.99 891.539 1564.04 890.789 1563.16 890.567 1562.91 887.865 1556.29 884.772 1548.47 881.686 1540.64 879.027 1534.07 878.863 1533.87 878.707 1533.67 875.626 1535.19 872.017 1537.26 863.573 1542.1 860.836 1543.14 852.557 1544.67L845.746 1545.93 851.457 1560.12C854.597 1567.93 857.133 1574.96 857.091 1575.75 857.031 1576.92 855.512 1576.98 849.186 1576.06 840.417 1574.79 832.205 1572.11 823.165 1567.57 819.819 1565.89 817.066 1564.92 817.041 1565.4 816.889 1568.32 828.01 1593.86 830.288 1595.81 837.796 1602.26 867.361 1610.95 869.228 1607.27ZM1039.71 1559.53 1033.61 1544.35 1026.41 1540.59C1014.54 1534.4 993.205 1529.37 993.03 1532.72 992.992 1533.45 995.531 1540.44 998.671 1548.24L1004.38 1562.44 1012.13 1563.53C1021.76 1564.88 1030.44 1567.61 1038.74 1571.9 1042.26 1573.71 1045.29 1575.09 1045.47 1574.95 1045.66 1574.82 1043.07 1567.88 1039.71 1559.53ZM974.854 1535.69C977.265 1534.79 981.412 1533.6 984.063 1533.05 986.721 1532.51 989.533 1531.92 990.322 1531.75 991.272 1531.55 989.79 1526.54 985.92 1516.89 982.714 1508.88 979.639 1501.88 979.091 1501.33 976.757 1499.01 961.766 1503.69 950.265 1510.32L946.585 1512.45 940.79 1498C937.604 1490.05 934.429 1483.35 933.744 1483.12 932.575 1482.71 912.591 1500.75 908.552 1505.85 906.856 1508 907.159 1509.3 912.381 1522.54 915.501 1530.43 918.353 1537.08 918.713 1537.3 919.081 1537.52 923.6 1533.54 928.76 1528.46 938.258 1519.1 945.942 1512.72 946.671 1513.57 946.999 1513.95 954.727 1533.06 958.05 1541.71 958.964 1544.09 958.972 1544.09 964.718 1540.71 967.884 1538.85 972.443 1536.59 974.854 1535.69ZM1020.39 1511.68C1020.41 1511.4 1018.02 1505.12 1015.09 1497.72 1009.06 1482.47 1007.79 1481.07 995.178 1475.76 987.258 1472.42 969.704 1468.26 968.274 1469.38 967.911 1469.66 970.333 1476.84 973.65 1485.33L979.689 1500.77 986.876 1501.15C994.38 1501.56 1010.44 1506.59 1015.76 1510.21 1018.49 1512.05 1020.34 1512.64 1020.39 1511.68Z" fill-rule="evenodd"/></g></g></g></g></g></svg>