<svg width="649" height="649" xmlns="http://www.w3.org/2000/svg" xmlns:xlink="http://www.w3.org/1999/xlink" xml:space="preserve" overflow="hidden"><defs><clipPath id="clip0"><rect x="650" y="650" width="649" height="649"/></clipPath></defs><g clip-path="url(#clip0)" transform="translate(-650 -650)"><rect x="650" y="650" width="649" height="649" fill="#C38349"/><path d="M812.572 732 768 795 816 816 840 763.5 812.572 732Z" fill="#CA915E" fill-rule="evenodd"/><path d="M917.205 816C909.492 824.909 877.713 820.184 870 829.093L872.037 878 911.51 877.079 945 847 917.205 816Z" fill="#CA915E" fill-rule="evenodd"/><path d="M1097 771 1109.45 810 1140 789.353 1097 771Z" fill="#CA915E" fill-rule="evenodd"/><path d="M1022 989.849 1044.81 930 1087 964.528 1079.02 991 1042.53 978.34 1022 989.849Z" fill="#CA915E" fill-rule="evenodd"/><path d="M789.546 1038.32 789.546 1032.59 830 971.874 765.273 965 741 1022.28 760.649 1083 789.546 1038.32Z" fill="#CA915E" fill-rule="evenodd"/><path d="M981 1065.4 928 1079 945.283 1045 981 1065.4Z" fill="#CA915E" fill-rule="evenodd"/><path d="M1175.99 1072 1122 1104.26C1122.38 1121.54 1122.77 1138.83 1123.15 1156.11L1187.47 1178 1207 1121.54 1175.99 1072Z" fill="#CA915E" fill-rule="evenodd"/><path d="M843.536 1159 842 1208.5 885 1210 883.464 1160.5 843.536 1159Z" fill="#CA915E" fill-rule="evenodd"/><path d="M1176.08 867 1169.92 886.5 1153 912 1182.23 909 1193 876 1176.08 867Z" fill="#CA915E" fill-rule="evenodd"/></g></svg>