<svg width="650" height="650" xmlns="http://www.w3.org/2000/svg" xmlns:xlink="http://www.w3.org/1999/xlink" xml:space="preserve" overflow="hidden"><defs><clipPath id="clip0"><rect x="1299" y="0" width="650" height="650"/></clipPath><linearGradient x1="1564.5" y1="547" x2="1564.5" y2="603" gradientUnits="userSpaceOnUse" spreadMethod="reflect" id="fill1"><stop offset="0" stop-color="#6C981C"/><stop offset="0.0222222" stop-color="#6D991C"/><stop offset="0.0444444" stop-color="#6E9B1C"/><stop offset="0.0666667" stop-color="#6F9D1C"/><stop offset="0.0888889" stop-color="#719F1D"/><stop offset="0.111111" stop-color="#72A11D"/><stop offset="0.133333" stop-color="#73A21D"/><stop offset="0.155556" stop-color="#74A41E"/><stop offset="0.177778" stop-color="#75A61E"/><stop offset="0.2" stop-color="#76A71E"/><stop offset="0.222222" stop-color="#78A91F"/><stop offset="0.244444" stop-color="#79AA1F"/><stop offset="0.266667" stop-color="#7AAC1F"/><stop offset="0.288889" stop-color="#7BAD1F"/><stop offset="0.311111" stop-color="#7CAF20"/><stop offset="0.333333" stop-color="#7DB020"/><stop offset="0.355556" stop-color="#7DB120"/><stop offset="0.377778" stop-color="#7EB320"/><stop offset="0.4" stop-color="#7FB420"/><stop offset="0.422222" stop-color="#80B521"/><stop offset="0.444444" stop-color="#81B621"/><stop offset="0.466667" stop-color="#82B721"/><stop offset="0.488889" stop-color="#82B821"/><stop offset="0.511111" stop-color="#83B921"/><stop offset="0.533333" stop-color="#84BA22"/><stop offset="0.555556" stop-color="#85BB22"/><stop offset="0.577778" stop-color="#85BC22"/><stop offset="0.6" stop-color="#86BD22"/><stop offset="0.622222" stop-color="#86BE22"/><stop offset="0.644444" stop-color="#87BF22"/><stop offset="0.666667" stop-color="#87C022"/><stop offset="0.688889" stop-color="#88C023"/><stop offset="0.711111" stop-color="#88C123"/><stop offset="0.733333" stop-color="#89C223"/><stop offset="0.755556" stop-color="#89C223"/><stop offset="0.777778" stop-color="#8AC323"/><stop offset="0.8" stop-color="#8AC323"/><stop offset="0.822222" stop-color="#8AC423"/><stop offset="0.844444" stop-color="#8BC423"/><stop offset="0.866667" stop-color="#8BC423"/><stop offset="0.888889" stop-color="#8BC523"/><stop offset="0.911111" stop-color="#8BC523"/><stop offset="0.933333" stop-color="#8BC523"/><stop offset="0.955556" stop-color="#8BC523"/><stop offset="0.977778" stop-color="#8BC523"/><stop offset="1" stop-color="#8CC624"/></linearGradient><linearGradient x1="1467" y1="95.9999" x2="1467" y2="152" gradientUnits="userSpaceOnUse" spreadMethod="reflect" id="fill2"><stop offset="0" stop-color="#6C981C"/><stop offset="0.0222222" stop-color="#6D991C"/><stop offset="0.0444444" stop-color="#6E9B1C"/><stop offset="0.0666667" stop-color="#6F9D1C"/><stop offset="0.0888889" stop-color="#719F1D"/><stop offset="0.111111" stop-color="#72A11D"/><stop offset="0.133333" stop-color="#73A21D"/><stop offset="0.155556" stop-color="#74A41E"/><stop offset="0.177778" stop-color="#75A61E"/><stop offset="0.2" stop-color="#76A71E"/><stop offset="0.222222" stop-color="#78A91F"/><stop offset="0.244444" stop-color="#79AA1F"/><stop offset="0.266667" stop-color="#7AAC1F"/><stop offset="0.288889" stop-color="#7BAD1F"/><stop offset="0.311111" stop-color="#7CAF20"/><stop offset="0.333333" stop-color="#7DB020"/><stop offset="0.355556" stop-color="#7DB120"/><stop offset="0.377778" stop-color="#7EB320"/><stop offset="0.4" stop-color="#7FB420"/><stop offset="0.422222" stop-color="#80B521"/><stop offset="0.444444" stop-color="#81B621"/><stop offset="0.466667" stop-color="#82B721"/><stop offset="0.488889" stop-color="#82B821"/><stop offset="0.511111" stop-color="#83B921"/><stop offset="0.533333" stop-color="#84BA22"/><stop offset="0.555556" stop-color="#85BB22"/><stop offset="0.577778" stop-color="#85BC22"/><stop offset="0.6" stop-color="#86BD22"/><stop offset="0.622222" stop-color="#86BE22"/><stop offset="0.644444" stop-color="#87BF22"/><stop offset="0.666667" stop-color="#87C022"/><stop offset="0.688889" stop-color="#88C023"/><stop offset="0.711111" stop-color="#88C123"/><stop offset="0.733333" stop-color="#89C223"/><stop offset="0.755556" stop-color="#89C223"/><stop offset="0.777778" stop-color="#8AC323"/><stop offset="0.8" stop-color="#8AC323"/><stop offset="0.822222" stop-color="#8AC423"/><stop offset="0.844444" stop-color="#8BC423"/><stop offset="0.866667" stop-color="#8BC423"/><stop offset="0.888889" stop-color="#8BC523"/><stop offset="0.911111" stop-color="#8BC523"/><stop offset="0.933333" stop-color="#8BC523"/><stop offset="0.955556" stop-color="#8BC523"/><stop offset="0.977778" stop-color="#8BC523"/><stop offset="1" stop-color="#8CC624"/></linearGradient><linearGradient x1="1587" y1="184" x2="1587" y2="240" gradientUnits="userSpaceOnUse" spreadMethod="reflect" id="fill3"><stop offset="0" stop-color="#6C981C"/><stop offset="0.0222222" stop-color="#6D991C"/><stop offset="0.0444444" stop-color="#6E9B1C"/><stop offset="0.0666667" stop-color="#6F9D1C"/><stop offset="0.0888889" stop-color="#719F1D"/><stop offset="0.111111" stop-color="#72A11D"/><stop offset="0.133333" stop-color="#73A21D"/><stop offset="0.155556" stop-color="#74A41E"/><stop offset="0.177778" stop-color="#75A61E"/><stop offset="0.2" stop-color="#76A71E"/><stop offset="0.222222" stop-color="#78A91F"/><stop offset="0.244444" stop-color="#79AA1F"/><stop offset="0.266667" stop-color="#7AAC1F"/><stop offset="0.288889" stop-color="#7BAD1F"/><stop offset="0.311111" stop-color="#7CAF20"/><stop offset="0.333333" stop-color="#7DB020"/><stop offset="0.355556" stop-color="#7DB120"/><stop offset="0.377778" stop-color="#7EB320"/><stop offset="0.4" stop-color="#7FB420"/><stop offset="0.422222" stop-color="#80B521"/><stop offset="0.444444" stop-color="#81B621"/><stop offset="0.466667" stop-color="#82B721"/><stop offset="0.488889" stop-color="#82B821"/><stop offset="0.511111" stop-color="#83B921"/><stop offset="0.533333" stop-color="#84BA22"/><stop offset="0.555556" stop-color="#85BB22"/><stop offset="0.577778" stop-color="#85BC22"/><stop offset="0.6" stop-color="#86BD22"/><stop offset="0.622222" stop-color="#86BE22"/><stop offset="0.644444" stop-color="#87BF22"/><stop offset="0.666667" stop-color="#87C022"/><stop offset="0.688889" stop-color="#88C023"/><stop offset="0.711111" stop-color="#88C123"/><stop offset="0.733333" stop-color="#89C223"/><stop offset="0.755556" stop-color="#89C223"/><stop offset="0.777778" stop-color="#8AC323"/><stop offset="0.8" stop-color="#8AC323"/><stop offset="0.822222" stop-color="#8AC423"/><stop offset="0.844444" stop-color="#8BC423"/><stop offset="0.866667" stop-color="#8BC423"/><stop offset="0.888889" stop-color="#8BC523"/><stop offset="0.911111" stop-color="#8BC523"/><stop offset="0.933333" stop-color="#8BC523"/><stop offset="0.955556" stop-color="#8BC523"/><stop offset="0.977778" stop-color="#8BC523"/><stop offset="1" stop-color="#8CC624"/></linearGradient><linearGradient x1="1753" y1="124" x2="1753" y2="180" gradientUnits="userSpaceOnUse" spreadMethod="reflect" id="fill4"><stop offset="0" stop-color="#6C981C"/><stop offset="0.0222222" stop-color="#6D991C"/><stop offset="0.0444444" stop-color="#6E9B1C"/><stop offset="0.0666667" stop-color="#6F9D1C"/><stop offset="0.0888889" stop-color="#719F1D"/><stop offset="0.111111" stop-color="#72A11D"/><stop offset="0.133333" stop-color="#73A21D"/><stop offset="0.155556" stop-color="#74A41E"/><stop offset="0.177778" stop-color="#75A61E"/><stop offset="0.2" stop-color="#76A71E"/><stop offset="0.222222" stop-color="#78A91F"/><stop offset="0.244444" stop-color="#79AA1F"/><stop offset="0.266667" stop-color="#7AAC1F"/><stop offset="0.288889" stop-color="#7BAD1F"/><stop offset="0.311111" stop-color="#7CAF20"/><stop offset="0.333333" stop-color="#7DB020"/><stop offset="0.355556" stop-color="#7DB120"/><stop offset="0.377778" stop-color="#7EB320"/><stop offset="0.4" stop-color="#7FB420"/><stop offset="0.422222" stop-color="#80B521"/><stop offset="0.444444" stop-color="#81B621"/><stop offset="0.466667" stop-color="#82B721"/><stop offset="0.488889" stop-color="#82B821"/><stop offset="0.511111" stop-color="#83B921"/><stop offset="0.533333" stop-color="#84BA22"/><stop offset="0.555556" stop-color="#85BB22"/><stop offset="0.577778" stop-color="#85BC22"/><stop offset="0.6" stop-color="#86BD22"/><stop offset="0.622222" stop-color="#86BE22"/><stop offset="0.644444" stop-color="#87BF22"/><stop offset="0.666667" stop-color="#87C022"/><stop offset="0.688889" stop-color="#88C023"/><stop offset="0.711111" stop-color="#88C123"/><stop offset="0.733333" stop-color="#89C223"/><stop offset="0.755556" stop-color="#89C223"/><stop offset="0.777778" stop-color="#8AC323"/><stop offset="0.8" stop-color="#8AC323"/><stop offset="0.822222" stop-color="#8AC423"/><stop offset="0.844444" stop-color="#8BC423"/><stop offset="0.866667" stop-color="#8BC423"/><stop offset="0.888889" stop-color="#8BC523"/><stop offset="0.911111" stop-color="#8BC523"/><stop offset="0.933333" stop-color="#8BC523"/><stop offset="0.955556" stop-color="#8BC523"/><stop offset="0.977778" stop-color="#8BC523"/><stop offset="1" stop-color="#8CC624"/></linearGradient><linearGradient x1="1767.5" y1="297" x2="1767.5" y2="353" gradientUnits="userSpaceOnUse" spreadMethod="reflect" id="fill5"><stop offset="0" stop-color="#6C981C"/><stop offset="0.0222222" stop-color="#6D991C"/><stop offset="0.0444444" stop-color="#6E9B1C"/><stop offset="0.0666667" stop-color="#6F9D1C"/><stop offset="0.0888889" stop-color="#719F1D"/><stop offset="0.111111" stop-color="#72A11D"/><stop offset="0.133333" stop-color="#73A21D"/><stop offset="0.155556" stop-color="#74A41E"/><stop offset="0.177778" stop-color="#75A61E"/><stop offset="0.2" stop-color="#76A71E"/><stop offset="0.222222" stop-color="#78A91F"/><stop offset="0.244444" stop-color="#79AA1F"/><stop offset="0.266667" stop-color="#7AAC1F"/><stop offset="0.288889" stop-color="#7BAD1F"/><stop offset="0.311111" stop-color="#7CAF20"/><stop offset="0.333333" stop-color="#7DB020"/><stop offset="0.355556" stop-color="#7DB120"/><stop offset="0.377778" stop-color="#7EB320"/><stop offset="0.4" stop-color="#7FB420"/><stop offset="0.422222" stop-color="#80B521"/><stop offset="0.444444" stop-color="#81B621"/><stop offset="0.466667" stop-color="#82B721"/><stop offset="0.488889" stop-color="#82B821"/><stop offset="0.511111" stop-color="#83B921"/><stop offset="0.533333" stop-color="#84BA22"/><stop offset="0.555556" stop-color="#85BB22"/><stop offset="0.577778" stop-color="#85BC22"/><stop offset="0.6" stop-color="#86BD22"/><stop offset="0.622222" stop-color="#86BE22"/><stop offset="0.644444" stop-color="#87BF22"/><stop offset="0.666667" stop-color="#87C022"/><stop offset="0.688889" stop-color="#88C023"/><stop offset="0.711111" stop-color="#88C123"/><stop offset="0.733333" stop-color="#89C223"/><stop offset="0.755556" stop-color="#89C223"/><stop offset="0.777778" stop-color="#8AC323"/><stop offset="0.8" stop-color="#8AC323"/><stop offset="0.822222" stop-color="#8AC423"/><stop offset="0.844444" stop-color="#8BC423"/><stop offset="0.866667" stop-color="#8BC423"/><stop offset="0.888889" stop-color="#8BC523"/><stop offset="0.911111" stop-color="#8BC523"/><stop offset="0.933333" stop-color="#8BC523"/><stop offset="0.955556" stop-color="#8BC523"/><stop offset="0.977778" stop-color="#8BC523"/><stop offset="1" stop-color="#8CC624"/></linearGradient><linearGradient x1="1663" y1="445" x2="1663" y2="501" gradientUnits="userSpaceOnUse" spreadMethod="reflect" id="fill6"><stop offset="0" stop-color="#6C981C"/><stop offset="0.0222222" stop-color="#6D991C"/><stop offset="0.0444444" stop-color="#6E9B1C"/><stop offset="0.0666667" stop-color="#6F9D1C"/><stop offset="0.0888889" stop-color="#719F1D"/><stop offset="0.111111" stop-color="#72A11D"/><stop offset="0.133333" stop-color="#73A21D"/><stop offset="0.155556" stop-color="#74A41E"/><stop offset="0.177778" stop-color="#75A61E"/><stop offset="0.2" stop-color="#76A71E"/><stop offset="0.222222" stop-color="#78A91F"/><stop offset="0.244444" stop-color="#79AA1F"/><stop offset="0.266667" stop-color="#7AAC1F"/><stop offset="0.288889" stop-color="#7BAD1F"/><stop offset="0.311111" stop-color="#7CAF20"/><stop offset="0.333333" stop-color="#7DB020"/><stop offset="0.355556" stop-color="#7DB120"/><stop offset="0.377778" stop-color="#7EB320"/><stop offset="0.4" stop-color="#7FB420"/><stop offset="0.422222" stop-color="#80B521"/><stop offset="0.444444" stop-color="#81B621"/><stop offset="0.466667" stop-color="#82B721"/><stop offset="0.488889" stop-color="#82B821"/><stop offset="0.511111" stop-color="#83B921"/><stop offset="0.533333" stop-color="#84BA22"/><stop offset="0.555556" stop-color="#85BB22"/><stop offset="0.577778" stop-color="#85BC22"/><stop offset="0.6" stop-color="#86BD22"/><stop offset="0.622222" stop-color="#86BE22"/><stop offset="0.644444" stop-color="#87BF22"/><stop offset="0.666667" stop-color="#87C022"/><stop offset="0.688889" stop-color="#88C023"/><stop offset="0.711111" stop-color="#88C123"/><stop offset="0.733333" stop-color="#89C223"/><stop offset="0.755556" stop-color="#89C223"/><stop offset="0.777778" stop-color="#8AC323"/><stop offset="0.8" stop-color="#8AC323"/><stop offset="0.822222" stop-color="#8AC423"/><stop offset="0.844444" stop-color="#8BC423"/><stop offset="0.866667" stop-color="#8BC423"/><stop offset="0.888889" stop-color="#8BC523"/><stop offset="0.911111" stop-color="#8BC523"/><stop offset="0.933333" stop-color="#8BC523"/><stop offset="0.955556" stop-color="#8BC523"/><stop offset="0.977778" stop-color="#8BC523"/><stop offset="1" stop-color="#8CC624"/></linearGradient><linearGradient x1="1643" y1="343" x2="1643" y2="399" gradientUnits="userSpaceOnUse" spreadMethod="reflect" id="fill7"><stop offset="0" stop-color="#6C981C"/><stop offset="0.0222222" stop-color="#6D991C"/><stop offset="0.0444444" stop-color="#6E9B1C"/><stop offset="0.0666667" stop-color="#6F9D1C"/><stop offset="0.0888889" stop-color="#719F1D"/><stop offset="0.111111" stop-color="#72A11D"/><stop offset="0.133333" stop-color="#73A21D"/><stop offset="0.155556" stop-color="#74A41E"/><stop offset="0.177778" stop-color="#75A61E"/><stop offset="0.2" stop-color="#76A71E"/><stop offset="0.222222" stop-color="#78A91F"/><stop offset="0.244444" stop-color="#79AA1F"/><stop offset="0.266667" stop-color="#7AAC1F"/><stop offset="0.288889" stop-color="#7BAD1F"/><stop offset="0.311111" stop-color="#7CAF20"/><stop offset="0.333333" stop-color="#7DB020"/><stop offset="0.355556" stop-color="#7DB120"/><stop offset="0.377778" stop-color="#7EB320"/><stop offset="0.4" stop-color="#7FB420"/><stop offset="0.422222" stop-color="#80B521"/><stop offset="0.444444" stop-color="#81B621"/><stop offset="0.466667" stop-color="#82B721"/><stop offset="0.488889" stop-color="#82B821"/><stop offset="0.511111" stop-color="#83B921"/><stop offset="0.533333" stop-color="#84BA22"/><stop offset="0.555556" stop-color="#85BB22"/><stop offset="0.577778" stop-color="#85BC22"/><stop offset="0.6" stop-color="#86BD22"/><stop offset="0.622222" stop-color="#86BE22"/><stop offset="0.644444" stop-color="#87BF22"/><stop offset="0.666667" stop-color="#87C022"/><stop offset="0.688889" stop-color="#88C023"/><stop offset="0.711111" stop-color="#88C123"/><stop offset="0.733333" stop-color="#89C223"/><stop offset="0.755556" stop-color="#89C223"/><stop offset="0.777778" stop-color="#8AC323"/><stop offset="0.8" stop-color="#8AC323"/><stop offset="0.822222" stop-color="#8AC423"/><stop offset="0.844444" stop-color="#8BC423"/><stop offset="0.866667" stop-color="#8BC423"/><stop offset="0.888889" stop-color="#8BC523"/><stop offset="0.911111" stop-color="#8BC523"/><stop offset="0.933333" stop-color="#8BC523"/><stop offset="0.955556" stop-color="#8BC523"/><stop offset="0.977778" stop-color="#8BC523"/><stop offset="1" stop-color="#8CC624"/></linearGradient><linearGradient x1="1527" y1="322" x2="1527" y2="378" gradientUnits="userSpaceOnUse" spreadMethod="reflect" id="fill8"><stop offset="0" stop-color="#6C981C"/><stop offset="0.0222222" stop-color="#6D991C"/><stop offset="0.0444444" stop-color="#6E9B1C"/><stop offset="0.0666667" stop-color="#6F9D1C"/><stop offset="0.0888889" stop-color="#719F1D"/><stop offset="0.111111" stop-color="#72A11D"/><stop offset="0.133333" stop-color="#73A21D"/><stop offset="0.155556" stop-color="#74A41E"/><stop offset="0.177778" stop-color="#75A61E"/><stop offset="0.2" stop-color="#76A71E"/><stop offset="0.222222" stop-color="#78A91F"/><stop offset="0.244444" stop-color="#79AA1F"/><stop offset="0.266667" stop-color="#7AAC1F"/><stop offset="0.288889" stop-color="#7BAD1F"/><stop offset="0.311111" stop-color="#7CAF20"/><stop offset="0.333333" stop-color="#7DB020"/><stop offset="0.355556" stop-color="#7DB120"/><stop offset="0.377778" stop-color="#7EB320"/><stop offset="0.4" stop-color="#7FB420"/><stop offset="0.422222" stop-color="#80B521"/><stop offset="0.444444" stop-color="#81B621"/><stop offset="0.466667" stop-color="#82B721"/><stop offset="0.488889" stop-color="#82B821"/><stop offset="0.511111" stop-color="#83B921"/><stop offset="0.533333" stop-color="#84BA22"/><stop offset="0.555556" stop-color="#85BB22"/><stop offset="0.577778" stop-color="#85BC22"/><stop offset="0.6" stop-color="#86BD22"/><stop offset="0.622222" stop-color="#86BE22"/><stop offset="0.644444" stop-color="#87BF22"/><stop offset="0.666667" stop-color="#87C022"/><stop offset="0.688889" stop-color="#88C023"/><stop offset="0.711111" stop-color="#88C123"/><stop offset="0.733333" stop-color="#89C223"/><stop offset="0.755556" stop-color="#89C223"/><stop offset="0.777778" stop-color="#8AC323"/><stop offset="0.8" stop-color="#8AC323"/><stop offset="0.822222" stop-color="#8AC423"/><stop offset="0.844444" stop-color="#8BC423"/><stop offset="0.866667" stop-color="#8BC423"/><stop offset="0.888889" stop-color="#8BC523"/><stop offset="0.911111" stop-color="#8BC523"/><stop offset="0.933333" stop-color="#8BC523"/><stop offset="0.955556" stop-color="#8BC523"/><stop offset="0.977778" stop-color="#8BC523"/><stop offset="1" stop-color="#8CC624"/></linearGradient><linearGradient x1="1432" y1="430" x2="1432" y2="486" gradientUnits="userSpaceOnUse" spreadMethod="reflect" id="fill9"><stop offset="0" stop-color="#6C981C"/><stop offset="0.0222222" stop-color="#6D991C"/><stop offset="0.0444444" stop-color="#6E9B1C"/><stop offset="0.0666667" stop-color="#6F9D1C"/><stop offset="0.0888889" stop-color="#719F1D"/><stop offset="0.111111" stop-color="#72A11D"/><stop offset="0.133333" stop-color="#73A21D"/><stop offset="0.155556" stop-color="#74A41E"/><stop offset="0.177778" stop-color="#75A61E"/><stop offset="0.2" stop-color="#76A71E"/><stop offset="0.222222" stop-color="#78A91F"/><stop offset="0.244444" stop-color="#79AA1F"/><stop offset="0.266667" stop-color="#7AAC1F"/><stop offset="0.288889" stop-color="#7BAD1F"/><stop offset="0.311111" stop-color="#7CAF20"/><stop offset="0.333333" stop-color="#7DB020"/><stop offset="0.355556" stop-color="#7DB120"/><stop offset="0.377778" stop-color="#7EB320"/><stop offset="0.4" stop-color="#7FB420"/><stop offset="0.422222" stop-color="#80B521"/><stop offset="0.444444" stop-color="#81B621"/><stop offset="0.466667" stop-color="#82B721"/><stop offset="0.488889" stop-color="#82B821"/><stop offset="0.511111" stop-color="#83B921"/><stop offset="0.533333" stop-color="#84BA22"/><stop offset="0.555556" stop-color="#85BB22"/><stop offset="0.577778" stop-color="#85BC22"/><stop offset="0.6" stop-color="#86BD22"/><stop offset="0.622222" stop-color="#86BE22"/><stop offset="0.644444" stop-color="#87BF22"/><stop offset="0.666667" stop-color="#87C022"/><stop offset="0.688889" stop-color="#88C023"/><stop offset="0.711111" stop-color="#88C123"/><stop offset="0.733333" stop-color="#89C223"/><stop offset="0.755556" stop-color="#89C223"/><stop offset="0.777778" stop-color="#8AC323"/><stop offset="0.8" stop-color="#8AC323"/><stop offset="0.822222" stop-color="#8AC423"/><stop offset="0.844444" stop-color="#8BC423"/><stop offset="0.866667" stop-color="#8BC423"/><stop offset="0.888889" stop-color="#8BC523"/><stop offset="0.911111" stop-color="#8BC523"/><stop offset="0.933333" stop-color="#8BC523"/><stop offset="0.955556" stop-color="#8BC523"/><stop offset="0.977778" stop-color="#8BC523"/><stop offset="1" stop-color="#8CC624"/></linearGradient><linearGradient x1="1402" y1="241" x2="1402" y2="297" gradientUnits="userSpaceOnUse" spreadMethod="reflect" id="fill10"><stop offset="0" stop-color="#6C981C"/><stop offset="0.0222222" stop-color="#6D991C"/><stop offset="0.0444444" stop-color="#6E9B1C"/><stop offset="0.0666667" stop-color="#6F9D1C"/><stop offset="0.0888889" stop-color="#719F1D"/><stop offset="0.111111" stop-color="#72A11D"/><stop offset="0.133333" stop-color="#73A21D"/><stop offset="0.155556" stop-color="#74A41E"/><stop offset="0.177778" stop-color="#75A61E"/><stop offset="0.2" stop-color="#76A71E"/><stop offset="0.222222" stop-color="#78A91F"/><stop offset="0.244444" stop-color="#79AA1F"/><stop offset="0.266667" stop-color="#7AAC1F"/><stop offset="0.288889" stop-color="#7BAD1F"/><stop offset="0.311111" stop-color="#7CAF20"/><stop offset="0.333333" stop-color="#7DB020"/><stop offset="0.355556" stop-color="#7DB120"/><stop offset="0.377778" stop-color="#7EB320"/><stop offset="0.4" stop-color="#7FB420"/><stop offset="0.422222" stop-color="#80B521"/><stop offset="0.444444" stop-color="#81B621"/><stop offset="0.466667" stop-color="#82B721"/><stop offset="0.488889" stop-color="#82B821"/><stop offset="0.511111" stop-color="#83B921"/><stop offset="0.533333" stop-color="#84BA22"/><stop offset="0.555556" stop-color="#85BB22"/><stop offset="0.577778" stop-color="#85BC22"/><stop offset="0.6" stop-color="#86BD22"/><stop offset="0.622222" stop-color="#86BE22"/><stop offset="0.644444" stop-color="#87BF22"/><stop offset="0.666667" stop-color="#87C022"/><stop offset="0.688889" stop-color="#88C023"/><stop offset="0.711111" stop-color="#88C123"/><stop offset="0.733333" stop-color="#89C223"/><stop offset="0.755556" stop-color="#89C223"/><stop offset="0.777778" stop-color="#8AC323"/><stop offset="0.8" stop-color="#8AC323"/><stop offset="0.822222" stop-color="#8AC423"/><stop offset="0.844444" stop-color="#8BC423"/><stop offset="0.866667" stop-color="#8BC423"/><stop offset="0.888889" stop-color="#8BC523"/><stop offset="0.911111" stop-color="#8BC523"/><stop offset="0.933333" stop-color="#8BC523"/><stop offset="0.955556" stop-color="#8BC523"/><stop offset="0.977778" stop-color="#8BC523"/><stop offset="1" stop-color="#8CC624"/></linearGradient><linearGradient x1="1859" y1="501" x2="1859" y2="557" gradientUnits="userSpaceOnUse" spreadMethod="reflect" id="fill11"><stop offset="0" stop-color="#6C981C"/><stop offset="0.0222222" stop-color="#6D991C"/><stop offset="0.0444444" stop-color="#6E9B1C"/><stop offset="0.0666667" stop-color="#6F9D1C"/><stop offset="0.0888889" stop-color="#719F1D"/><stop offset="0.111111" stop-color="#72A11D"/><stop offset="0.133333" stop-color="#73A21D"/><stop offset="0.155556" stop-color="#74A41E"/><stop offset="0.177778" stop-color="#75A61E"/><stop offset="0.2" stop-color="#76A71E"/><stop offset="0.222222" stop-color="#78A91F"/><stop offset="0.244444" stop-color="#79AA1F"/><stop offset="0.266667" stop-color="#7AAC1F"/><stop offset="0.288889" stop-color="#7BAD1F"/><stop offset="0.311111" stop-color="#7CAF20"/><stop offset="0.333333" stop-color="#7DB020"/><stop offset="0.355556" stop-color="#7DB120"/><stop offset="0.377778" stop-color="#7EB320"/><stop offset="0.4" stop-color="#7FB420"/><stop offset="0.422222" stop-color="#80B521"/><stop offset="0.444444" stop-color="#81B621"/><stop offset="0.466667" stop-color="#82B721"/><stop offset="0.488889" stop-color="#82B821"/><stop offset="0.511111" stop-color="#83B921"/><stop offset="0.533333" stop-color="#84BA22"/><stop offset="0.555556" stop-color="#85BB22"/><stop offset="0.577778" stop-color="#85BC22"/><stop offset="0.6" stop-color="#86BD22"/><stop offset="0.622222" stop-color="#86BE22"/><stop offset="0.644444" stop-color="#87BF22"/><stop offset="0.666667" stop-color="#87C022"/><stop offset="0.688889" stop-color="#88C023"/><stop offset="0.711111" stop-color="#88C123"/><stop offset="0.733333" stop-color="#89C223"/><stop offset="0.755556" stop-color="#89C223"/><stop offset="0.777778" stop-color="#8AC323"/><stop offset="0.8" stop-color="#8AC323"/><stop offset="0.822222" stop-color="#8AC423"/><stop offset="0.844444" stop-color="#8BC423"/><stop offset="0.866667" stop-color="#8BC423"/><stop offset="0.888889" stop-color="#8BC523"/><stop offset="0.911111" stop-color="#8BC523"/><stop offset="0.933333" stop-color="#8BC523"/><stop offset="0.955556" stop-color="#8BC523"/><stop offset="0.977778" stop-color="#8BC523"/><stop offset="1" stop-color="#8CC624"/></linearGradient><linearGradient x1="1459.5" y1="550" x2="1459.5" y2="606" gradientUnits="userSpaceOnUse" spreadMethod="reflect" id="fill12"><stop offset="0" stop-color="#6C981C"/><stop offset="0.0222222" stop-color="#6D991C"/><stop offset="0.0444444" stop-color="#6E9B1C"/><stop offset="0.0666667" stop-color="#6F9D1C"/><stop offset="0.0888889" stop-color="#719F1D"/><stop offset="0.111111" stop-color="#72A11D"/><stop offset="0.133333" stop-color="#73A21D"/><stop offset="0.155556" stop-color="#74A41E"/><stop offset="0.177778" stop-color="#75A61E"/><stop offset="0.2" stop-color="#76A71E"/><stop offset="0.222222" stop-color="#78A91F"/><stop offset="0.244444" stop-color="#79AA1F"/><stop offset="0.266667" stop-color="#7AAC1F"/><stop offset="0.288889" stop-color="#7BAD1F"/><stop offset="0.311111" stop-color="#7CAF20"/><stop offset="0.333333" stop-color="#7DB020"/><stop offset="0.355556" stop-color="#7DB120"/><stop offset="0.377778" stop-color="#7EB320"/><stop offset="0.4" stop-color="#7FB420"/><stop offset="0.422222" stop-color="#80B521"/><stop offset="0.444444" stop-color="#81B621"/><stop offset="0.466667" stop-color="#82B721"/><stop offset="0.488889" stop-color="#82B821"/><stop offset="0.511111" stop-color="#83B921"/><stop offset="0.533333" stop-color="#84BA22"/><stop offset="0.555556" stop-color="#85BB22"/><stop offset="0.577778" stop-color="#85BC22"/><stop offset="0.6" stop-color="#86BD22"/><stop offset="0.622222" stop-color="#86BE22"/><stop offset="0.644444" stop-color="#87BF22"/><stop offset="0.666667" stop-color="#87C022"/><stop offset="0.688889" stop-color="#88C023"/><stop offset="0.711111" stop-color="#88C123"/><stop offset="0.733333" stop-color="#89C223"/><stop offset="0.755556" stop-color="#89C223"/><stop offset="0.777778" stop-color="#8AC323"/><stop offset="0.8" stop-color="#8AC323"/><stop offset="0.822222" stop-color="#8AC423"/><stop offset="0.844444" stop-color="#8BC423"/><stop offset="0.866667" stop-color="#8BC423"/><stop offset="0.888889" stop-color="#8BC523"/><stop offset="0.911111" stop-color="#8BC523"/><stop offset="0.933333" stop-color="#8BC523"/><stop offset="0.955556" stop-color="#8BC523"/><stop offset="0.977778" stop-color="#8BC523"/><stop offset="1" stop-color="#8CC624"/></linearGradient><linearGradient x1="1734.5" y1="572" x2="1734.5" y2="628" gradientUnits="userSpaceOnUse" spreadMethod="reflect" id="fill13"><stop offset="0" stop-color="#6C981C"/><stop offset="0.0222222" stop-color="#6D991C"/><stop offset="0.0444444" stop-color="#6E9B1C"/><stop offset="0.0666667" stop-color="#6F9D1C"/><stop offset="0.0888889" stop-color="#719F1D"/><stop offset="0.111111" stop-color="#72A11D"/><stop offset="0.133333" stop-color="#73A21D"/><stop offset="0.155556" stop-color="#74A41E"/><stop offset="0.177778" stop-color="#75A61E"/><stop offset="0.2" stop-color="#76A71E"/><stop offset="0.222222" stop-color="#78A91F"/><stop offset="0.244444" stop-color="#79AA1F"/><stop offset="0.266667" stop-color="#7AAC1F"/><stop offset="0.288889" stop-color="#7BAD1F"/><stop offset="0.311111" stop-color="#7CAF20"/><stop offset="0.333333" stop-color="#7DB020"/><stop offset="0.355556" stop-color="#7DB120"/><stop offset="0.377778" stop-color="#7EB320"/><stop offset="0.4" stop-color="#7FB420"/><stop offset="0.422222" stop-color="#80B521"/><stop offset="0.444444" stop-color="#81B621"/><stop offset="0.466667" stop-color="#82B721"/><stop offset="0.488889" stop-color="#82B821"/><stop offset="0.511111" stop-color="#83B921"/><stop offset="0.533333" stop-color="#84BA22"/><stop offset="0.555556" stop-color="#85BB22"/><stop offset="0.577778" stop-color="#85BC22"/><stop offset="0.6" stop-color="#86BD22"/><stop offset="0.622222" stop-color="#86BE22"/><stop offset="0.644444" stop-color="#87BF22"/><stop offset="0.666667" stop-color="#87C022"/><stop offset="0.688889" stop-color="#88C023"/><stop offset="0.711111" stop-color="#88C123"/><stop offset="0.733333" stop-color="#89C223"/><stop offset="0.755556" stop-color="#89C223"/><stop offset="0.777778" stop-color="#8AC323"/><stop offset="0.8" stop-color="#8AC323"/><stop offset="0.822222" stop-color="#8AC423"/><stop offset="0.844444" stop-color="#8BC423"/><stop offset="0.866667" stop-color="#8BC423"/><stop offset="0.888889" stop-color="#8BC523"/><stop offset="0.911111" stop-color="#8BC523"/><stop offset="0.933333" stop-color="#8BC523"/><stop offset="0.955556" stop-color="#8BC523"/><stop offset="0.977778" stop-color="#8BC523"/><stop offset="1" stop-color="#8CC624"/></linearGradient><linearGradient x1="1646" y1="6.99987" x2="1646" y2="63.9999" gradientUnits="userSpaceOnUse" spreadMethod="reflect" id="fill14"><stop offset="0" stop-color="#6C981C"/><stop offset="0.0222222" stop-color="#6D991C"/><stop offset="0.0444444" stop-color="#6E9B1C"/><stop offset="0.0666667" stop-color="#6F9D1C"/><stop offset="0.0888889" stop-color="#719F1D"/><stop offset="0.111111" stop-color="#72A11D"/><stop offset="0.133333" stop-color="#73A21D"/><stop offset="0.155556" stop-color="#74A41E"/><stop offset="0.177778" stop-color="#75A61E"/><stop offset="0.2" stop-color="#76A71E"/><stop offset="0.222222" stop-color="#78A91F"/><stop offset="0.244444" stop-color="#79AA1F"/><stop offset="0.266667" stop-color="#7AAC1F"/><stop offset="0.288889" stop-color="#7BAD1F"/><stop offset="0.311111" stop-color="#7CAF20"/><stop offset="0.333333" stop-color="#7DB020"/><stop offset="0.355556" stop-color="#7DB120"/><stop offset="0.377778" stop-color="#7EB320"/><stop offset="0.4" stop-color="#7FB420"/><stop offset="0.422222" stop-color="#80B521"/><stop offset="0.444444" stop-color="#81B621"/><stop offset="0.466667" stop-color="#82B721"/><stop offset="0.488889" stop-color="#82B821"/><stop offset="0.511111" stop-color="#83B921"/><stop offset="0.533333" stop-color="#84BA22"/><stop offset="0.555556" stop-color="#85BB22"/><stop offset="0.577778" stop-color="#85BC22"/><stop offset="0.6" stop-color="#86BD22"/><stop offset="0.622222" stop-color="#86BE22"/><stop offset="0.644444" stop-color="#87BF22"/><stop offset="0.666667" stop-color="#87C022"/><stop offset="0.688889" stop-color="#88C023"/><stop offset="0.711111" stop-color="#88C123"/><stop offset="0.733333" stop-color="#89C223"/><stop offset="0.755556" stop-color="#89C223"/><stop offset="0.777778" stop-color="#8AC323"/><stop offset="0.8" stop-color="#8AC323"/><stop offset="0.822222" stop-color="#8AC423"/><stop offset="0.844444" stop-color="#8BC423"/><stop offset="0.866667" stop-color="#8BC423"/><stop offset="0.888889" stop-color="#8BC523"/><stop offset="0.911111" stop-color="#8BC523"/><stop offset="0.933333" stop-color="#8BC523"/><stop offset="0.955556" stop-color="#8BC523"/><stop offset="0.977778" stop-color="#8BC523"/><stop offset="1" stop-color="#8CC624"/></linearGradient><clipPath id="clip15"><rect x="1380" y="324" width="233" height="155"/></clipPath><clipPath id="clip16"><rect x="1380" y="324" width="233" height="155"/></clipPath><clipPath id="clip17"><rect x="1380" y="324" width="233" height="155"/></clipPath><clipPath id="clip18"><rect x="1398" y="112" width="402" height="155"/></clipPath><clipPath id="clip19"><rect x="1398" y="112" width="402" height="155"/></clipPath><clipPath id="clip20"><rect x="1398" y="112" width="402" height="155"/></clipPath><clipPath id="clip21"><rect x="1710" y="474" width="111" height="91"/></clipPath><clipPath id="clip22"><rect x="1710" y="474" width="111" height="91"/></clipPath><clipPath id="clip23"><rect x="1710" y="474" width="111" height="91"/></clipPath></defs><g clip-path="url(#clip0)" transform="translate(-1299 0)"><path d="M1538.4 588.143 1535 547 1561.1 575.571 1588.33 560.714 1582.65 588.143 1594 587 1580.38 603 1538.4 588.143Z" fill="url(#fill1)" fill-rule="evenodd"/><rect x="1299" y="0" width="650" height="650" fill="#8CC624"/><path d="M1440.46 137.143 1437 95.9999 1463.54 124.571 1491.23 109.714 1485.46 137.143 1497 136 1483.15 152 1440.46 137.143Z" fill="url(#fill2)" fill-rule="evenodd"/><path d="M1560.46 225.143 1557 184 1583.54 212.571 1611.23 197.714 1605.46 225.143 1617 224 1603.15 240 1560.46 225.143Z" fill="url(#fill3)" fill-rule="evenodd"/><path d="M1726.46 165.143 1723 124 1749.54 152.572 1777.23 137.714 1771.46 165.143 1783 164 1769.15 180 1726.46 165.143Z" fill="url(#fill4)" fill-rule="evenodd"/><path d="M1741.4 338.143 1738 297 1764.1 325.571 1791.33 310.714 1785.65 338.143 1797 337 1783.38 353 1741.4 338.143Z" fill="url(#fill5)" fill-rule="evenodd"/><path d="M1636.46 486.143 1633 445 1659.54 473.571 1687.23 458.714 1681.46 486.143 1693 485 1679.15 501 1636.46 486.143Z" fill="url(#fill6)" fill-rule="evenodd"/><path d="M1616.46 384.143 1613 343 1639.54 371.572 1667.23 356.714 1661.46 384.143 1673 383 1659.15 399 1616.46 384.143Z" fill="url(#fill7)" fill-rule="evenodd"/><path d="M1500.46 363.143 1497 322 1523.54 350.572 1551.23 335.714 1545.46 363.143 1557 362 1543.15 378 1500.46 363.143Z" fill="url(#fill8)" fill-rule="evenodd"/><path d="M1405.46 471.143 1402 430 1428.54 458.571 1456.23 443.714 1450.46 471.143 1462 470 1448.15 486 1405.46 471.143Z" fill="url(#fill9)" fill-rule="evenodd"/><path d="M1375.46 282.143 1372 241 1398.54 269.571 1426.23 254.714 1420.46 282.143 1432 281 1418.15 297 1375.46 282.143Z" fill="url(#fill10)" fill-rule="evenodd"/><path d="M1832.46 542.143 1829 501 1855.54 529.571 1883.23 514.714 1877.46 542.143 1889 541 1875.15 557 1832.46 542.143Z" fill="url(#fill11)" fill-rule="evenodd"/><path d="M1433.4 591.143 1430 550 1456.1 578.571 1483.33 563.714 1477.65 591.143 1489 590 1475.38 606 1433.4 591.143Z" fill="url(#fill12)" fill-rule="evenodd"/><path d="M1708.4 613.143 1705 572 1731.1 600.571 1758.33 585.714 1752.65 613.143 1764 612 1750.38 628 1708.4 613.143Z" fill="url(#fill13)" fill-rule="evenodd"/><path d="M1619.46 48.8775 1616 6.99987 1642.54 36.0815 1670.23 20.9591 1664.46 48.8775 1676 47.7142 1662.15 63.9999 1619.46 48.8775Z" fill="url(#fill14)" fill-rule="evenodd"/><g clip-path="url(#clip15)"><g clip-path="url(#clip16)"><g clip-path="url(#clip17)"><path d="M214.778 21.8842C214.778 21.5716 214.571 20.8431 214.152 19.6958 213.63 18.5484 213.371 17.6637 213.371 17.0384L213.371 16.7258C215.663 18.4953 217.957 20.9995 220.249 24.2289L214.778 21.8842ZM203.523 31.8884C201.96 35.4305 200.344 38.141 198.677 40.0168 195.654 43.5589 191.643 44.3405 186.641 42.3616L185.703 42.3616C189.767 43.8215 198.415 44.6531 211.651 44.8626 212.38 47.7795 212.746 50.49 212.746 52.991 212.746 55.9079 212.33 60.86 211.498 67.841L203.057 63.6205C204.305 75.3973 201.754 85.3484 195.398 93.4768 189.351 101.186 181.276 105.666 171.169 106.92 165.541 107.648 161.268 110.359 158.351 115.048 155.847 119.113 149.231 121.145 138.496 121.145 130.161 121.145 123.852 120.416 119.582 118.956 120 118.225 121.926 115.986 125.365 112.235 128.285 109.212 129.742 106.554 129.742 104.259 125.678 105.304 121.248 107.439 116.455 110.672 112.494 113.379 106.192 115.361 97.541 116.608 99.9389 118.487 102.177 120.204 104.263 121.767 105.304 122.705 105.826 123.796 105.826 125.049 105.826 129.636 103.012 132.812 97.3847 134.585 89.7784 136.983 83.8384 141.516 79.5647 148.187L66.4342 152.561C68.1005 148.394 72.271 139.171 78.9394 124.893 81.6499 119.159 83.0036 113.585 83.0036 108.164 83.0036 106.917 82.6379 105.247 81.9094 103.162 81.0747 101.077 80.5026 99.6731 80.1899 98.9416 81.231 99.8795 83.3163 104.516 86.4426 112.851L87.6931 114.414C90.2973 110.665 96.4999 103.891 106.295 94.0927 113.276 87.0053 117.34 80.5995 118.487 74.869L119.109 74.2437C121.82 71.1174 124.999 67.5753 128.648 63.6142 130.939 60.6943 131.774 57.5679 131.149 54.2353 132.609 57.049 137.608 68.929 146.155 89.8753L147.093 91.2821C147.299 90.0316 147.409 88.3621 147.409 86.2769 147.409 74.5032 146.418 64.8616 144.439 57.3585 142.354 48.9174 138.811 42.0395 133.809 36.7248L128.648 36.8905 128.804 41.8926 130.68 50.6463C125.678 41.9958 122.552 36.9937 121.301 35.64 116.927 32.6168 112.391 30.3252 107.702 28.7621L102.23 27.6679 121.926 27.3552C132.868 27.3552 141.466 28.9716 147.718 32.201 149.281 33.3484 150.898 34.9616 152.564 37.0468L150.219 36.8905 150.219 75.9694C151.576 79.8242 152.88 84.5668 154.127 90.1942 155.275 95.4057 155.847 98.8447 155.847 100.514L155.847 102.39C163.872 102.912 169.187 101.033 171.794 96.7625 173.041 94.7805 174.192 89.9347 175.233 82.2252L177.421 84.1041C179.191 85.4578 180.91 86.552 182.58 87.3867 184.559 83.7383 185.809 80.1962 186.328 76.7573 186.538 75.3004 186.644 72.9557 186.644 69.7231L186.175 58.9373C180.129 61.0225 176.068 62.9483 173.986 64.7209 174.82 62.6357 176.59 60.5536 179.297 58.4683 181.279 57.0083 182.267 54.4541 182.267 50.8089 179.244 44.4531 177.525 40.492 177.112 38.9289L177.112 38.4537C179.404 38.3505 183.83 37.5158 190.399 35.9526 197.27 34.2863 201.647 32.9295 203.523 31.8884ZM29.3874 104.732C30.1158 104.419 32.3573 103.065 36.1089 100.667 38.7131 99.1042 42.2052 97.9036 46.5821 97.072 45.4347 106.138 44.3405 114.789 43.2994 123.02 42.6742 127.397 41.4768 132.506 39.7042 138.339 37.9316 137.089 35.69 132.506 32.9826 124.584 30.0658 116.036 28.8653 109.421 29.3874 104.732Z" fill="#7C7367" fill-rule="evenodd" transform="matrix(1 0 0 1.00464 1380.98 324)"/><path d="M2.34474 98.0099 2.50105 96.7594 2.65737 96.7594C2.5542 97.1752 2.4479 97.5941 2.34474 98.0099ZM2.34474 98.3226C2.4479 97.8005 2.60422 97.2784 2.81368 96.7594L7.50315 97.3847 10.6295 98.9478C15.5284 102.803 19.6958 108.22 23.1347 115.202 26.6768 122.705 28.4495 130.158 28.4495 137.555 28.4495 138.911 28.24 139.693 27.8242 139.899 27.6179 140.003 27.3552 139.953 27.0426 139.743 26.73 139.64 26.3642 139.427 25.9484 139.118 23.6568 137.555 19.4894 133.906 13.4432 128.176 7.19052 122.129 3.54211 118.275 2.50105 116.608L1.87579 115.983 2.42963e-15 109.73 1.25053 101.758C1.25053 101.343 1.35369 100.977 1.56316 100.664 1.56316 100.245 1.66633 99.8826 1.87579 99.5668 1.97896 99.2542 2.08213 98.8916 2.18842 98.4726 2.18842 98.3757 2.24157 98.3226 2.34474 98.3226ZM19.5395 61.5884C19.7489 62.3168 20.4242 62.7858 21.5716 62.9952 25.7389 62.5794 28.5026 61.6916 29.8563 60.3379L20.4774 58.931 19.5395 61.5884ZM55.6484 34.5458C53.6694 33.711 51.2715 33.2952 48.4579 33.2952 45.6442 33.2952 43.2994 33.711 41.4237 34.5458 39.4447 35.3805 38.4537 36.3684 38.4537 37.5158 38.4537 38.6631 39.4447 39.651 41.4237 40.4858 43.2994 41.3205 45.6442 41.7363 48.4579 41.7363 51.2715 41.7363 53.6694 41.3205 55.6484 40.4858 57.5242 39.651 58.4621 38.6631 58.4621 37.5158 58.4621 36.3684 57.5242 35.3805 55.6484 34.5458ZM121.301 35.64C120.054 37.3063 117.759 44.4968 114.423 57.2115 111.716 67.4252 106.035 75.6568 97.3847 81.9094 92.0699 85.7642 85.0889 88.4215 76.4384 89.8815 68.8289 91.2383 61.1194 91.5479 53.3036 90.8194 47.051 90.1942 41.0579 91.2383 35.3273 93.9457 29.181 96.9689 25.3231 98.4789 23.76 98.4789 22.8221 98.4789 20.0584 97.4378 15.4753 95.3526 10.889 93.1642 7.60632 91.2383 5.62737 89.5689 6.66843 86.9615 7.91895 83.9384 9.37894 80.5026 15.5284 65.8089 20.8431 56.0142 25.3231 51.1152 29.1779 46.8416 33.2421 40.5389 37.5158 32.201 41.4768 24.2821 44.1842 19.6426 45.6442 18.2889 48.0421 16.2037 51.0621 15.3189 54.7105 15.6316 63.7768 16.2568 71.5926 16.4131 78.1578 16.1005 81.8063 15.9973 91.2352 13.2337 106.451 7.81578 121.145 2.60422 133.753 4.16509e-15 144.279 4.16509e-15 150.113 4.16509e-15 161.993 2.18842 179.916 6.56526 198.049 10.9421 209.2 14.4342 213.368 17.0384 213.368 17.6637 213.627 18.5484 214.149 19.6958 214.568 20.8431 214.775 21.5716 214.775 21.8842 214.356 22.5095 213.265 23.8131 211.492 25.7921 209.823 27.6679 208.678 28.8152 208.05 29.231 202.526 30.4816 197.474 31.8884 192.887 33.4516 190.802 34.18 187.729 34.5458 183.665 34.5458 166.783 33.3984 154.799 32.6168 147.712 32.201 141.459 28.9716 132.862 27.3552 121.92 27.3552L102.224 27.6679 107.695 28.7621C112.391 30.3252 116.924 32.6168 121.301 35.64ZM190.393 15.4753C190.393 14.2247 190.286 13.4963 190.077 13.2868L189.611 13.4432 189.611 17.351 142.716 17.6637C144.279 18.3921 147.459 19.1237 152.251 19.8521 158.71 20.8932 165.745 21.4153 173.354 21.4153 184.712 21.4153 190.393 19.4363 190.393 15.4753ZM67.841 57.9931 66.5905 47.3637C56.0642 50.5931 49.3426 53.2505 46.4258 55.3358 45.9037 55.6484 44.4468 57.471 42.0489 60.8068 43.4026 62.7858 44.7594 64.1926 46.1131 65.0273 47.9889 66.1747 50.2805 66.7468 52.991 66.7468 62.8921 66.7468 67.841 63.83 67.841 57.9931ZM69.2478 65.4963 76.2821 65.6526C78.1578 65.6526 80.8152 65.2368 84.2542 64.4021 87.9026 63.5673 90.6631 62.6294 92.5389 61.5884L69.2478 65.4963ZM64.0894 35.0147C64.0894 36.2652 64.7678 37.3595 66.1215 38.2973 67.3721 39.2352 68.8821 39.7042 70.6547 39.7042 72.4242 39.7042 73.9873 39.2352 75.3442 38.2973 76.5947 37.3595 77.22 36.2652 77.22 35.0147 77.22 33.7642 76.5947 32.67 75.3442 31.7321 73.9873 30.7942 72.4242 30.3252 70.6547 30.3252 68.8821 30.3252 67.3721 30.7942 66.1215 31.7321 64.7678 32.67 64.0894 33.7642 64.0894 35.0147ZM54.5542 96.9157C55.1794 96.8126 55.7015 96.8126 56.1173 96.9157L58.1494 96.9157C58.4621 97.7505 58.7747 98.5821 59.0873 99.4168 66.9031 119.635 68.9884 132.087 65.34 136.776 62.2136 140.84 59.1905 142.873 56.2737 142.873 53.1473 142.873 49.7084 142.557 45.9568 141.935 46.1632 141.206 46.1131 137.245 45.8005 130.052 45.4879 122.655 46.3757 115.411 48.4579 108.327 50.3337 102.387 52.3658 98.5821 54.5542 96.9157Z" fill="#B3AA9E" fill-rule="evenodd" transform="matrix(1 0 0 1.00464 1380.98 324)"/><path d="M2.34474 98.3226 2.34474 98.0099C2.4479 97.5941 2.5542 97.1752 2.65737 96.7625L2.81368 96.7625C2.60422 97.2784 2.4479 97.8005 2.34474 98.3226ZM121.301 35.64C122.552 36.9968 125.678 41.9958 130.68 50.6463L131.149 54.2415C131.774 57.5742 130.943 60.7005 128.648 63.6205 124.999 67.5815 121.82 71.1236 119.109 74.25L118.487 74.8752 117.706 75.6568C110.203 80.9715 104.575 84.8794 100.824 87.3805 94.1552 91.8636 86.7552 95.2994 78.6268 97.6973 77.4794 97.8005 74.25 97.7505 68.9352 97.541 65.1836 97.4378 62.2668 97.2784 60.1815 97.072 59.3468 97.072 58.6715 97.0189 58.1494 96.9157L56.1173 96.9157C55.7015 96.8126 55.1794 96.8126 54.5542 96.9157 52.7816 96.9157 50.1242 96.9689 46.5821 97.072 42.2052 97.9068 38.7131 99.1042 36.1089 100.667 32.3573 103.065 30.1158 104.419 29.3874 104.732 28.6589 104.732 25.4795 103.847 19.8521 102.074 14.6405 100.405 11.5674 99.3636 10.6295 98.9478L7.50315 97.3847 3.12631 95.0399C4.06421 91.4947 4.68947 89.4626 5.0021 88.9436L5.62737 89.5689C7.60632 91.2352 10.8921 93.161 15.4753 95.3526 20.0584 97.4378 22.8221 98.4789 23.76 98.4789 25.3231 98.4789 29.1779 96.9689 35.3273 93.9457 41.0579 91.2383 47.051 90.1942 53.3036 90.8194 61.1194 91.5479 68.8321 91.2383 76.4384 89.8815 85.0889 88.4215 92.0699 85.7673 97.3847 81.9094 106.035 75.6568 111.713 67.4252 114.423 57.2115 117.759 44.4968 120.05 37.3063 121.301 35.64ZM55.6484 34.5458C57.5242 35.3805 58.4621 36.3684 58.4621 37.5158 58.4621 38.6631 57.5242 39.651 55.6484 40.4858 53.6694 41.3205 51.2715 41.7363 48.4579 41.7363 45.6442 41.7363 43.2994 41.3205 41.4237 40.4858 39.4447 39.651 38.4537 38.6631 38.4537 37.5158 38.4537 36.3684 39.4447 35.3805 41.4237 34.5458 43.2994 33.711 45.6442 33.2952 48.4579 33.2952 51.2715 33.2952 53.6694 33.711 55.6484 34.5458ZM19.5395 61.5884 20.4774 58.931 29.8563 60.3379C28.5026 61.6947 25.7421 62.5794 21.5716 62.9952 20.4242 62.7858 19.7489 62.3168 19.5395 61.5884ZM190.393 15.4753C190.393 19.4363 184.712 21.4153 173.354 21.4153 165.745 21.4153 158.71 20.8932 152.251 19.8521 147.459 19.1237 144.279 18.3921 142.716 17.6637L189.611 17.351 189.611 13.4432 190.08 13.2868C190.286 13.4963 190.393 14.2247 190.393 15.4753ZM177.106 38.9226C171.894 39.3384 163.713 38.7131 152.561 37.0468 150.895 34.9616 149.278 33.3453 147.715 32.201 154.803 32.6168 166.786 33.3984 183.668 34.5458 187.732 34.5458 190.805 34.18 192.89 33.4516 197.477 31.8884 202.529 30.4816 208.053 29.231L203.523 31.8884C201.647 32.9295 197.27 34.2863 190.396 35.9526 183.827 37.5158 179.4 38.3505 177.109 38.4537L177.109 38.9226ZM64.0894 35.0147C64.0894 33.7642 64.7678 32.67 66.1215 31.7321 67.3721 30.7942 68.8821 30.3252 70.6547 30.3252 72.4242 30.3252 73.9873 30.7942 75.3442 31.7321 76.5947 32.67 77.22 33.7642 77.22 35.0147 77.22 36.2652 76.5947 37.3595 75.3442 38.2973 73.9873 39.2352 72.4242 39.7042 70.6547 39.7042 68.8821 39.7042 67.3721 39.2352 66.1215 38.2973 64.7678 37.3595 64.0894 36.2652 64.0894 35.0147ZM69.2478 65.4963 92.5389 61.5884C90.6631 62.6294 87.9026 63.5673 84.2542 64.4021 80.8152 65.2368 78.1578 65.6526 76.2821 65.6526L69.2478 65.4963ZM67.841 57.9931C67.841 63.83 62.8921 66.7468 52.991 66.7468 50.2805 66.7468 47.9889 66.1716 46.1131 65.0273 44.7594 64.1926 43.4026 62.7889 42.0489 60.8068 44.4468 57.471 45.9037 55.6484 46.4258 55.3358 49.3426 53.2505 56.0642 50.5931 66.5905 47.3637L67.841 57.9931Z" fill="#D2C8BA" fill-rule="evenodd" transform="matrix(1 0 0 1.00464 1380.98 324)"/><path d="M98.6352 141.778 79.5647 148.19C83.8384 141.519 89.7784 136.986 97.3847 134.588 103.012 132.818 105.826 129.639 105.826 125.053 105.826 123.802 105.304 122.708 104.263 121.77 102.177 120.207 99.9389 118.487 97.541 116.612 106.192 115.364 112.494 113.382 116.455 110.675 121.248 107.442 125.678 105.307 129.742 104.263 129.742 106.554 128.282 109.215 125.365 112.238 121.926 115.986 120 118.228 119.582 118.956 123.852 120.416 130.161 121.145 138.496 121.145 149.231 121.145 155.847 119.113 158.351 115.048 161.268 110.359 165.541 107.651 171.169 106.92 181.276 105.669 189.351 101.186 195.398 93.4768 201.754 85.3452 204.308 75.3942 203.057 63.6205L211.498 67.841C212.333 60.86 212.746 55.9079 212.746 52.991 212.746 50.49 212.383 47.7795 211.651 44.8626 198.418 44.6531 189.767 43.8215 185.703 42.3616L186.641 42.3616C191.643 44.3405 195.654 43.5589 198.677 40.0168 200.344 38.141 201.96 35.4336 203.523 31.8884L208.056 29.231C208.681 28.8152 209.826 27.6679 211.498 25.7921 213.268 23.8131 214.359 22.5095 214.778 21.8842L220.249 24.2289C221.915 26.6268 224.054 30.2221 226.658 35.0147L229.159 42.2052 230.097 46.7384C230.722 50.071 231.038 52.3658 231.038 53.6163 231.038 59.8689 227.233 72.4773 219.627 91.4447 218.792 93.7363 215.512 97.9036 209.779 103.95 203.736 110.409 199.099 114.423 195.87 115.986 188.573 119.635 180.341 122.448 171.172 124.427 161.793 126.197 155.437 127.397 152.101 128.023L98.9541 141.622C98.8447 141.622 98.7384 141.672 98.6352 141.778ZM175.23 82.2221C172.523 76.3852 171.166 73.4184 171.166 73.3121 171.166 70.3921 172.104 67.5284 173.979 64.7147 176.062 62.9421 180.126 61.0131 186.169 58.931L186.638 69.7168C186.638 72.9494 186.535 75.2941 186.322 76.751 185.803 80.1931 184.553 83.7321 182.574 87.3805 180.904 86.5458 179.185 85.4515 177.415 84.0978L175.23 82.2221ZM131.149 54.2415 130.68 50.6463 128.804 41.8926 128.648 36.8905 133.803 36.7342C138.808 42.0489 142.347 48.9268 144.433 57.3679 146.412 64.871 147.403 74.5094 147.403 86.2863 147.403 88.3715 147.296 90.0378 147.087 91.2915L146.149 89.8847C137.611 68.9352 132.609 57.0552 131.149 54.2415ZM80.1899 98.9478 78.6268 97.6973C86.7552 95.2994 94.1552 91.8636 100.824 87.3805 104.575 84.8794 110.203 80.9715 117.706 75.6568L118.487 74.8752C117.34 80.6058 113.276 87.0147 106.295 94.0989 96.4999 103.897 90.2973 110.672 87.6931 114.42L86.4426 112.857C83.3163 104.525 81.231 99.8857 80.1899 98.9478Z" fill="#635B52" fill-rule="evenodd" transform="matrix(1 0 0 1.00464 1380.98 324)"/><path d="M79.5647 148.187 98.6352 141.775C97.072 142.4 92.5389 144.017 85.0357 146.624 76.9073 149.332 70.7078 151.314 66.4342 152.561 62.5794 153.708 58.8278 154.28 55.1794 154.28 54.0321 154.28 51.95 153.186 48.9268 150.998 44.2373 147.665 38.56 144.486 31.8884 141.463L30.0126 140.837C29.2842 140.525 28.5526 140.212 27.8242 139.899 28.24 139.693 28.4495 138.911 28.4495 137.555 28.4495 130.158 26.6768 122.705 23.1347 115.202 19.6958 108.22 15.5284 102.803 10.6295 98.9478 11.5674 99.3636 14.6405 100.405 19.8521 102.074 25.4795 103.844 28.6558 104.732 29.3874 104.732 28.8653 109.421 30.0658 116.036 32.9826 124.584 35.6931 132.506 37.9316 137.089 39.7042 138.339 41.4737 132.506 42.6742 127.397 43.2994 123.02 44.3405 114.789 45.4347 106.141 46.5821 97.072 50.1242 96.9689 52.7816 96.9157 54.5542 96.9157 52.3658 98.5821 50.3337 102.387 48.4579 108.327 46.3726 115.414 45.4879 122.655 45.8005 130.052 46.1131 137.245 46.1663 141.203 45.9568 141.935 49.7084 142.557 53.1473 142.873 56.2737 142.873 59.1905 142.873 62.2136 140.84 65.34 136.776 68.9884 132.087 66.9031 119.635 59.0873 99.4168 58.7747 98.5821 58.4621 97.7505 58.1494 96.9157 58.6715 97.0189 59.3468 97.072 60.1815 97.072 62.2668 97.2784 65.1836 97.4378 68.9352 97.541 74.25 97.7473 77.4794 97.8005 78.6268 97.6973L80.1899 98.9478C80.5026 99.6763 81.0747 101.083 81.9094 103.168 82.6379 105.254 83.0036 106.92 83.0036 108.17 83.0036 113.588 81.6499 119.166 78.9394 124.899 72.271 139.174 68.1005 148.4 66.4342 152.567L79.5647 148.187ZM2.50105 116.612C3.54211 118.278 7.19052 122.136 13.4432 128.179 19.4894 133.909 23.6568 137.558 25.9484 139.121 20.1116 136.517 15.9442 134.069 13.4432 131.774 10.6295 129.167 6.98106 124.115 2.50105 116.612ZM2.65737 96.7594 2.50105 96.7594 2.97 95.0399 3.12631 95.0399 7.50315 97.3847 2.81368 96.7594 2.65737 96.7594ZM152.564 37.0468C163.713 38.7131 171.897 39.3384 177.109 38.9226 177.525 40.4858 179.244 44.4468 182.264 50.8026 182.264 54.451 181.276 57.0021 179.294 58.4621 176.587 60.5473 174.814 62.6294 173.982 64.7147 172.104 67.5284 171.169 70.3921 171.169 73.3121 171.169 73.4152 172.526 76.3852 175.233 82.2221 174.192 89.9347 173.045 94.7805 171.794 96.7594 169.187 101.03 163.875 102.909 155.847 102.387L155.847 100.511C155.847 98.8415 155.275 95.4026 154.127 90.191 152.88 84.5637 151.576 79.8242 150.219 75.9663L150.219 36.8905 152.564 37.0468Z" fill="#9B9286" fill-rule="evenodd" transform="matrix(1 0 0 1.00464 1380.98 324)"/></g></g></g><g clip-path="url(#clip18)"><g clip-path="url(#clip19)"><g clip-path="url(#clip20)"><path d="M214.383 21.844C214.383 21.5319 214.177 20.8048 213.759 19.6596 213.238 18.5143 212.979 17.6312 212.979 17.0071L212.979 16.695C215.266 18.4613 217.557 20.9609 219.844 24.1844L214.383 21.844ZM203.149 31.8298C201.589 35.3654 199.975 38.0709 198.312 39.9433 195.294 43.4789 191.291 44.259 186.298 42.2837L185.362 42.2837C189.418 43.741 198.05 44.5711 211.262 44.7801 211.99 47.6916 212.355 50.3972 212.355 52.8936 212.355 55.8051 211.94 60.7481 211.109 67.7163L202.684 63.5035C203.929 75.2587 201.383 85.1915 195.039 93.305 189.003 101 180.943 105.472 170.854 106.723 165.237 107.45 160.971 110.156 158.06 114.837 155.56 118.894 148.957 120.922 138.241 120.922 129.922 120.922 123.624 120.195 119.362 118.738 119.78 118.007 121.702 115.773 125.135 112.028 128.049 109.011 129.504 106.358 129.504 104.068 125.447 105.11 121.025 107.241 116.241 110.468 112.287 113.17 105.996 115.149 97.3617 116.394 99.7552 118.27 101.989 119.983 104.071 121.543 105.11 122.479 105.631 123.568 105.631 124.82 105.631 129.397 102.823 132.568 97.2057 134.337 89.6133 136.731 83.6842 141.256 79.4184 147.915L66.3121 152.281C67.9753 148.121 72.1382 138.915 78.7943 124.664 81.4999 118.94 82.8511 113.376 82.8511 107.965 82.8511 106.72 82.486 105.054 81.7589 102.972 80.9257 100.891 80.3546 99.4899 80.0425 98.7597 81.0817 99.6959 83.1631 104.324 86.2837 112.643L87.5319 114.203C90.1313 110.462 96.3226 103.7 106.099 93.9197 113.068 86.8454 117.124 80.4513 118.27 74.7313L118.89 74.1072C121.596 70.9867 124.77 67.4511 128.411 63.4973 130.699 60.5827 131.532 57.4621 130.908 54.1356 132.365 56.9441 137.355 68.8023 145.887 89.7101L146.823 91.1143C147.029 89.8661 147.138 88.1997 147.138 86.1183 147.138 74.3662 146.149 64.7424 144.173 57.253 142.092 48.8275 138.556 41.9623 133.563 36.6573L128.411 36.8227 128.567 41.8156 130.44 50.5532C125.447 41.9186 122.326 36.9257 121.078 35.5745 116.712 32.5569 112.184 30.2695 107.504 28.7092L102.043 27.617 121.702 27.305C132.624 27.305 141.206 28.9183 147.447 32.1418 149.007 33.2871 150.62 34.8973 152.284 36.9787L149.943 36.8227 149.943 75.8298C151.298 79.6775 152.599 84.4113 153.844 90.0284 154.989 95.2304 155.56 98.663 155.56 100.329L155.56 102.202C163.571 102.723 168.876 100.847 171.478 96.5847 172.723 94.6062 173.872 89.7694 174.911 82.074L177.095 83.9495C178.862 85.3007 180.578 86.3929 182.244 87.2261 184.22 83.5844 185.468 80.0488 185.986 76.6162 186.195 75.162 186.301 72.8216 186.301 69.5949L185.833 58.8289C179.798 60.9104 175.744 62.8326 173.666 64.602 174.499 62.5206 176.265 60.4423 178.968 58.3608 180.946 56.9035 181.932 54.354 181.932 50.7155 178.915 44.3713 177.198 40.4176 176.786 38.8573L176.786 38.383C179.074 38.28 183.492 37.4468 190.049 35.8865 196.908 34.2233 201.277 32.8689 203.149 31.8298ZM29.3333 104.539C30.0604 104.227 32.2979 102.876 36.0426 100.482 38.642 98.922 42.1277 97.7237 46.4965 96.8936 45.3512 105.943 44.259 114.578 43.2199 122.794 42.5957 127.163 41.4006 132.262 39.6312 138.085 37.8618 136.837 35.6244 132.262 32.922 124.355 30.0105 115.823 28.8122 109.22 29.3333 104.539Z" fill="#7C7367" fill-rule="evenodd" transform="matrix(-1.7285 0 0 1 1798.3 112)"/><path d="M2.34043 97.8298 2.49645 96.5816 2.65248 96.5816C2.5495 96.9966 2.4434 97.4147 2.34043 97.8298ZM2.34043 98.1418C2.4434 97.6207 2.59943 97.0996 2.80851 96.5816L7.48936 97.2057 10.6099 98.766C15.4999 102.614 19.6596 108.022 23.0922 114.99 26.6278 122.479 28.3972 129.919 28.3972 137.302 28.3972 138.656 28.1881 139.436 27.773 139.642 27.5671 139.745 27.305 139.695 26.9929 139.486 26.6809 139.383 26.3157 139.171 25.9007 138.862 23.6133 137.302 19.4536 133.66 13.4184 127.94 7.1773 121.905 3.5356 118.057 2.49645 116.394L1.87234 115.77 2.42517e-15 109.529 1.24823 101.571C1.24823 101.156 1.35121 100.791 1.56028 100.479 1.56028 100.061 1.66326 99.699 1.87234 99.3838 1.97532 99.0718 2.0783 98.7098 2.1844 98.2916 2.1844 98.1949 2.23745 98.1418 2.34043 98.1418ZM19.5035 61.4752C19.7126 62.2023 20.3867 62.6704 21.5319 62.8794 25.6916 62.4644 28.4502 61.5782 29.8014 60.2269L20.4397 58.8227 19.5035 61.4752ZM55.5461 34.4823C53.5708 33.6491 51.1773 33.234 48.3688 33.234 45.5603 33.234 43.2199 33.6491 41.3475 34.4823 39.3722 35.3155 38.383 36.3016 38.383 37.4468 38.383 38.5921 39.3722 39.5782 41.3475 40.4113 43.2199 41.2445 45.5603 41.6596 48.3688 41.6596 51.1773 41.6596 53.5708 41.2445 55.5461 40.4113 57.4184 39.5782 58.3546 38.5921 58.3546 37.4468 58.3546 36.3016 57.4184 35.3155 55.5461 34.4823ZM121.078 35.5745C119.833 37.2377 117.542 44.415 114.213 57.1064 111.51 67.3013 105.84 75.5177 97.2057 81.7589 91.9007 85.6065 84.9325 88.259 76.2979 89.7163 68.7024 91.0706 61.0071 91.3796 53.2057 90.6525 46.9645 90.0284 40.9824 91.0706 35.2624 93.773 29.1274 96.7906 25.2766 98.2979 23.7163 98.2979 22.7801 98.2979 20.0216 97.2587 15.4468 95.1773 10.8689 92.9929 7.59234 91.0706 5.61702 89.4043 6.65617 86.8017 7.9044 83.7841 9.3617 80.3546 15.4999 65.6879 20.8048 55.9112 25.2766 51.0213 29.1243 46.7555 33.181 40.4644 37.4468 32.1418 41.4006 24.2374 44.103 19.6065 45.5603 18.2553 47.9538 16.1739 50.9682 15.2908 54.6099 15.6028 63.6596 16.2269 71.461 16.383 78.0142 16.0709 81.6559 15.9679 91.0675 13.2094 106.255 7.80142 120.922 2.59943 133.507 4.15743e-15 144.014 4.15743e-15 149.837 4.15743e-15 161.695 2.1844 179.586 6.55319 197.685 10.922 208.816 14.4077 212.976 17.0071 212.976 17.6312 213.235 18.5143 213.756 19.6596 214.174 20.8048 214.38 21.5319 214.38 21.844 213.962 22.4681 212.873 23.7694 211.103 25.7447 209.437 27.617 208.295 28.7623 207.667 29.1773 202.153 30.4255 197.111 31.8298 192.533 33.3901 190.451 34.1172 187.384 34.4823 183.327 34.4823 166.476 33.337 154.515 32.5569 147.441 32.1418 141.199 28.9183 132.618 27.305 121.696 27.305L102.036 27.617 107.497 28.7092C112.184 30.2695 116.709 32.5569 121.078 35.5745ZM190.043 15.4468C190.043 14.1986 189.936 13.4715 189.727 13.2624L189.262 13.4184 189.262 17.3191 142.454 17.6312C144.014 18.3583 147.188 19.0885 151.972 19.8156 158.419 20.8548 165.44 21.3759 173.035 21.3759 184.372 21.3759 190.043 19.4006 190.043 15.4468ZM67.7163 57.8865 66.4681 47.2766C55.9611 50.5001 49.2519 53.1526 46.3404 55.234 45.8193 55.5461 44.3651 57.3654 41.9716 60.695 43.3228 62.6704 44.6772 64.0746 46.0284 64.9078 47.9007 66.053 50.1881 66.6241 52.8936 66.6241 62.7765 66.6241 67.7163 63.7126 67.7163 57.8865ZM69.1206 65.3759 76.1418 65.5319C78.0142 65.5319 80.6667 65.1169 84.0993 64.2837 87.741 63.4505 90.4965 62.5143 92.3688 61.4752L69.1206 65.3759ZM63.9716 34.9504C63.9716 36.1986 64.6488 37.2908 66 38.227 67.2482 39.1631 68.7555 39.6312 70.5248 39.6312 72.2911 39.6312 73.8513 39.1631 75.2057 38.227 76.4539 37.2908 77.078 36.1986 77.078 34.9504 77.078 33.7021 76.4539 32.6099 75.2057 31.6738 73.8513 30.7376 72.2911 30.2695 70.5248 30.2695 68.7555 30.2695 67.2482 30.7376 66 31.6738 64.6488 32.6099 63.9716 33.7021 63.9716 34.9504ZM54.4539 96.7376C55.078 96.6346 55.5991 96.6346 56.0142 96.7376L58.0426 96.7376C58.3546 97.5708 58.6667 98.4009 58.9787 99.234 66.7801 119.415 68.8616 131.844 65.2199 136.525 62.0993 140.582 59.0817 142.61 56.1702 142.61 53.0496 142.61 49.617 142.295 45.8723 141.674 46.0783 140.947 46.0284 136.993 45.7163 129.812 45.4043 122.429 46.2905 115.199 48.3688 108.128 50.2411 102.199 52.2695 98.4009 54.4539 96.7376Z" fill="#B3AA9E" fill-rule="evenodd" transform="matrix(-1.7285 0 0 1 1798.3 112)"/><path d="M2.34043 98.1418 2.34043 97.8298C2.4434 97.4147 2.5495 96.9966 2.65248 96.5847L2.80851 96.5847C2.59943 97.0996 2.4434 97.6207 2.34043 98.1418ZM121.078 35.5745C122.326 36.9288 125.447 41.9186 130.44 50.5532L130.908 54.1418C131.532 57.4684 130.702 60.5889 128.411 63.5035 124.77 67.4573 121.596 70.9929 118.89 74.1135L118.27 74.7376 117.489 75.5177C110 80.8227 104.383 84.7234 100.638 87.2199 93.9821 91.6948 86.5957 95.1243 78.4823 97.5177 77.337 97.6207 74.1135 97.5708 68.8085 97.3617 65.0638 97.2587 62.1523 97.0996 60.0709 96.8936 59.2377 96.8936 58.5637 96.8406 58.0426 96.7376L56.0142 96.7376C55.5991 96.6346 55.078 96.6346 54.4539 96.7376 52.6845 96.7376 50.0321 96.7906 46.4965 96.8936 42.1277 97.7268 38.642 98.922 36.0426 100.482 32.2979 102.876 30.0604 104.227 29.3333 104.539 28.6062 104.539 25.4326 103.656 19.8156 101.887 14.6136 100.22 11.5461 99.181 10.6099 98.766L7.48936 97.2057 3.12057 94.8652C4.05674 91.3265 4.68085 89.2981 4.99291 88.7801L5.61702 89.4043C7.59234 91.0675 10.8721 92.9898 15.4468 95.1773 20.0216 97.2587 22.7801 98.2979 23.7163 98.2979 25.2766 98.2979 29.1243 96.7906 35.2624 93.773 40.9824 91.0706 46.9645 90.0284 53.2057 90.6525 61.0071 91.3796 68.7055 91.0706 76.2979 89.7163 84.9325 88.259 91.9007 85.6096 97.2057 81.7589 105.84 75.5177 111.507 67.3013 114.213 57.1064 117.542 44.415 119.83 37.2377 121.078 35.5745ZM55.5461 34.4823C57.4184 35.3155 58.3546 36.3016 58.3546 37.4468 58.3546 38.5921 57.4184 39.5782 55.5461 40.4113 53.5708 41.2445 51.1773 41.6596 48.3688 41.6596 45.5603 41.6596 43.2199 41.2445 41.3475 40.4113 39.3722 39.5782 38.383 38.5921 38.383 37.4468 38.383 36.3016 39.3722 35.3155 41.3475 34.4823 43.2199 33.6491 45.5603 33.234 48.3688 33.234 51.1773 33.234 53.5708 33.6491 55.5461 34.4823ZM19.5035 61.4752 20.4397 58.8227 29.8014 60.2269C28.4502 61.5813 25.6948 62.4644 21.5319 62.8794 20.3867 62.6704 19.7126 62.2023 19.5035 61.4752ZM190.043 15.4468C190.043 19.4006 184.372 21.3759 173.035 21.3759 165.44 21.3759 158.419 20.8548 151.972 19.8156 147.188 19.0885 144.014 18.3583 142.454 17.6312L189.262 17.3191 189.262 13.4184 189.73 13.2624C189.936 13.4715 190.043 14.1986 190.043 15.4468ZM176.78 38.8511C171.578 39.2661 163.412 38.642 152.281 36.9787 150.617 34.8973 149.004 33.284 147.444 32.1418 154.518 32.5569 166.479 33.337 183.33 34.4823 187.387 34.4823 190.454 34.1172 192.536 33.3901 197.114 31.8298 202.157 30.4255 207.671 29.1773L203.149 31.8298C201.277 32.8689 196.908 34.2233 190.046 35.8865 183.489 37.4468 179.071 38.28 176.783 38.383L176.783 38.8511ZM63.9716 34.9504C63.9716 33.7021 64.6488 32.6099 66 31.6738 67.2482 30.7376 68.7555 30.2695 70.5248 30.2695 72.2911 30.2695 73.8513 30.7376 75.2057 31.6738 76.4539 32.6099 77.078 33.7021 77.078 34.9504 77.078 36.1986 76.4539 37.2908 75.2057 38.227 73.8513 39.1631 72.2911 39.6312 70.5248 39.6312 68.7555 39.6312 67.2482 39.1631 66 38.227 64.6488 37.2908 63.9716 36.1986 63.9716 34.9504ZM69.1206 65.3759 92.3688 61.4752C90.4965 62.5143 87.741 63.4505 84.0993 64.2837 80.6667 65.1169 78.0142 65.5319 76.1418 65.5319L69.1206 65.3759ZM67.7163 57.8865C67.7163 63.7126 62.7765 66.6241 52.8936 66.6241 50.1881 66.6241 47.9007 66.0499 46.0284 64.9078 44.6772 64.0746 43.3228 62.6735 41.9716 60.695 44.3651 57.3654 45.8193 55.5461 46.3404 55.234 49.2519 53.1526 55.9611 50.5001 66.4681 47.2766L67.7163 57.8865Z" fill="#D2C8BA" fill-rule="evenodd" transform="matrix(-1.7285 0 0 1 1798.3 112)"/><path d="M98.4539 141.518 79.4184 147.918C83.6842 141.259 89.6133 136.734 97.2057 134.34 102.823 132.574 105.631 129.401 105.631 124.823 105.631 123.574 105.11 122.482 104.071 121.546 101.989 119.986 99.7552 118.27 97.3617 116.397 105.996 115.152 112.287 113.174 116.241 110.471 121.025 107.245 125.447 105.113 129.504 104.071 129.504 106.358 128.046 109.014 125.135 112.031 121.702 115.773 119.78 118.01 119.362 118.738 123.624 120.195 129.922 120.922 138.241 120.922 148.957 120.922 155.56 118.894 158.06 114.837 160.971 110.156 165.237 107.454 170.854 106.723 180.943 105.475 189.003 101 195.039 93.305 201.383 85.1884 203.932 75.2556 202.684 63.5035L211.109 67.7163C211.943 60.7481 212.355 55.8051 212.355 52.8936 212.355 50.3972 211.993 47.6916 211.262 44.7801 198.053 44.5711 189.418 43.741 185.362 42.2837L186.298 42.2837C191.291 44.259 195.294 43.4789 198.312 39.9433 199.975 38.0709 201.589 35.3685 203.149 31.8298L207.674 29.1773C208.298 28.7623 209.44 27.617 211.109 25.7447 212.876 23.7694 213.965 22.4681 214.383 21.844L219.844 24.1844C221.507 26.5779 223.642 30.1665 226.241 34.9504L228.738 42.1277 229.674 46.6525C230.298 49.979 230.613 52.2695 230.613 53.5177 230.613 59.7589 226.815 72.3441 219.223 91.2766 218.39 93.564 215.116 97.7237 209.393 103.759 203.361 110.206 198.733 114.213 195.51 115.773 188.226 119.415 180.01 122.223 170.857 124.199 161.496 125.965 155.151 127.163 151.822 127.787L98.7722 141.362C98.663 141.362 98.5569 141.412 98.4539 141.518ZM174.908 82.0709C172.205 76.2448 170.851 73.2834 170.851 73.1773 170.851 70.2627 171.787 67.4043 173.66 64.5957 175.738 62.8264 179.795 60.901 185.827 58.8227L186.295 69.5886C186.295 72.8153 186.192 75.1557 185.98 76.6099 185.462 80.0457 184.213 83.5782 182.238 87.2199 180.572 86.3867 178.855 85.2945 177.089 83.9433L174.908 82.0709ZM130.908 54.1418 130.44 50.5532 128.567 41.8156 128.411 36.8227 133.557 36.6667C138.553 41.9716 142.086 48.8369 144.167 57.2624 146.142 64.7518 147.132 74.3725 147.132 86.1277 147.132 88.2091 147.026 89.8723 146.816 91.1237L145.88 89.7194C137.358 68.8085 132.365 56.9504 130.908 54.1418ZM80.0425 98.766 78.4823 97.5177C86.5957 95.1243 93.9821 91.6948 100.638 87.2199 104.383 84.7234 110 80.8227 117.489 75.5177L118.27 74.7376C117.124 80.4576 113.068 86.8548 106.099 93.926 96.3226 103.706 90.1313 110.468 87.5319 114.21L86.2837 112.649C83.1631 104.333 81.0817 99.7021 80.0425 98.766Z" fill="#635B52" fill-rule="evenodd" transform="matrix(-1.7285 0 0 1 1798.3 112)"/><path d="M79.4184 147.915 98.4539 141.515C96.8936 142.139 92.3688 143.752 84.8794 146.355 76.766 149.057 70.5779 151.035 66.3121 152.281 62.4644 153.426 58.7197 153.997 55.078 153.997 53.9328 153.997 51.8545 152.905 48.8369 150.72 44.156 147.394 38.4891 144.22 31.8298 141.203L29.9574 140.578C29.2304 140.266 28.5001 139.954 27.773 139.642 28.1881 139.436 28.3972 138.656 28.3972 137.302 28.3972 129.919 26.6278 122.479 23.0922 114.99 19.6596 108.022 15.4999 102.614 10.6099 98.766 11.5461 99.181 14.6136 100.22 19.8156 101.887 25.4326 103.653 28.6031 104.539 29.3333 104.539 28.8122 109.22 30.0105 115.823 32.922 124.355 35.6275 132.262 37.8618 136.837 39.6312 138.085 41.3974 132.262 42.5957 127.163 43.2199 122.794 44.259 114.578 45.3512 105.946 46.4965 96.8936 50.0321 96.7906 52.6845 96.7376 54.4539 96.7376 52.2695 98.4009 50.2411 102.199 48.3688 108.128 46.2874 115.202 45.4043 122.429 45.7163 129.812 46.0284 136.993 46.0814 140.944 45.8723 141.674 49.617 142.295 53.0496 142.61 56.1702 142.61 59.0817 142.61 62.0993 140.582 65.2199 136.525 68.8616 131.844 66.7801 119.415 58.9787 99.234 58.6667 98.4009 58.3546 97.5708 58.0426 96.7376 58.5637 96.8406 59.2377 96.8936 60.0709 96.8936 62.1523 97.0996 65.0638 97.2587 68.8085 97.3617 74.1135 97.5677 77.337 97.6207 78.4823 97.5177L80.0425 98.766C80.3546 99.493 80.9257 100.897 81.7589 102.979 82.486 105.06 82.8511 106.723 82.8511 107.972 82.8511 113.38 81.4999 118.947 78.7943 124.67 72.1382 138.918 67.9753 148.127 66.3121 152.287L79.4184 147.915ZM2.49645 116.397C3.5356 118.06 7.1773 121.911 13.4184 127.943 19.4536 133.663 23.6133 137.305 25.9007 138.865 20.0746 136.266 15.9149 133.822 13.4184 131.532 10.6099 128.929 6.96823 123.887 2.49645 116.397ZM2.65248 96.5816 2.49645 96.5816 2.96454 94.8652 3.12057 94.8652 7.48936 97.2057 2.80851 96.5816 2.65248 96.5816ZM152.284 36.9787C163.412 38.642 171.581 39.2661 176.783 38.8511 177.198 40.4113 178.915 44.3651 181.929 50.7092 181.929 54.3509 180.943 56.8973 178.965 58.3546 176.262 60.436 174.493 62.5143 173.663 64.5957 171.787 67.4043 170.854 70.2627 170.854 73.1773 170.854 73.2803 172.209 76.2448 174.911 82.0709 173.872 89.7694 172.727 94.6062 171.478 96.5816 168.876 100.844 163.574 102.72 155.56 102.199L155.56 100.326C155.56 98.6599 154.989 95.2272 153.844 90.0253 152.599 84.4082 151.298 79.6775 149.943 75.8267L149.943 36.8227 152.284 36.9787Z" fill="#9B9286" fill-rule="evenodd" transform="matrix(-1.7285 0 0 1 1798.3 112)"/></g></g></g><g clip-path="url(#clip21)"><g clip-path="url(#clip22)"><g clip-path="url(#clip23)"><path d="M101.397 10.3316C101.397 10.184 101.3 9.84012 101.102 9.29845 100.856 8.75678 100.733 8.33908 100.733 8.04389L100.733 7.8963C101.815 8.73168 102.898 9.91392 103.98 11.4386L101.397 10.3316ZM96.084 15.0546C95.346 16.7269 94.5829 18.0065 93.7962 18.8921 92.369 20.5643 90.4754 20.9333 88.1139 19.999L87.6711 19.999C89.5898 20.6883 93.6723 21.0809 99.9214 21.1798 100.265 22.5569 100.438 23.8365 100.438 25.0173 100.438 26.3943 100.242 28.7322 99.8491 32.028L95.864 30.0355C96.4529 35.5953 95.2486 40.2933 92.248 44.1307 89.3935 47.7704 85.5811 49.8854 80.8094 50.4773 78.1527 50.8212 76.1351 52.1008 74.758 54.3147 73.5758 56.2335 70.4527 57.1928 65.3843 57.1928 61.4495 57.1928 58.471 56.8489 56.4549 56.1597 56.6526 55.8143 57.5618 54.7575 59.1854 52.9864 60.5639 51.5592 61.2517 50.3046 61.2517 49.2213 59.333 49.7142 57.2415 50.7223 54.9789 52.2484 53.1089 53.5266 50.1334 54.4623 46.0495 55.0512 47.1815 55.9383 48.2383 56.7486 49.2227 57.4865 49.7142 57.9293 49.9607 58.4444 49.9607 59.0363 49.9607 61.2015 48.6324 62.7011 45.9757 63.5379 42.3847 64.67 39.5804 66.8101 37.5628 69.9597L31.3638 72.0246C32.1505 70.0572 34.1194 65.7031 37.2676 58.9625 38.5472 56.2556 39.1863 53.624 39.1863 51.0647 39.1863 50.4758 39.0136 49.6877 38.6697 48.7032 38.2757 47.7188 38.0056 47.056 37.858 46.7107 38.3495 47.1535 39.3339 49.3423 40.8099 53.2772L41.4002 54.0151C42.6297 52.2455 45.558 49.0471 50.1821 44.4215 53.4779 41.0755 55.3966 38.0513 55.9383 35.3459L56.232 35.0507C57.5116 33.5748 59.0127 31.9025 60.7351 30.0325 61.817 28.654 62.211 27.178 61.9159 25.6047 62.6051 26.933 64.9651 32.5416 69.0004 42.4304L69.4432 43.0946C69.5406 42.5042 69.5922 41.7161 69.5922 40.7316 69.5922 35.1732 69.1244 30.6214 68.1901 27.0791 67.2056 23.0941 65.5334 19.847 63.1719 17.3379L60.7351 17.4161 60.8089 19.7776 61.6945 23.9103C59.333 19.8264 57.857 17.4648 57.2666 16.8258 55.2018 15.3985 53.0602 14.3167 50.8463 13.5787L48.2634 13.0621 57.5618 12.9145C62.7276 12.9145 66.7865 13.6776 69.7384 15.2022 70.4763 15.7439 71.2394 16.5055 72.0261 17.4899L70.9191 17.4161 70.9191 35.8654C71.5597 37.6853 72.1751 39.9243 72.764 42.581 73.3057 45.0414 73.5758 46.6649 73.5758 47.4531L73.5758 48.3386C77.3646 48.5851 79.8737 47.6981 81.1046 45.6819 81.6935 44.7462 82.2366 42.4585 82.7281 38.8188L83.7613 39.7058C84.5967 40.3449 85.4085 40.8615 86.1966 41.2556 87.1309 39.5332 87.7213 37.8609 87.9663 36.2374 88.0652 35.5496 88.1153 34.4426 88.1153 32.9165L87.8939 27.8245C85.0395 28.809 83.1222 29.7181 82.1392 30.555 82.5333 29.5705 83.3687 28.5876 84.6469 27.6031 85.5826 26.9138 86.049 25.708 86.049 23.987 84.6218 20.9864 83.81 19.1164 83.6152 18.3785L83.6152 18.1541C84.697 18.1054 86.787 17.7113 89.8879 16.9734 93.1321 16.1867 95.1984 15.5461 96.084 15.0546ZM13.8739 49.4441C14.2178 49.2965 15.276 48.6574 17.0472 47.5254 18.2766 46.7874 19.9252 46.2207 21.9916 45.8281 21.4499 50.1083 20.9333 54.1922 20.4418 58.0784 20.1466 60.1447 19.5814 62.5564 18.7445 65.3105 17.9076 64.7201 16.8494 62.5564 15.5712 58.8164 14.1942 54.7811 13.6274 51.658 13.8739 49.4441Z" fill="#7C7367" fill-rule="evenodd" transform="matrix(1 0 0 1.23562 1711.46 474)"/><path d="M1.10696 46.2708 1.18076 45.6805 1.25455 45.6805C1.20585 45.8768 1.15566 46.0745 1.10696 46.2708ZM1.10696 46.4184C1.15566 46.172 1.22946 45.9255 1.32835 45.6805L3.54227 45.9757 5.01821 46.7136C7.33101 48.5335 9.29845 51.0913 10.922 54.3871 12.5942 57.9293 13.4311 61.448 13.4311 64.9401 13.4311 65.5806 13.3322 65.9496 13.1359 66.047 13.0385 66.0957 12.9145 66.0721 12.7669 65.9732 12.6193 65.9245 12.4466 65.8242 12.2503 65.678 11.1685 64.9401 9.20104 63.2176 6.34656 60.5122 3.39467 57.6578 1.67224 55.8379 1.18076 55.0512L0.885566 54.756 1.14704e-15 51.8042 0.590378 48.0405C0.590378 47.8442 0.639084 47.6715 0.737972 47.5239 0.737972 47.3261 0.786678 47.1549 0.885566 47.0059 0.934273 46.8583 0.982979 46.6871 1.03316 46.4893 1.03316 46.4435 1.05825 46.4184 1.10696 46.4184ZM9.22465 29.0761C9.32354 29.42 9.64234 29.6414 10.184 29.7403 12.1514 29.544 13.4562 29.1248 14.0953 28.4857L9.66743 27.8215 9.22465 29.0761ZM26.2718 16.3092C25.3375 15.9151 24.2055 15.7188 22.8771 15.7188 21.5488 15.7188 20.4418 15.9151 19.5563 16.3092 18.622 16.7033 18.1541 17.1697 18.1541 17.7113 18.1541 18.253 18.622 18.7194 19.5563 19.1135 20.4418 19.5076 21.5488 19.7039 22.8771 19.7039 24.2055 19.7039 25.3375 19.5076 26.2718 19.1135 27.1574 18.7194 27.6002 18.253 27.6002 17.7113 27.6002 17.1697 27.1574 16.7033 26.2718 16.3092ZM57.2666 16.8258C56.6777 17.6124 55.5944 21.0071 54.0196 27.0098 52.7414 31.8317 50.0596 35.7178 45.9757 38.6697 43.4666 40.4896 40.1708 41.7441 36.0868 42.4334 32.4944 43.074 28.8547 43.2201 25.1648 42.8762 22.213 42.581 19.3836 43.074 16.6782 44.3521 13.7765 45.7794 11.9551 46.4922 11.2172 46.4922 10.7744 46.4922 9.46966 46.0007 7.30592 45.0163 5.14071 43.9831 3.59097 43.074 2.6567 42.2858 3.14819 41.0549 3.73857 39.6276 4.42783 38.0056 7.33101 31.0686 9.84012 26.4445 11.9551 24.1317 13.775 22.1141 15.6937 19.1386 17.7113 15.2022 19.5814 11.4637 20.8595 9.27336 21.5488 8.63427 22.6808 7.64982 24.1066 7.23213 25.829 7.37972 30.1093 7.67491 33.7991 7.74871 36.8986 7.60111 38.621 7.55241 43.0725 6.24767 50.2559 3.68986 57.1928 1.22946 63.1453 1.96635e-15 68.1148 1.96635e-15 70.8689 1.96635e-15 76.4775 1.03316 84.9391 3.09948 93.4996 5.1658 98.7643 6.81443 100.732 8.04389 100.732 8.33908 100.854 8.75678 101.101 9.29845 101.298 9.84012 101.396 10.184 101.396 10.3316 101.198 10.6268 100.683 11.2423 99.8461 12.1765 99.058 13.0621 98.5178 13.6038 98.2211 13.8001 95.6131 14.3905 93.228 15.0546 91.0628 15.7926 90.0783 16.1365 88.6275 16.3092 86.7088 16.3092 78.7387 15.7675 73.0814 15.3985 69.7354 15.2022 66.7835 13.6776 62.7247 12.9145 57.5589 12.9145L48.2604 13.0621 50.8433 13.5787C53.0602 14.3167 55.2003 15.3985 57.2666 16.8258ZM89.885 7.30592C89.885 6.71555 89.8348 6.37165 89.7359 6.27276L89.516 6.34656 89.516 8.19149 67.3768 8.33908C68.1148 8.68298 69.6159 9.02835 71.8785 9.37224 74.9278 9.86373 78.2486 10.1102 81.8411 10.1102 87.2032 10.1102 89.885 9.17594 89.885 7.30592ZM32.028 27.3788 31.4376 22.3606C26.4681 23.8852 23.2948 25.1398 21.9178 26.1242 21.6713 26.2718 20.9835 27.1323 19.8514 28.7071 20.4905 29.6414 21.1311 30.3056 21.7702 30.6996 22.6557 31.2413 23.7376 31.5114 25.0173 31.5114 29.6916 31.5114 32.028 30.1343 32.028 27.3788ZM32.6922 30.921 36.013 30.9948C36.8986 30.9948 38.1532 30.7985 39.7767 30.4044 41.4991 30.0104 42.8024 29.5676 43.6879 29.0761L32.6922 30.921ZM30.2569 16.5306C30.2569 17.121 30.5771 17.6375 31.2162 18.0803 31.8066 18.5231 32.5195 18.7445 33.3563 18.7445 34.1917 18.7445 34.9297 18.5231 35.5703 18.0803 36.1606 17.6375 36.4558 17.121 36.4558 16.5306 36.4558 15.9402 36.1606 15.4236 35.5703 14.9808 34.9297 14.538 34.1917 14.3167 33.3563 14.3167 32.5195 14.3167 31.8066 14.538 31.2162 14.9808 30.5771 15.4236 30.2569 15.9402 30.2569 16.5306ZM25.7552 45.7543C26.0504 45.7056 26.2969 45.7056 26.4932 45.7543L27.4526 45.7543C27.6002 46.1483 27.7477 46.5409 27.8953 46.935 31.5852 56.4799 32.5697 62.3586 30.8472 64.5726 29.3713 66.4913 27.944 67.4506 26.567 67.4506 25.091 67.4506 23.4675 67.3016 21.6964 67.0079 21.7938 66.664 21.7702 64.7939 21.6226 61.3978 21.475 57.9057 21.8942 54.486 22.8771 51.1415 23.7627 48.3372 24.7221 46.5409 25.7552 45.7543Z" fill="#B3AA9E" fill-rule="evenodd" transform="matrix(1 0 0 1.23562 1711.46 474)"/><path d="M1.10696 46.4184 1.10696 46.2708C1.15566 46.0745 1.20585 45.8768 1.25455 45.6819L1.32835 45.6819C1.22946 45.9255 1.15566 46.172 1.10696 46.4184ZM57.2666 16.8258C57.857 17.4663 59.333 19.8264 61.6945 23.9103L61.9159 25.6076C62.211 27.181 61.8184 28.6569 60.7351 30.0355 59.0127 31.9055 57.5116 33.5777 56.232 35.0537L55.9383 35.3489 55.5693 35.7178C52.027 38.227 49.3703 40.0719 47.5992 41.2526 44.451 43.3691 40.9574 44.9912 37.12 46.1233 36.5783 46.172 35.0537 46.1483 32.5446 46.0495 30.7734 46.0007 29.3964 45.9255 28.4119 45.8281 28.0178 45.8281 27.699 45.803 27.4526 45.7543L26.4932 45.7543C26.2969 45.7056 26.0504 45.7056 25.7552 45.7543 24.9184 45.7543 23.6638 45.7794 21.9916 45.8281 19.9252 46.2221 18.2766 46.7874 17.0472 47.5254 15.276 48.6574 14.2178 49.2965 13.8739 49.4441 13.53 49.4441 12.0289 49.0264 9.37224 48.1896 6.91185 47.4014 5.46099 46.9099 5.01821 46.7136L3.54227 45.9757 1.47594 44.8687C1.91873 43.195 2.21392 42.2356 2.36151 41.9906L2.6567 42.2858C3.59097 43.0725 5.14219 43.9817 7.30592 45.0163 9.46966 46.0007 10.7744 46.4922 11.2172 46.4922 11.9551 46.4922 13.775 45.7794 16.6782 44.3521 19.3836 43.074 22.213 42.581 25.1648 42.8762 28.8547 43.2201 32.4959 43.074 36.0868 42.4334 40.1708 41.7441 43.4666 40.4911 45.9757 38.6697 50.0596 35.7178 52.7399 31.8317 54.0196 27.0098 55.5944 21.0071 56.6763 17.6124 57.2666 16.8258ZM26.2718 16.3092C27.1574 16.7033 27.6002 17.1697 27.6002 17.7113 27.6002 18.253 27.1574 18.7194 26.2718 19.1135 25.3375 19.5076 24.2055 19.7039 22.8771 19.7039 21.5488 19.7039 20.4418 19.5076 19.5563 19.1135 18.622 18.7194 18.1541 18.253 18.1541 17.7113 18.1541 17.1697 18.622 16.7033 19.5563 16.3092 20.4418 15.9151 21.5488 15.7188 22.8771 15.7188 24.2055 15.7188 25.3375 15.9151 26.2718 16.3092ZM9.22465 29.0761 9.66743 27.8215 14.0953 28.4857C13.4562 29.1263 12.1529 29.544 10.184 29.7403 9.64234 29.6414 9.32354 29.42 9.22465 29.0761ZM89.885 7.30592C89.885 9.17594 87.2032 10.1102 81.8411 10.1102 78.2486 10.1102 74.9278 9.86373 71.8785 9.37224 69.6159 9.02835 68.1148 8.68298 67.3768 8.33908L89.516 8.19149 89.516 6.34656 89.7374 6.27276C89.8348 6.37165 89.885 6.71555 89.885 7.30592ZM83.6122 18.3755C81.1518 18.5718 77.2893 18.2766 72.0246 17.4899 71.2379 16.5055 70.4749 15.7424 69.7369 15.2022 73.0828 15.3985 78.7401 15.7675 86.7102 16.3092 88.629 16.3092 90.0798 16.1365 91.0643 15.7926 93.2295 15.0546 95.6146 14.3905 98.2226 13.8001L96.084 15.0546C95.1984 15.5461 93.1321 16.1867 89.8865 16.9734 86.7855 17.7113 84.6956 18.1054 83.6137 18.1541L83.6137 18.3755ZM30.2569 16.5306C30.2569 15.9402 30.5771 15.4236 31.2162 14.9808 31.8066 14.538 32.5195 14.3167 33.3563 14.3167 34.1917 14.3167 34.9297 14.538 35.5703 14.9808 36.1606 15.4236 36.4558 15.9402 36.4558 16.5306 36.4558 17.121 36.1606 17.6375 35.5703 18.0803 34.9297 18.5231 34.1917 18.7445 33.3563 18.7445 32.5195 18.7445 31.8066 18.5231 31.2162 18.0803 30.5771 17.6375 30.2569 17.121 30.2569 16.5306ZM32.6922 30.921 43.6879 29.0761C42.8024 29.5676 41.4991 30.0104 39.7767 30.4044 38.1532 30.7985 36.8986 30.9948 36.013 30.9948L32.6922 30.921ZM32.028 27.3788C32.028 30.1343 29.6916 31.5114 25.0173 31.5114 23.7376 31.5114 22.6557 31.2398 21.7702 30.6996 21.1311 30.3056 20.4905 29.6429 19.8514 28.7071 20.9835 27.1323 21.6713 26.2718 21.9178 26.1242 23.2948 25.1398 26.4681 23.8852 31.4376 22.3606L32.028 27.3788Z" fill="#D2C8BA" fill-rule="evenodd" transform="matrix(1 0 0 1.23562 1711.46 474)"/><path d="M46.566 66.9341 37.5628 69.9612C39.5804 66.8116 42.3847 64.6714 45.9757 63.5394 48.6324 62.704 49.9607 61.203 49.9607 59.0378 49.9607 58.4474 49.7142 57.9308 49.2227 57.488 48.2383 56.75 47.1815 55.9383 46.0495 55.0527 50.1334 54.4638 53.1089 53.5281 54.9789 52.2499 57.2415 50.7238 59.333 49.7157 61.2517 49.2227 61.2517 50.3046 60.5624 51.5606 59.1854 52.9879 57.5618 54.7575 56.6526 55.8158 56.4549 56.1597 58.471 56.8489 61.4495 57.1928 65.3843 57.1928 70.4527 57.1928 73.5758 56.2335 74.758 54.3147 76.1351 52.1008 78.1527 50.8227 80.8094 50.4773 85.5811 49.8869 89.3935 47.7704 92.248 44.1307 95.2486 40.2918 96.4544 35.5939 95.864 30.0355L99.8491 32.028C100.243 28.7322 100.438 26.3943 100.438 25.0173 100.438 23.8365 100.267 22.5569 99.9214 21.1798 93.6737 21.0809 89.5898 20.6883 87.6711 19.999L88.1139 19.999C90.4754 20.9333 92.369 20.5643 93.7962 18.8921 94.5829 18.0065 95.346 16.7283 96.084 15.0546L98.2241 13.8001C98.5193 13.6038 99.0595 13.0621 99.8491 12.1765 100.684 11.2423 101.2 10.6268 101.397 10.3316L103.98 11.4386C104.767 12.5706 105.776 14.268 107.006 16.5306L108.187 19.9252 108.629 22.0654C108.925 23.6387 109.074 24.7221 109.074 25.3124 109.074 28.2643 107.278 34.2168 103.687 43.1714 103.292 44.2532 101.744 46.2207 99.0373 49.0751 96.1843 52.1244 93.9955 54.0196 92.4708 54.7575 89.026 56.4799 85.1398 57.8083 80.8109 58.7426 76.3831 59.578 73.3825 60.1447 71.8076 60.4399L46.7166 66.8603C46.6649 66.8603 46.6147 66.8839 46.566 66.9341ZM82.7267 38.8173C81.4485 36.0617 80.8079 34.6611 80.8079 34.6109 80.8079 33.2324 81.2507 31.8804 82.1363 30.552 83.1193 29.7152 85.038 28.8045 87.891 27.8215L88.1124 32.9136C88.1124 34.4397 88.0637 35.5466 87.9633 36.2344 87.7183 37.8594 87.1279 39.5302 86.1937 41.2526 85.4055 40.8586 84.5937 40.342 83.7583 39.7029L82.7267 38.8173ZM61.9159 25.6076 61.6945 23.9103 60.8089 19.7776 60.7351 17.4161 63.1689 17.3423C65.5319 19.8514 67.2027 23.0985 68.1871 27.0836 69.1214 30.6258 69.5893 35.1762 69.5893 40.7361 69.5893 41.7205 69.5391 42.5072 69.4402 43.099L68.9974 42.4349C64.9666 32.5446 62.6051 26.936 61.9159 25.6076ZM37.858 46.7136 37.12 46.1233C40.9574 44.9912 44.451 43.3691 47.5992 41.2526 49.3703 40.0719 52.027 38.227 55.5693 35.7178L55.9383 35.3489C55.3966 38.0543 53.4779 41.08 50.1821 44.4244 45.558 49.0501 42.6297 52.2484 41.4002 54.0181L40.8099 53.2801C39.3339 49.3467 38.3495 47.1564 37.858 46.7136Z" fill="#635B52" fill-rule="evenodd" transform="matrix(1 0 0 1.23562 1711.46 474)"/><path d="M37.5628 69.9597 46.566 66.9326C45.8281 67.2278 43.6879 67.9908 40.1457 69.2218 36.3082 70.4999 33.3814 71.4357 31.3638 72.0246 29.544 72.5663 27.7728 72.8364 26.0504 72.8364 25.5087 72.8364 24.5258 72.3198 23.0985 71.2866 20.8846 69.7133 18.2043 68.2122 15.0546 66.785L14.1691 66.4898C13.8252 66.3422 13.4798 66.1946 13.1359 66.047 13.3322 65.9496 13.4311 65.5806 13.4311 64.9401 13.4311 61.448 12.5942 57.9293 10.922 54.3871 9.29845 51.0913 7.33101 48.5335 5.01821 46.7136 5.46099 46.9099 6.91185 47.4014 9.37224 48.1896 12.0289 49.025 13.5285 49.4441 13.8739 49.4441 13.6274 51.658 14.1942 54.7811 15.5712 58.8164 16.8509 62.5564 17.9076 64.7201 18.7445 65.3105 19.5799 62.5564 20.1466 60.1447 20.4418 58.0784 20.9333 54.1922 21.4499 50.1098 21.9916 45.8281 23.6638 45.7794 24.9184 45.7543 25.7552 45.7543 24.7221 46.5409 23.7627 48.3372 22.8771 51.1415 21.8927 54.4874 21.475 57.9057 21.6226 61.3978 21.7702 64.7939 21.7953 66.6625 21.6964 67.0079 23.4675 67.3016 25.091 67.4506 26.567 67.4506 27.944 67.4506 29.3713 66.4913 30.8472 64.5726 32.5697 62.3586 31.5852 56.4799 27.8953 46.935 27.7477 46.5409 27.6002 46.1483 27.4526 45.7543 27.699 45.803 28.0178 45.8281 28.4119 45.8281 29.3964 45.9255 30.7734 46.0007 32.5446 46.0495 35.0537 46.1469 36.5783 46.172 37.12 46.1233L37.858 46.7136C38.0056 47.0575 38.2757 47.7217 38.6697 48.7062 39.0136 49.6906 39.1863 50.4773 39.1863 51.0677 39.1863 53.6255 38.5472 56.2586 37.2676 58.9654 34.1194 65.7046 32.1505 70.0601 31.3638 72.0275L37.5628 69.9597ZM1.18076 55.0527C1.67224 55.8394 3.39467 57.6607 6.34656 60.5137 9.20104 63.2191 11.1685 64.9415 12.2503 65.6795 9.49475 64.4501 7.52731 63.2944 6.34656 62.211 5.01821 60.9801 3.29578 58.595 1.18076 55.0527ZM1.25455 45.6805 1.18076 45.6805 1.40215 44.8687 1.47594 44.8687 3.54227 45.9757 1.32835 45.6805 1.25455 45.6805ZM72.0261 17.4899C77.2893 18.2766 81.1533 18.5718 83.6137 18.3755 83.81 19.1135 84.6218 20.9835 86.0475 23.9841 86.0475 25.7065 85.5811 26.9109 84.6454 27.6002 83.3672 28.5846 82.5304 29.5676 82.1378 30.552 81.2507 31.8804 80.8094 33.2324 80.8094 34.6109 80.8094 34.6596 81.45 36.0617 82.7281 38.8173 82.2366 42.4585 81.695 44.7462 81.1046 45.6805 79.8737 47.6966 77.366 48.5836 73.5758 48.3372L73.5758 47.4516C73.5758 46.6634 73.3057 45.0399 72.764 42.5795 72.1751 39.9228 71.5597 37.6853 70.9191 35.864L70.9191 17.4161 72.0261 17.4899Z" fill="#9B9286" fill-rule="evenodd" transform="matrix(1 0 0 1.23562 1711.46 474)"/></g></g></g></g></svg>