<svg width="649" height="650" xmlns="http://www.w3.org/2000/svg" xmlns:xlink="http://www.w3.org/1999/xlink" xml:space="preserve" overflow="hidden"><defs><clipPath id="clip0"><rect x="650" y="0" width="649" height="650"/></clipPath></defs><g clip-path="url(#clip0)" transform="translate(-650 0)"><rect x="650" y="0" width="649" height="650" fill="#C38349"/><path d="M812.572 82.9998 768 145.25 816 166 840 114.125 812.572 82.9998Z" fill="#CA915E" fill-rule="evenodd"/><path d="M917.205 166C909.492 175.053 877.713 170.251 870 179.304L872.037 229 911.51 228.064 945 197.5 917.205 166Z" fill="#CA915E" fill-rule="evenodd"/><path d="M1097 121 1109.45 160 1140 139.353 1097 121Z" fill="#CA915E" fill-rule="evenodd"/><path d="M1022 339.868 1044.81 281 1087 314.962 1079.02 341 1042.53 328.547 1022 339.868Z" fill="#CA915E" fill-rule="evenodd"/><path d="M789.546 388.32 789.546 382.592 830 321.874 765.273 315 741 372.282 760.649 433 789.546 388.32Z" fill="#CA915E" fill-rule="evenodd"/><path d="M981 416 928 430 945.283 395 981 416Z" fill="#CA915E" fill-rule="evenodd"/><path d="M1175.99 423 1122 454.957C1122.38 472.076 1122.77 489.196 1123.15 506.315L1187.47 528 1207 472.076 1175.99 423Z" fill="#CA915E" fill-rule="evenodd"/><path d="M843.536 509 842 559.471 885 561 883.464 510.529 843.536 509Z" fill="#CA915E" fill-rule="evenodd"/><path d="M1176.08 217 1169.92 236.934 1153 263 1182.23 259.934 1193 226.2 1176.08 217Z" fill="#CA915E" fill-rule="evenodd"/><text fill="#FFFFFF" font-family="Poppins Black,Poppins Black_MSFontService,sans-serif" font-weight="900" font-size="110" transform="matrix(1 0 0 1 790.988 359)">START</text></g></svg>