<!DOCTYPE svg PUBLIC "-//W3C//DTD SVG 1.1//EN" "http://www.w3.org/Graphics/SVG/1.1/DTD/svg11.dtd">
<!-- Uploaded to: SVG Repo, www.svgrepo.com, Transformed by: SVG Repo Mixer Tools -->
<svg height="800px" width="800px" version="1.1" id="Layer_1" xmlns="http://www.w3.org/2000/svg" xmlns:xlink="http://www.w3.org/1999/xlink" viewBox="0 0 390.307 390.307" xml:space="preserve" fill="#000000">
<g id="SVGRepo_bgCarrier" stroke-width="0"/>
<g id="SVGRepo_tracerCarrier" stroke-linecap="round" stroke-linejoin="round"/>
<g id="SVGRepo_iconCarrier"> <g> <path style="fill:#eedfd2;" d="M230.386,292.655v75.895h-70.465v-75.895c0-19.523,15.709-35.232,35.232-35.232 S230.386,273.131,230.386,292.655z"/> <path style="fill:#eedfd2;" d="M279.194,136.016l23.273,232.533h-50.424v-75.895c0-31.418-25.471-56.889-56.889-56.889 s-56.889,25.471-56.889,56.889v75.895H87.84l14.61-147.976h17.325c5.947,0,10.861-4.848,10.861-10.861 c0-5.947-4.848-10.861-10.861-10.861h-15.127l2.198-21.657h34.651c5.947,0,10.861-4.848,10.861-10.861 c0-5.947-4.913-10.861-10.861-10.861H108.98l2.133-19.523c0-7.046-4.331-11.895-10.861-11.895H62.305v-102.4h36.331v44.412 c0,5.947,4.848,10.861,10.861,10.861h53.657c5.947,0,10.861-4.848,10.861-10.861V21.657h42.796v44.412 c0,5.947,4.848,10.861,10.861,10.861h53.657c5.947,0,10.861-4.848,10.861-10.861V21.657h35.749v102.465H289.99 C284.042,123.539,279.194,128.453,279.194,136.016z"/> </g> <path style="fill:#e0c8b4;" d="M159.921,368.549h70.465v-75.895c0-19.523-15.709-35.232-35.232-35.232s-35.232,15.709-35.232,35.232 V368.549z"/> <path style="fill:#63452c;" d="M338.798,0H280.81c-5.947,0-10.861,4.848-10.861,10.861v44.412h-32V10.861 C237.949,4.913,233.101,0,227.089,0h-64.517c-5.947,0-10.861,4.848-10.861,10.861v44.412h-32V10.861 C119.711,4.913,114.863,0,108.85,0H51.509c-5.947,0-10.861,4.848-10.861,10.861v124.121c0,5.947,4.848,10.861,10.861,10.861h36.848 L65.085,378.376c-0.517,5.947,4.331,12.477,10.861,11.895h238.481l0,0c7.564,0,11.895-7.046,10.279-13.576l-23.273-230.853h37.366 c5.947,0,10.861-4.848,10.861-10.861V10.861C349.594,4.848,344.745,0,338.798,0z M230.386,368.549h-70.465v-75.895 c0-19.523,15.709-35.232,35.232-35.232s35.232,15.709,35.232,35.232V368.549z M327.937,124.121H289.99 c-5.947-0.517-10.861,4.331-10.861,11.895l23.273,232.533h-50.424v-75.895c0-31.418-25.471-56.889-56.889-56.889 S138.2,261.236,138.2,292.655v75.895H87.776l14.61-147.976h17.325c5.947,0,10.861-4.848,10.861-10.861 c0-5.947-4.848-10.861-10.861-10.861h-15.063l2.198-21.657h34.651c5.947,0,10.861-4.848,10.861-10.861 c0-5.947-4.848-10.861-10.861-10.861H108.98l2.198-19.523c0-7.046-4.331-11.895-10.861-11.895H62.37v-102.4h36.331v44.412 c0,5.947,4.848,10.861,10.861,10.861h53.657c5.947,0,10.861-4.848,10.861-10.861V21.657h42.796v44.412 c0,5.947,4.848,10.861,10.861,10.861h53.657c5.947,0,10.861-4.848,10.861-10.861V21.657h35.749v102.465H327.937z"/> </g>
</svg>