<svg width="650" height="650" xmlns="http://www.w3.org/2000/svg" xmlns:xlink="http://www.w3.org/1999/xlink" xml:space="preserve" overflow="hidden"><defs><clipPath id="clip0"><rect x="1299" y="1299" width="650" height="650"/></clipPath><linearGradient x1="1467" y1="1395" x2="1467" y2="1452" gradientUnits="userSpaceOnUse" spreadMethod="reflect" id="fill1"><stop offset="0" stop-color="#6C981C"/><stop offset="0.0222222" stop-color="#6D991C"/><stop offset="0.0444444" stop-color="#6E9B1C"/><stop offset="0.0666667" stop-color="#6F9D1C"/><stop offset="0.0888889" stop-color="#719F1D"/><stop offset="0.111111" stop-color="#72A11D"/><stop offset="0.133333" stop-color="#73A21D"/><stop offset="0.155556" stop-color="#74A41E"/><stop offset="0.177778" stop-color="#75A61E"/><stop offset="0.2" stop-color="#76A71E"/><stop offset="0.222222" stop-color="#78A91F"/><stop offset="0.244444" stop-color="#79AA1F"/><stop offset="0.266667" stop-color="#7AAC1F"/><stop offset="0.288889" stop-color="#7BAD1F"/><stop offset="0.311111" stop-color="#7CAF20"/><stop offset="0.333333" stop-color="#7DB020"/><stop offset="0.355556" stop-color="#7DB120"/><stop offset="0.377778" stop-color="#7EB320"/><stop offset="0.4" stop-color="#7FB420"/><stop offset="0.422222" stop-color="#80B521"/><stop offset="0.444444" stop-color="#81B621"/><stop offset="0.466667" stop-color="#82B721"/><stop offset="0.488889" stop-color="#82B821"/><stop offset="0.511111" stop-color="#83B921"/><stop offset="0.533333" stop-color="#84BA22"/><stop offset="0.555556" stop-color="#85BB22"/><stop offset="0.577778" stop-color="#85BC22"/><stop offset="0.6" stop-color="#86BD22"/><stop offset="0.622222" stop-color="#86BE22"/><stop offset="0.644444" stop-color="#87BF22"/><stop offset="0.666667" stop-color="#87C022"/><stop offset="0.688889" stop-color="#88C023"/><stop offset="0.711111" stop-color="#88C123"/><stop offset="0.733333" stop-color="#89C223"/><stop offset="0.755556" stop-color="#89C223"/><stop offset="0.777778" stop-color="#8AC323"/><stop offset="0.8" stop-color="#8AC323"/><stop offset="0.822222" stop-color="#8AC423"/><stop offset="0.844444" stop-color="#8BC423"/><stop offset="0.866667" stop-color="#8BC423"/><stop offset="0.888889" stop-color="#8BC523"/><stop offset="0.911111" stop-color="#8BC523"/><stop offset="0.933333" stop-color="#8BC523"/><stop offset="0.955556" stop-color="#8BC523"/><stop offset="0.977778" stop-color="#8BC523"/><stop offset="1" stop-color="#8CC624"/></linearGradient><linearGradient x1="1587" y1="1483" x2="1587" y2="1539" gradientUnits="userSpaceOnUse" spreadMethod="reflect" id="fill2"><stop offset="0" stop-color="#6C981C"/><stop offset="0.0222222" stop-color="#6D991C"/><stop offset="0.0444444" stop-color="#6E9B1C"/><stop offset="0.0666667" stop-color="#6F9D1C"/><stop offset="0.0888889" stop-color="#719F1D"/><stop offset="0.111111" stop-color="#72A11D"/><stop offset="0.133333" stop-color="#73A21D"/><stop offset="0.155556" stop-color="#74A41E"/><stop offset="0.177778" stop-color="#75A61E"/><stop offset="0.2" stop-color="#76A71E"/><stop offset="0.222222" stop-color="#78A91F"/><stop offset="0.244444" stop-color="#79AA1F"/><stop offset="0.266667" stop-color="#7AAC1F"/><stop offset="0.288889" stop-color="#7BAD1F"/><stop offset="0.311111" stop-color="#7CAF20"/><stop offset="0.333333" stop-color="#7DB020"/><stop offset="0.355556" stop-color="#7DB120"/><stop offset="0.377778" stop-color="#7EB320"/><stop offset="0.4" stop-color="#7FB420"/><stop offset="0.422222" stop-color="#80B521"/><stop offset="0.444444" stop-color="#81B621"/><stop offset="0.466667" stop-color="#82B721"/><stop offset="0.488889" stop-color="#82B821"/><stop offset="0.511111" stop-color="#83B921"/><stop offset="0.533333" stop-color="#84BA22"/><stop offset="0.555556" stop-color="#85BB22"/><stop offset="0.577778" stop-color="#85BC22"/><stop offset="0.6" stop-color="#86BD22"/><stop offset="0.622222" stop-color="#86BE22"/><stop offset="0.644444" stop-color="#87BF22"/><stop offset="0.666667" stop-color="#87C022"/><stop offset="0.688889" stop-color="#88C023"/><stop offset="0.711111" stop-color="#88C123"/><stop offset="0.733333" stop-color="#89C223"/><stop offset="0.755556" stop-color="#89C223"/><stop offset="0.777778" stop-color="#8AC323"/><stop offset="0.8" stop-color="#8AC323"/><stop offset="0.822222" stop-color="#8AC423"/><stop offset="0.844444" stop-color="#8BC423"/><stop offset="0.866667" stop-color="#8BC423"/><stop offset="0.888889" stop-color="#8BC523"/><stop offset="0.911111" stop-color="#8BC523"/><stop offset="0.933333" stop-color="#8BC523"/><stop offset="0.955556" stop-color="#8BC523"/><stop offset="0.977778" stop-color="#8BC523"/><stop offset="1" stop-color="#8CC624"/></linearGradient><linearGradient x1="1753" y1="1424" x2="1753" y2="1480" gradientUnits="userSpaceOnUse" spreadMethod="reflect" id="fill3"><stop offset="0" stop-color="#6C981C"/><stop offset="0.0222222" stop-color="#6D991C"/><stop offset="0.0444444" stop-color="#6E9B1C"/><stop offset="0.0666667" stop-color="#6F9D1C"/><stop offset="0.0888889" stop-color="#719F1D"/><stop offset="0.111111" stop-color="#72A11D"/><stop offset="0.133333" stop-color="#73A21D"/><stop offset="0.155556" stop-color="#74A41E"/><stop offset="0.177778" stop-color="#75A61E"/><stop offset="0.2" stop-color="#76A71E"/><stop offset="0.222222" stop-color="#78A91F"/><stop offset="0.244444" stop-color="#79AA1F"/><stop offset="0.266667" stop-color="#7AAC1F"/><stop offset="0.288889" stop-color="#7BAD1F"/><stop offset="0.311111" stop-color="#7CAF20"/><stop offset="0.333333" stop-color="#7DB020"/><stop offset="0.355556" stop-color="#7DB120"/><stop offset="0.377778" stop-color="#7EB320"/><stop offset="0.4" stop-color="#7FB420"/><stop offset="0.422222" stop-color="#80B521"/><stop offset="0.444444" stop-color="#81B621"/><stop offset="0.466667" stop-color="#82B721"/><stop offset="0.488889" stop-color="#82B821"/><stop offset="0.511111" stop-color="#83B921"/><stop offset="0.533333" stop-color="#84BA22"/><stop offset="0.555556" stop-color="#85BB22"/><stop offset="0.577778" stop-color="#85BC22"/><stop offset="0.6" stop-color="#86BD22"/><stop offset="0.622222" stop-color="#86BE22"/><stop offset="0.644444" stop-color="#87BF22"/><stop offset="0.666667" stop-color="#87C022"/><stop offset="0.688889" stop-color="#88C023"/><stop offset="0.711111" stop-color="#88C123"/><stop offset="0.733333" stop-color="#89C223"/><stop offset="0.755556" stop-color="#89C223"/><stop offset="0.777778" stop-color="#8AC323"/><stop offset="0.8" stop-color="#8AC323"/><stop offset="0.822222" stop-color="#8AC423"/><stop offset="0.844444" stop-color="#8BC423"/><stop offset="0.866667" stop-color="#8BC423"/><stop offset="0.888889" stop-color="#8BC523"/><stop offset="0.911111" stop-color="#8BC523"/><stop offset="0.933333" stop-color="#8BC523"/><stop offset="0.955556" stop-color="#8BC523"/><stop offset="0.977778" stop-color="#8BC523"/><stop offset="1" stop-color="#8CC624"/></linearGradient><linearGradient x1="1767.5" y1="1596" x2="1767.5" y2="1652" gradientUnits="userSpaceOnUse" spreadMethod="reflect" id="fill4"><stop offset="0" stop-color="#6C981C"/><stop offset="0.0222222" stop-color="#6D991C"/><stop offset="0.0444444" stop-color="#6E9B1C"/><stop offset="0.0666667" stop-color="#6F9D1C"/><stop offset="0.0888889" stop-color="#719F1D"/><stop offset="0.111111" stop-color="#72A11D"/><stop offset="0.133333" stop-color="#73A21D"/><stop offset="0.155556" stop-color="#74A41E"/><stop offset="0.177778" stop-color="#75A61E"/><stop offset="0.2" stop-color="#76A71E"/><stop offset="0.222222" stop-color="#78A91F"/><stop offset="0.244444" stop-color="#79AA1F"/><stop offset="0.266667" stop-color="#7AAC1F"/><stop offset="0.288889" stop-color="#7BAD1F"/><stop offset="0.311111" stop-color="#7CAF20"/><stop offset="0.333333" stop-color="#7DB020"/><stop offset="0.355556" stop-color="#7DB120"/><stop offset="0.377778" stop-color="#7EB320"/><stop offset="0.4" stop-color="#7FB420"/><stop offset="0.422222" stop-color="#80B521"/><stop offset="0.444444" stop-color="#81B621"/><stop offset="0.466667" stop-color="#82B721"/><stop offset="0.488889" stop-color="#82B821"/><stop offset="0.511111" stop-color="#83B921"/><stop offset="0.533333" stop-color="#84BA22"/><stop offset="0.555556" stop-color="#85BB22"/><stop offset="0.577778" stop-color="#85BC22"/><stop offset="0.6" stop-color="#86BD22"/><stop offset="0.622222" stop-color="#86BE22"/><stop offset="0.644444" stop-color="#87BF22"/><stop offset="0.666667" stop-color="#87C022"/><stop offset="0.688889" stop-color="#88C023"/><stop offset="0.711111" stop-color="#88C123"/><stop offset="0.733333" stop-color="#89C223"/><stop offset="0.755556" stop-color="#89C223"/><stop offset="0.777778" stop-color="#8AC323"/><stop offset="0.8" stop-color="#8AC323"/><stop offset="0.822222" stop-color="#8AC423"/><stop offset="0.844444" stop-color="#8BC423"/><stop offset="0.866667" stop-color="#8BC423"/><stop offset="0.888889" stop-color="#8BC523"/><stop offset="0.911111" stop-color="#8BC523"/><stop offset="0.933333" stop-color="#8BC523"/><stop offset="0.955556" stop-color="#8BC523"/><stop offset="0.977778" stop-color="#8BC523"/><stop offset="1" stop-color="#8CC624"/></linearGradient><linearGradient x1="1663" y1="1744" x2="1663" y2="1800" gradientUnits="userSpaceOnUse" spreadMethod="reflect" id="fill5"><stop offset="0" stop-color="#6C981C"/><stop offset="0.0222222" stop-color="#6D991C"/><stop offset="0.0444444" stop-color="#6E9B1C"/><stop offset="0.0666667" stop-color="#6F9D1C"/><stop offset="0.0888889" stop-color="#719F1D"/><stop offset="0.111111" stop-color="#72A11D"/><stop offset="0.133333" stop-color="#73A21D"/><stop offset="0.155556" stop-color="#74A41E"/><stop offset="0.177778" stop-color="#75A61E"/><stop offset="0.2" stop-color="#76A71E"/><stop offset="0.222222" stop-color="#78A91F"/><stop offset="0.244444" stop-color="#79AA1F"/><stop offset="0.266667" stop-color="#7AAC1F"/><stop offset="0.288889" stop-color="#7BAD1F"/><stop offset="0.311111" stop-color="#7CAF20"/><stop offset="0.333333" stop-color="#7DB020"/><stop offset="0.355556" stop-color="#7DB120"/><stop offset="0.377778" stop-color="#7EB320"/><stop offset="0.4" stop-color="#7FB420"/><stop offset="0.422222" stop-color="#80B521"/><stop offset="0.444444" stop-color="#81B621"/><stop offset="0.466667" stop-color="#82B721"/><stop offset="0.488889" stop-color="#82B821"/><stop offset="0.511111" stop-color="#83B921"/><stop offset="0.533333" stop-color="#84BA22"/><stop offset="0.555556" stop-color="#85BB22"/><stop offset="0.577778" stop-color="#85BC22"/><stop offset="0.6" stop-color="#86BD22"/><stop offset="0.622222" stop-color="#86BE22"/><stop offset="0.644444" stop-color="#87BF22"/><stop offset="0.666667" stop-color="#87C022"/><stop offset="0.688889" stop-color="#88C023"/><stop offset="0.711111" stop-color="#88C123"/><stop offset="0.733333" stop-color="#89C223"/><stop offset="0.755556" stop-color="#89C223"/><stop offset="0.777778" stop-color="#8AC323"/><stop offset="0.8" stop-color="#8AC323"/><stop offset="0.822222" stop-color="#8AC423"/><stop offset="0.844444" stop-color="#8BC423"/><stop offset="0.866667" stop-color="#8BC423"/><stop offset="0.888889" stop-color="#8BC523"/><stop offset="0.911111" stop-color="#8BC523"/><stop offset="0.933333" stop-color="#8BC523"/><stop offset="0.955556" stop-color="#8BC523"/><stop offset="0.977778" stop-color="#8BC523"/><stop offset="1" stop-color="#8CC624"/></linearGradient><linearGradient x1="1643" y1="1642" x2="1643" y2="1698" gradientUnits="userSpaceOnUse" spreadMethod="reflect" id="fill6"><stop offset="0" stop-color="#6C981C"/><stop offset="0.0222222" stop-color="#6D991C"/><stop offset="0.0444444" stop-color="#6E9B1C"/><stop offset="0.0666667" stop-color="#6F9D1C"/><stop offset="0.0888889" stop-color="#719F1D"/><stop offset="0.111111" stop-color="#72A11D"/><stop offset="0.133333" stop-color="#73A21D"/><stop offset="0.155556" stop-color="#74A41E"/><stop offset="0.177778" stop-color="#75A61E"/><stop offset="0.2" stop-color="#76A71E"/><stop offset="0.222222" stop-color="#78A91F"/><stop offset="0.244444" stop-color="#79AA1F"/><stop offset="0.266667" stop-color="#7AAC1F"/><stop offset="0.288889" stop-color="#7BAD1F"/><stop offset="0.311111" stop-color="#7CAF20"/><stop offset="0.333333" stop-color="#7DB020"/><stop offset="0.355556" stop-color="#7DB120"/><stop offset="0.377778" stop-color="#7EB320"/><stop offset="0.4" stop-color="#7FB420"/><stop offset="0.422222" stop-color="#80B521"/><stop offset="0.444444" stop-color="#81B621"/><stop offset="0.466667" stop-color="#82B721"/><stop offset="0.488889" stop-color="#82B821"/><stop offset="0.511111" stop-color="#83B921"/><stop offset="0.533333" stop-color="#84BA22"/><stop offset="0.555556" stop-color="#85BB22"/><stop offset="0.577778" stop-color="#85BC22"/><stop offset="0.6" stop-color="#86BD22"/><stop offset="0.622222" stop-color="#86BE22"/><stop offset="0.644444" stop-color="#87BF22"/><stop offset="0.666667" stop-color="#87C022"/><stop offset="0.688889" stop-color="#88C023"/><stop offset="0.711111" stop-color="#88C123"/><stop offset="0.733333" stop-color="#89C223"/><stop offset="0.755556" stop-color="#89C223"/><stop offset="0.777778" stop-color="#8AC323"/><stop offset="0.8" stop-color="#8AC323"/><stop offset="0.822222" stop-color="#8AC423"/><stop offset="0.844444" stop-color="#8BC423"/><stop offset="0.866667" stop-color="#8BC423"/><stop offset="0.888889" stop-color="#8BC523"/><stop offset="0.911111" stop-color="#8BC523"/><stop offset="0.933333" stop-color="#8BC523"/><stop offset="0.955556" stop-color="#8BC523"/><stop offset="0.977778" stop-color="#8BC523"/><stop offset="1" stop-color="#8CC624"/></linearGradient><linearGradient x1="1527" y1="1621" x2="1527" y2="1678" gradientUnits="userSpaceOnUse" spreadMethod="reflect" id="fill7"><stop offset="0" stop-color="#6C981C"/><stop offset="0.0222222" stop-color="#6D991C"/><stop offset="0.0444444" stop-color="#6E9B1C"/><stop offset="0.0666667" stop-color="#6F9D1C"/><stop offset="0.0888889" stop-color="#719F1D"/><stop offset="0.111111" stop-color="#72A11D"/><stop offset="0.133333" stop-color="#73A21D"/><stop offset="0.155556" stop-color="#74A41E"/><stop offset="0.177778" stop-color="#75A61E"/><stop offset="0.2" stop-color="#76A71E"/><stop offset="0.222222" stop-color="#78A91F"/><stop offset="0.244444" stop-color="#79AA1F"/><stop offset="0.266667" stop-color="#7AAC1F"/><stop offset="0.288889" stop-color="#7BAD1F"/><stop offset="0.311111" stop-color="#7CAF20"/><stop offset="0.333333" stop-color="#7DB020"/><stop offset="0.355556" stop-color="#7DB120"/><stop offset="0.377778" stop-color="#7EB320"/><stop offset="0.4" stop-color="#7FB420"/><stop offset="0.422222" stop-color="#80B521"/><stop offset="0.444444" stop-color="#81B621"/><stop offset="0.466667" stop-color="#82B721"/><stop offset="0.488889" stop-color="#82B821"/><stop offset="0.511111" stop-color="#83B921"/><stop offset="0.533333" stop-color="#84BA22"/><stop offset="0.555556" stop-color="#85BB22"/><stop offset="0.577778" stop-color="#85BC22"/><stop offset="0.6" stop-color="#86BD22"/><stop offset="0.622222" stop-color="#86BE22"/><stop offset="0.644444" stop-color="#87BF22"/><stop offset="0.666667" stop-color="#87C022"/><stop offset="0.688889" stop-color="#88C023"/><stop offset="0.711111" stop-color="#88C123"/><stop offset="0.733333" stop-color="#89C223"/><stop offset="0.755556" stop-color="#89C223"/><stop offset="0.777778" stop-color="#8AC323"/><stop offset="0.8" stop-color="#8AC323"/><stop offset="0.822222" stop-color="#8AC423"/><stop offset="0.844444" stop-color="#8BC423"/><stop offset="0.866667" stop-color="#8BC423"/><stop offset="0.888889" stop-color="#8BC523"/><stop offset="0.911111" stop-color="#8BC523"/><stop offset="0.933333" stop-color="#8BC523"/><stop offset="0.955556" stop-color="#8BC523"/><stop offset="0.977778" stop-color="#8BC523"/><stop offset="1" stop-color="#8CC624"/></linearGradient><linearGradient x1="1432" y1="1729" x2="1432" y2="1785" gradientUnits="userSpaceOnUse" spreadMethod="reflect" id="fill8"><stop offset="0" stop-color="#6C981C"/><stop offset="0.0222222" stop-color="#6D991C"/><stop offset="0.0444444" stop-color="#6E9B1C"/><stop offset="0.0666667" stop-color="#6F9D1C"/><stop offset="0.0888889" stop-color="#719F1D"/><stop offset="0.111111" stop-color="#72A11D"/><stop offset="0.133333" stop-color="#73A21D"/><stop offset="0.155556" stop-color="#74A41E"/><stop offset="0.177778" stop-color="#75A61E"/><stop offset="0.2" stop-color="#76A71E"/><stop offset="0.222222" stop-color="#78A91F"/><stop offset="0.244444" stop-color="#79AA1F"/><stop offset="0.266667" stop-color="#7AAC1F"/><stop offset="0.288889" stop-color="#7BAD1F"/><stop offset="0.311111" stop-color="#7CAF20"/><stop offset="0.333333" stop-color="#7DB020"/><stop offset="0.355556" stop-color="#7DB120"/><stop offset="0.377778" stop-color="#7EB320"/><stop offset="0.4" stop-color="#7FB420"/><stop offset="0.422222" stop-color="#80B521"/><stop offset="0.444444" stop-color="#81B621"/><stop offset="0.466667" stop-color="#82B721"/><stop offset="0.488889" stop-color="#82B821"/><stop offset="0.511111" stop-color="#83B921"/><stop offset="0.533333" stop-color="#84BA22"/><stop offset="0.555556" stop-color="#85BB22"/><stop offset="0.577778" stop-color="#85BC22"/><stop offset="0.6" stop-color="#86BD22"/><stop offset="0.622222" stop-color="#86BE22"/><stop offset="0.644444" stop-color="#87BF22"/><stop offset="0.666667" stop-color="#87C022"/><stop offset="0.688889" stop-color="#88C023"/><stop offset="0.711111" stop-color="#88C123"/><stop offset="0.733333" stop-color="#89C223"/><stop offset="0.755556" stop-color="#89C223"/><stop offset="0.777778" stop-color="#8AC323"/><stop offset="0.8" stop-color="#8AC323"/><stop offset="0.822222" stop-color="#8AC423"/><stop offset="0.844444" stop-color="#8BC423"/><stop offset="0.866667" stop-color="#8BC423"/><stop offset="0.888889" stop-color="#8BC523"/><stop offset="0.911111" stop-color="#8BC523"/><stop offset="0.933333" stop-color="#8BC523"/><stop offset="0.955556" stop-color="#8BC523"/><stop offset="0.977778" stop-color="#8BC523"/><stop offset="1" stop-color="#8CC624"/></linearGradient><linearGradient x1="1402" y1="1540" x2="1402" y2="1596" gradientUnits="userSpaceOnUse" spreadMethod="reflect" id="fill9"><stop offset="0" stop-color="#6C981C"/><stop offset="0.0222222" stop-color="#6D991C"/><stop offset="0.0444444" stop-color="#6E9B1C"/><stop offset="0.0666667" stop-color="#6F9D1C"/><stop offset="0.0888889" stop-color="#719F1D"/><stop offset="0.111111" stop-color="#72A11D"/><stop offset="0.133333" stop-color="#73A21D"/><stop offset="0.155556" stop-color="#74A41E"/><stop offset="0.177778" stop-color="#75A61E"/><stop offset="0.2" stop-color="#76A71E"/><stop offset="0.222222" stop-color="#78A91F"/><stop offset="0.244444" stop-color="#79AA1F"/><stop offset="0.266667" stop-color="#7AAC1F"/><stop offset="0.288889" stop-color="#7BAD1F"/><stop offset="0.311111" stop-color="#7CAF20"/><stop offset="0.333333" stop-color="#7DB020"/><stop offset="0.355556" stop-color="#7DB120"/><stop offset="0.377778" stop-color="#7EB320"/><stop offset="0.4" stop-color="#7FB420"/><stop offset="0.422222" stop-color="#80B521"/><stop offset="0.444444" stop-color="#81B621"/><stop offset="0.466667" stop-color="#82B721"/><stop offset="0.488889" stop-color="#82B821"/><stop offset="0.511111" stop-color="#83B921"/><stop offset="0.533333" stop-color="#84BA22"/><stop offset="0.555556" stop-color="#85BB22"/><stop offset="0.577778" stop-color="#85BC22"/><stop offset="0.6" stop-color="#86BD22"/><stop offset="0.622222" stop-color="#86BE22"/><stop offset="0.644444" stop-color="#87BF22"/><stop offset="0.666667" stop-color="#87C022"/><stop offset="0.688889" stop-color="#88C023"/><stop offset="0.711111" stop-color="#88C123"/><stop offset="0.733333" stop-color="#89C223"/><stop offset="0.755556" stop-color="#89C223"/><stop offset="0.777778" stop-color="#8AC323"/><stop offset="0.8" stop-color="#8AC323"/><stop offset="0.822222" stop-color="#8AC423"/><stop offset="0.844444" stop-color="#8BC423"/><stop offset="0.866667" stop-color="#8BC423"/><stop offset="0.888889" stop-color="#8BC523"/><stop offset="0.911111" stop-color="#8BC523"/><stop offset="0.933333" stop-color="#8BC523"/><stop offset="0.955556" stop-color="#8BC523"/><stop offset="0.977778" stop-color="#8BC523"/><stop offset="1" stop-color="#8CC624"/></linearGradient><linearGradient x1="1859" y1="1800" x2="1859" y2="1857" gradientUnits="userSpaceOnUse" spreadMethod="reflect" id="fill10"><stop offset="0" stop-color="#6C981C"/><stop offset="0.0222222" stop-color="#6D991C"/><stop offset="0.0444444" stop-color="#6E9B1C"/><stop offset="0.0666667" stop-color="#6F9D1C"/><stop offset="0.0888889" stop-color="#719F1D"/><stop offset="0.111111" stop-color="#72A11D"/><stop offset="0.133333" stop-color="#73A21D"/><stop offset="0.155556" stop-color="#74A41E"/><stop offset="0.177778" stop-color="#75A61E"/><stop offset="0.2" stop-color="#76A71E"/><stop offset="0.222222" stop-color="#78A91F"/><stop offset="0.244444" stop-color="#79AA1F"/><stop offset="0.266667" stop-color="#7AAC1F"/><stop offset="0.288889" stop-color="#7BAD1F"/><stop offset="0.311111" stop-color="#7CAF20"/><stop offset="0.333333" stop-color="#7DB020"/><stop offset="0.355556" stop-color="#7DB120"/><stop offset="0.377778" stop-color="#7EB320"/><stop offset="0.4" stop-color="#7FB420"/><stop offset="0.422222" stop-color="#80B521"/><stop offset="0.444444" stop-color="#81B621"/><stop offset="0.466667" stop-color="#82B721"/><stop offset="0.488889" stop-color="#82B821"/><stop offset="0.511111" stop-color="#83B921"/><stop offset="0.533333" stop-color="#84BA22"/><stop offset="0.555556" stop-color="#85BB22"/><stop offset="0.577778" stop-color="#85BC22"/><stop offset="0.6" stop-color="#86BD22"/><stop offset="0.622222" stop-color="#86BE22"/><stop offset="0.644444" stop-color="#87BF22"/><stop offset="0.666667" stop-color="#87C022"/><stop offset="0.688889" stop-color="#88C023"/><stop offset="0.711111" stop-color="#88C123"/><stop offset="0.733333" stop-color="#89C223"/><stop offset="0.755556" stop-color="#89C223"/><stop offset="0.777778" stop-color="#8AC323"/><stop offset="0.8" stop-color="#8AC323"/><stop offset="0.822222" stop-color="#8AC423"/><stop offset="0.844444" stop-color="#8BC423"/><stop offset="0.866667" stop-color="#8BC423"/><stop offset="0.888889" stop-color="#8BC523"/><stop offset="0.911111" stop-color="#8BC523"/><stop offset="0.933333" stop-color="#8BC523"/><stop offset="0.955556" stop-color="#8BC523"/><stop offset="0.977778" stop-color="#8BC523"/><stop offset="1" stop-color="#8CC624"/></linearGradient><linearGradient x1="1459.5" y1="1849" x2="1459.5" y2="1905" gradientUnits="userSpaceOnUse" spreadMethod="reflect" id="fill11"><stop offset="0" stop-color="#6C981C"/><stop offset="0.0222222" stop-color="#6D991C"/><stop offset="0.0444444" stop-color="#6E9B1C"/><stop offset="0.0666667" stop-color="#6F9D1C"/><stop offset="0.0888889" stop-color="#719F1D"/><stop offset="0.111111" stop-color="#72A11D"/><stop offset="0.133333" stop-color="#73A21D"/><stop offset="0.155556" stop-color="#74A41E"/><stop offset="0.177778" stop-color="#75A61E"/><stop offset="0.2" stop-color="#76A71E"/><stop offset="0.222222" stop-color="#78A91F"/><stop offset="0.244444" stop-color="#79AA1F"/><stop offset="0.266667" stop-color="#7AAC1F"/><stop offset="0.288889" stop-color="#7BAD1F"/><stop offset="0.311111" stop-color="#7CAF20"/><stop offset="0.333333" stop-color="#7DB020"/><stop offset="0.355556" stop-color="#7DB120"/><stop offset="0.377778" stop-color="#7EB320"/><stop offset="0.4" stop-color="#7FB420"/><stop offset="0.422222" stop-color="#80B521"/><stop offset="0.444444" stop-color="#81B621"/><stop offset="0.466667" stop-color="#82B721"/><stop offset="0.488889" stop-color="#82B821"/><stop offset="0.511111" stop-color="#83B921"/><stop offset="0.533333" stop-color="#84BA22"/><stop offset="0.555556" stop-color="#85BB22"/><stop offset="0.577778" stop-color="#85BC22"/><stop offset="0.6" stop-color="#86BD22"/><stop offset="0.622222" stop-color="#86BE22"/><stop offset="0.644444" stop-color="#87BF22"/><stop offset="0.666667" stop-color="#87C022"/><stop offset="0.688889" stop-color="#88C023"/><stop offset="0.711111" stop-color="#88C123"/><stop offset="0.733333" stop-color="#89C223"/><stop offset="0.755556" stop-color="#89C223"/><stop offset="0.777778" stop-color="#8AC323"/><stop offset="0.8" stop-color="#8AC323"/><stop offset="0.822222" stop-color="#8AC423"/><stop offset="0.844444" stop-color="#8BC423"/><stop offset="0.866667" stop-color="#8BC423"/><stop offset="0.888889" stop-color="#8BC523"/><stop offset="0.911111" stop-color="#8BC523"/><stop offset="0.933333" stop-color="#8BC523"/><stop offset="0.955556" stop-color="#8BC523"/><stop offset="0.977778" stop-color="#8BC523"/><stop offset="1" stop-color="#8CC624"/></linearGradient><linearGradient x1="1734.5" y1="1871" x2="1734.5" y2="1927" gradientUnits="userSpaceOnUse" spreadMethod="reflect" id="fill12"><stop offset="0" stop-color="#6C981C"/><stop offset="0.0222222" stop-color="#6D991C"/><stop offset="0.0444444" stop-color="#6E9B1C"/><stop offset="0.0666667" stop-color="#6F9D1C"/><stop offset="0.0888889" stop-color="#719F1D"/><stop offset="0.111111" stop-color="#72A11D"/><stop offset="0.133333" stop-color="#73A21D"/><stop offset="0.155556" stop-color="#74A41E"/><stop offset="0.177778" stop-color="#75A61E"/><stop offset="0.2" stop-color="#76A71E"/><stop offset="0.222222" stop-color="#78A91F"/><stop offset="0.244444" stop-color="#79AA1F"/><stop offset="0.266667" stop-color="#7AAC1F"/><stop offset="0.288889" stop-color="#7BAD1F"/><stop offset="0.311111" stop-color="#7CAF20"/><stop offset="0.333333" stop-color="#7DB020"/><stop offset="0.355556" stop-color="#7DB120"/><stop offset="0.377778" stop-color="#7EB320"/><stop offset="0.4" stop-color="#7FB420"/><stop offset="0.422222" stop-color="#80B521"/><stop offset="0.444444" stop-color="#81B621"/><stop offset="0.466667" stop-color="#82B721"/><stop offset="0.488889" stop-color="#82B821"/><stop offset="0.511111" stop-color="#83B921"/><stop offset="0.533333" stop-color="#84BA22"/><stop offset="0.555556" stop-color="#85BB22"/><stop offset="0.577778" stop-color="#85BC22"/><stop offset="0.6" stop-color="#86BD22"/><stop offset="0.622222" stop-color="#86BE22"/><stop offset="0.644444" stop-color="#87BF22"/><stop offset="0.666667" stop-color="#87C022"/><stop offset="0.688889" stop-color="#88C023"/><stop offset="0.711111" stop-color="#88C123"/><stop offset="0.733333" stop-color="#89C223"/><stop offset="0.755556" stop-color="#89C223"/><stop offset="0.777778" stop-color="#8AC323"/><stop offset="0.8" stop-color="#8AC323"/><stop offset="0.822222" stop-color="#8AC423"/><stop offset="0.844444" stop-color="#8BC423"/><stop offset="0.866667" stop-color="#8BC423"/><stop offset="0.888889" stop-color="#8BC523"/><stop offset="0.911111" stop-color="#8BC523"/><stop offset="0.933333" stop-color="#8BC523"/><stop offset="0.955556" stop-color="#8BC523"/><stop offset="0.977778" stop-color="#8BC523"/><stop offset="1" stop-color="#8CC624"/></linearGradient><linearGradient x1="1646" y1="1307" x2="1646" y2="1363" gradientUnits="userSpaceOnUse" spreadMethod="reflect" id="fill13"><stop offset="0" stop-color="#6C981C"/><stop offset="0.0222222" stop-color="#6D991C"/><stop offset="0.0444444" stop-color="#6E9B1C"/><stop offset="0.0666667" stop-color="#6F9D1C"/><stop offset="0.0888889" stop-color="#719F1D"/><stop offset="0.111111" stop-color="#72A11D"/><stop offset="0.133333" stop-color="#73A21D"/><stop offset="0.155556" stop-color="#74A41E"/><stop offset="0.177778" stop-color="#75A61E"/><stop offset="0.2" stop-color="#76A71E"/><stop offset="0.222222" stop-color="#78A91F"/><stop offset="0.244444" stop-color="#79AA1F"/><stop offset="0.266667" stop-color="#7AAC1F"/><stop offset="0.288889" stop-color="#7BAD1F"/><stop offset="0.311111" stop-color="#7CAF20"/><stop offset="0.333333" stop-color="#7DB020"/><stop offset="0.355556" stop-color="#7DB120"/><stop offset="0.377778" stop-color="#7EB320"/><stop offset="0.4" stop-color="#7FB420"/><stop offset="0.422222" stop-color="#80B521"/><stop offset="0.444444" stop-color="#81B621"/><stop offset="0.466667" stop-color="#82B721"/><stop offset="0.488889" stop-color="#82B821"/><stop offset="0.511111" stop-color="#83B921"/><stop offset="0.533333" stop-color="#84BA22"/><stop offset="0.555556" stop-color="#85BB22"/><stop offset="0.577778" stop-color="#85BC22"/><stop offset="0.6" stop-color="#86BD22"/><stop offset="0.622222" stop-color="#86BE22"/><stop offset="0.644444" stop-color="#87BF22"/><stop offset="0.666667" stop-color="#87C022"/><stop offset="0.688889" stop-color="#88C023"/><stop offset="0.711111" stop-color="#88C123"/><stop offset="0.733333" stop-color="#89C223"/><stop offset="0.755556" stop-color="#89C223"/><stop offset="0.777778" stop-color="#8AC323"/><stop offset="0.8" stop-color="#8AC323"/><stop offset="0.822222" stop-color="#8AC423"/><stop offset="0.844444" stop-color="#8BC423"/><stop offset="0.866667" stop-color="#8BC423"/><stop offset="0.888889" stop-color="#8BC523"/><stop offset="0.911111" stop-color="#8BC523"/><stop offset="0.933333" stop-color="#8BC523"/><stop offset="0.955556" stop-color="#8BC523"/><stop offset="0.977778" stop-color="#8BC523"/><stop offset="1" stop-color="#8CC624"/></linearGradient><clipPath id="clip14"><rect x="1520" y="1338" width="292" height="406"/></clipPath><clipPath id="clip15"><rect x="1520" y="1338" width="292" height="406"/></clipPath><clipPath id="clip16"><rect x="1520" y="1338" width="292" height="406"/></clipPath></defs><g clip-path="url(#clip0)" transform="translate(-1299 -1299)"><rect x="1299" y="1299" width="650" height="650" fill="#8CC624"/><path d="M1440.46 1436.88 1437 1395 1463.54 1424.08 1491.23 1408.96 1485.46 1436.88 1497 1435.71 1483.15 1452 1440.46 1436.88Z" fill="url(#fill1)" fill-rule="evenodd"/><path d="M1560.46 1524.14 1557 1483 1583.54 1511.57 1611.23 1496.71 1605.46 1524.14 1617 1523 1603.15 1539 1560.46 1524.14Z" fill="url(#fill2)" fill-rule="evenodd"/><path d="M1726.46 1465.14 1723 1424 1749.54 1452.57 1777.23 1437.71 1771.46 1465.14 1783 1464 1769.15 1480 1726.46 1465.14Z" fill="url(#fill3)" fill-rule="evenodd"/><path d="M1741.4 1637.14 1738 1596 1764.1 1624.57 1791.33 1609.71 1785.65 1637.14 1797 1636 1783.38 1652 1741.4 1637.14Z" fill="url(#fill4)" fill-rule="evenodd"/><path d="M1636.46 1785.14 1633 1744 1659.54 1772.57 1687.23 1757.71 1681.46 1785.14 1693 1784 1679.15 1800 1636.46 1785.14Z" fill="url(#fill5)" fill-rule="evenodd"/><path d="M1616.46 1683.14 1613 1642 1639.54 1670.57 1667.23 1655.71 1661.46 1683.14 1673 1682 1659.15 1698 1616.46 1683.14Z" fill="url(#fill6)" fill-rule="evenodd"/><path d="M1500.46 1662.88 1497 1621 1523.54 1650.08 1551.23 1634.96 1545.46 1662.88 1557 1661.71 1543.15 1678 1500.46 1662.88Z" fill="url(#fill7)" fill-rule="evenodd"/><path d="M1405.46 1770.14 1402 1729 1428.54 1757.57 1456.23 1742.71 1450.46 1770.14 1462 1769 1448.15 1785 1405.46 1770.14Z" fill="url(#fill8)" fill-rule="evenodd"/><path d="M1375.46 1581.14 1372 1540 1398.54 1568.57 1426.23 1553.71 1420.46 1581.14 1432 1580 1418.15 1596 1375.46 1581.14Z" fill="url(#fill9)" fill-rule="evenodd"/><path d="M1832.46 1841.88 1829 1800 1855.54 1829.08 1883.23 1813.96 1877.46 1841.88 1889 1840.71 1875.15 1857 1832.46 1841.88Z" fill="url(#fill10)" fill-rule="evenodd"/><path d="M1433.4 1890.14 1430 1849 1456.1 1877.57 1483.33 1862.71 1477.65 1890.14 1489 1889 1475.38 1905 1433.4 1890.14Z" fill="url(#fill11)" fill-rule="evenodd"/><path d="M1708.4 1912.14 1705 1871 1731.1 1899.57 1758.33 1884.71 1752.65 1912.14 1764 1911 1750.38 1927 1708.4 1912.14Z" fill="url(#fill12)" fill-rule="evenodd"/><path d="M1619.46 1348.14 1616 1307 1642.54 1335.57 1670.23 1320.71 1664.46 1348.14 1676 1347 1662.15 1363 1619.46 1348.14Z" fill="url(#fill13)" fill-rule="evenodd"/><path d="M1492 1650 1492 1726 1521 1719.68 1521 1650Z" fill="#787340" fill-rule="evenodd"/><path d="M1492 1650 1492 1692.53 1521 1699 1521 1650Z" fill="#595937" fill-rule="evenodd"/><path d="M1425 1681.51 1595 1690 1507.63 1524Z" fill="#80C242" fill-rule="evenodd"/><path d="M1443 1663.81 1595 1690 1507.62 1524 1450.03 1633.9Z" fill="#4AAC44" fill-rule="evenodd"/><path d="M1559 1621 1507.41 1524 1462 1609.83Z" fill="#1F953E" fill-rule="evenodd"/><path d="M1440 1613 1562 1589.52 1507.17 1485Z" fill="#80C242" fill-rule="evenodd"/><path d="M1464 1599 1556.23 1590.53 1562 1589.47 1507.3 1485 1470.69 1555.06Z" fill="#4AAC44" fill-rule="evenodd"/><path d="M1534 1536.35 1506.95 1485 1477 1542Z" fill="#1F953E" fill-rule="evenodd"/><path d="M1506.79 1456 1472 1522.72 1550 1539Z" fill="#80C242" fill-rule="evenodd"/><path d="M1487 1514.65 1550 1539 1507.19 1455Z" fill="#4AAC44" fill-rule="evenodd"/><g clip-path="url(#clip14)"><g clip-path="url(#clip15)"><g clip-path="url(#clip16)"><path d="M348.768 312.293C322.884 291.829 287.127 296.873 268.883 323.561 250.645 350.238 255.974 385.293 280.783 401.857 305.602 418.418 341.359 413.374 360.668 390.589 379.978 367.814 374.651 332.759 348.768 312.293" fill="#26A659" fill-rule="evenodd" transform="matrix(1.00127 0 0 1 1409.27 1193.12)"/><path d="M290.679 359.088C275.914 347.569 255.47 350.447 245.029 365.525 234.576 380.605 237.582 400.382 251.744 409.703 265.893 419.016 286.335 416.128 297.393 403.255 308.451 390.383 305.444 370.597 290.679 359.089" fill="#26A659" fill-rule="evenodd" transform="matrix(1.00127 0 0 1 1409.27 1193.12)"/><path d="M369.546 315.936C357.467 306.513 340.744 308.868 332.201 321.203 323.651 333.539 326.11 349.716 337.694 357.342 349.269 364.961 365.991 362.599 375.037 352.068 384.084 341.537 381.624 325.352 369.545 315.936" fill="#26A659" fill-rule="evenodd" transform="matrix(1.00127 0 0 1 1409.27 1193.12)"/><path d="M320.309 287.227C310.786 279.797 297.601 281.653 290.866 291.379 284.124 301.104 286.063 313.86 295.197 319.872 304.323 325.879 317.507 324.017 324.639 315.714 331.772 307.411 329.832 294.649 320.309 287.227" fill="#26A659" fill-rule="evenodd" transform="matrix(1.00127 0 0 1 1409.27 1193.12)"/><path d="M268.457 353.932C261.489 348.496 251.842 349.854 246.914 356.97 241.981 364.086 243.4 373.419 250.082 377.818 256.76 382.212 266.407 380.85 271.625 374.775 276.844 368.7 275.425 359.363 268.457 353.932" fill="#26A659" fill-rule="evenodd" transform="matrix(1.00127 0 0 1 1409.27 1193.12)"/><path d="M392.856 338.083C382.539 330.035 368.257 332.045 360.961 342.58 353.659 353.115 355.759 366.932 365.653 373.445 375.539 379.952 389.82 377.934 397.546 368.94 405.272 359.947 403.171 346.123 392.856 338.083" fill="#26A659" fill-rule="evenodd" transform="matrix(1.00127 0 0 1 1409.27 1193.12)"/><path d="M370.367 364.572C356.971 354.121 338.424 356.732 328.95 370.412 319.467 384.093 322.194 402.035 335.042 410.492 347.88 418.942 366.425 416.321 376.457 404.642 386.49 392.964 383.762 375.012 370.367 364.572" fill="#26A659" fill-rule="evenodd" transform="matrix(1.00127 0 0 1 1409.27 1193.12)"/><path d="M395.251 376.048C389.346 371.441 381.172 372.592 376.996 378.622 372.816 384.652 374.018 392.56 379.681 396.288 385.339 400.013 393.513 398.858 397.936 393.71 402.358 388.562 401.155 380.65 395.251 376.048" fill="#26A659" fill-rule="evenodd" transform="matrix(1.00127 0 0 1 1409.27 1193.12)"/><path d="M268.335 518.631C318.34 518.631 358.891 525.851 358.891 534.755 358.891 543.658 318.339 550.878 268.335 550.878 218.332 550.878 177.78 543.658 177.78 534.755 177.78 525.85 218.332 518.631 268.335 518.631" fill="#003D26" fill-rule="evenodd" fill-opacity="0.25" transform="matrix(1.00127 0 0 1 1409.27 1193.12)"/><path d="M334.592 241.162C298.952 203.364 241.755 202.756 206.862 239.812 171.965 276.856 171.965 332.429 206.862 363.929 241.759 395.43 298.954 396.038 334.592 365.279 370.243 334.533 370.243 278.96 334.592 241.162" fill="#26A659" fill-rule="evenodd" transform="matrix(1.00127 0 0 1 1409.27 1193.12)"/><path d="M281.211 319.016 253.86 319.016 255.057 436.228 245.775 532.868 289.296 532.868 281.653 434.585 281.204 319.016Z" fill="#806942" fill-rule="evenodd" transform="matrix(1.00127 0 0 1 1409.27 1193.12)"/><path d="M366.739 225.875C351.528 209.79 327.124 209.522 312.241 225.291 297.346 241.06 297.346 264.706 312.241 278.116 327.124 291.514 351.528 291.769 366.739 278.688 381.95 265.606 381.95 241.947 366.739 225.876" fill="#26A659" fill-rule="evenodd" transform="matrix(1.00127 0 0 1 1409.27 1193.12)"/><path d="M327.428 298.444C312.217 282.359 287.813 282.091 272.929 297.86 258.035 313.629 258.035 337.275 272.929 350.685 287.813 364.083 312.217 364.338 327.428 351.257 342.639 338.175 342.639 314.516 327.428 298.445" fill="#26A659" fill-rule="evenodd" transform="matrix(1.00127 0 0 1 1409.27 1193.12)"/><path d="M335.269 194.055C324.802 182.986 308.009 182.802 297.767 193.653 287.518 204.504 287.518 220.775 297.767 230.004 308.009 239.223 324.802 239.398 335.269 230.397 345.737 221.394 345.737 205.115 335.269 194.055" fill="#26A659" fill-rule="evenodd" transform="matrix(1.00127 0 0 1 1409.27 1193.12)"/><path d="M195.371 217.084C187.351 208.603 174.484 208.462 166.637 216.776 158.784 225.09 158.784 237.557 166.637 244.627 174.484 251.691 187.351 251.825 195.371 244.928 203.391 238.031 203.391 225.557 195.371 217.084" fill="#26A659" fill-rule="evenodd" transform="matrix(1.00127 0 0 1 1409.27 1193.12)"/><path d="M386.117 259.308C381.177 254.083 373.249 253.996 368.415 259.118 363.577 264.24 363.577 271.922 368.415 276.277 373.249 280.629 381.176 280.712 386.117 276.463 391.059 272.214 391.059 264.529 386.117 259.308" fill="#26A659" fill-rule="evenodd" transform="matrix(1.00127 0 0 1 1409.27 1193.12)"/><path d="M151.405 360.716C145.868 354.862 136.986 354.764 131.569 360.504 126.148 366.243 126.148 374.849 131.569 379.73 136.986 384.606 145.868 384.699 151.405 379.937 156.941 375.177 156.941 366.566 151.405 360.715" fill="#26A659" fill-rule="evenodd" transform="matrix(1.00127 0 0 1 1409.27 1193.12)"/><path d="M376.611 275.659C368.009 266.562 354.207 266.411 345.79 275.329 337.366 284.246 337.366 297.62 345.79 305.203 354.207 312.78 368.009 312.924 376.611 305.526 385.214 298.128 385.214 284.748 376.611 275.658" fill="#26A659" fill-rule="evenodd" transform="matrix(1.00127 0 0 1 1409.27 1193.12)"/><path d="M244.493 193.697C233.877 182.471 216.845 182.285 206.458 193.29 196.063 204.295 196.063 220.798 206.458 230.156 216.845 239.507 233.877 239.686 244.493 230.555 255.109 221.426 255.109 204.914 244.493 193.697" fill="#26A659" fill-rule="evenodd" transform="matrix(1.00127 0 0 1 1409.27 1193.12)"/><path d="M179.354 272.374C169.698 262.163 154.205 261.992 144.757 272.003 135.301 282.014 135.301 297.025 144.757 305.538 154.205 314.043 169.698 314.206 179.354 305.901 189.011 297.596 189.011 282.578 179.354 272.374" fill="#26A659" fill-rule="evenodd" transform="matrix(1.00127 0 0 1 1409.27 1193.12)"/><path d="M173.985 313.678C160.812 299.749 139.678 299.517 126.791 313.172 113.891 326.827 113.891 347.305 126.791 358.917 139.679 370.52 160.812 370.74 173.985 359.412 187.158 348.084 187.158 327.596 173.985 313.677" fill="#26A659" fill-rule="evenodd" transform="matrix(1.00127 0 0 1 1409.27 1193.12)"/><path d="M362.48 197.409C355.157 189.664 343.407 189.536 336.242 197.129 329.072 204.719 329.072 216.104 336.242 222.56 343.407 229.01 355.156 229.133 362.48 222.835 369.803 216.537 369.803 205.147 362.48 197.409" fill="#26A659" fill-rule="evenodd" transform="matrix(1.00127 0 0 1 1409.27 1193.12)"/><path d="M206.756 352.533C191.674 336.584 167.478 336.32 152.721 351.954 137.953 367.588 137.953 391.034 152.721 404.329 167.478 417.612 191.674 417.866 206.756 404.896 221.838 391.926 221.838 368.468 206.756 352.532" fill="#26A659" fill-rule="evenodd" transform="matrix(1.00127 0 0 1 1409.27 1193.12)"/><path d="M341.855 238.082C346.818 243.33 354.782 243.417 359.64 238.271 364.5 233.126 364.5 225.409 359.64 221.033 354.783 216.661 346.818 216.578 341.855 220.846 336.89 225.116 336.89 232.836 341.855 238.082" fill="#26A659" fill-rule="evenodd" transform="matrix(1.00127 0 0 1 1409.27 1193.12)"/><path d="M309.594 170.121C289.898 149.027 258.302 148.685 239.016 169.371 219.729 190.046 219.729 221.074 239.016 238.658 258.303 256.242 289.899 256.574 309.594 239.409 329.289 222.244 329.289 191.215 309.594 170.121" fill="#26A659" fill-rule="evenodd" transform="matrix(1.00127 0 0 1 1409.27 1193.12)"/><path d="M234.446 239.663C216.793 220.746 188.471 220.449 171.184 238.981 153.906 257.522 153.906 285.325 171.184 301.086 188.471 316.848 216.792 317.155 234.446 301.77 252.1 286.374 252.1 258.572 234.446 239.664" fill="#26A659" fill-rule="evenodd" transform="matrix(1.00127 0 0 1 1409.27 1193.12)"/><path d="M266.137 301.098C240.311 273.428 198.872 272.99 173.582 300.101 148.303 327.225 148.303 367.904 173.582 390.969 198.874 414.031 240.312 414.47 266.137 391.954 291.964 369.438 291.964 328.771 266.137 301.102" fill="#26A659" fill-rule="evenodd" transform="matrix(1.00127 0 0 1 1409.27 1193.12)"/><path d="M319.085 534.305 278.092 514.426 258.271 533.078 319.085 534.305Z" fill="#806942" fill-rule="evenodd" transform="matrix(1.00127 0 0 1 1409.27 1193.12)"/><path d="M206.786 536.024 252.586 516.145 257.107 533.632 206.786 536.024Z" fill="#806942" fill-rule="evenodd" transform="matrix(1.00127 0 0 1 1409.27 1193.12)"/><path d="M263.734 543.576 246.898 524.923 277.295 529.341 263.734 543.576Z" fill="#806942" fill-rule="evenodd" transform="matrix(1.00127 0 0 1 1409.27 1193.12)"/><path d="M334.706 252.935C331.862 250.271 327 243.558 324.11 241.826 320.639 239.745 316.067 240.89 313.986 244.36 311.905 247.831 313.05 252.402 316.521 254.483 320.668 256.968 331.012 254.717 334.706 252.935" fill="#36B357" fill-rule="evenodd" transform="matrix(1.00127 0 0 1 1409.27 1193.12)"/><path d="M343.171 228.993C338.331 227.524 328.821 222.496 324.462 222.137 319.226 221.705 314.561 225.66 314.129 230.894 313.698 236.129 317.653 240.793 322.888 241.225 329.141 241.74 339.892 233.187 343.17 228.993" fill="#36B357" fill-rule="evenodd" transform="matrix(1.00127 0 0 1 1409.27 1193.12)"/><path d="M322.515 205.6C317.793 207.411 307.199 209.282 303.538 211.674 299.141 214.548 297.887 220.534 300.762 224.93 303.636 229.326 309.622 230.58 314.019 227.706 319.271 224.274 322.504 210.922 322.516 205.6" fill="#36B357" fill-rule="evenodd" transform="matrix(1.00127 0 0 1 1409.27 1193.12)"/><path d="M299.889 193.112C297.275 197.44 290.062 205.421 288.642 209.557 286.936 214.525 289.622 220.018 294.591 221.724 299.559 223.43 305.054 220.744 306.759 215.776 308.797 209.843 303.148 197.32 299.889 193.112" fill="#36B357" fill-rule="evenodd" transform="matrix(1.00127 0 0 1 1409.27 1193.12)"/><path d="M270.503 199.881C274.487 201.367 283.41 202.858 286.506 204.842 290.226 207.225 291.326 212.248 288.944 215.967 286.561 219.686 281.536 220.786 277.817 218.404 273.374 215.558 270.553 204.356 270.502 199.881" fill="#36B357" fill-rule="evenodd" transform="matrix(1.00127 0 0 1 1409.27 1193.12)"/><path d="M262.654 234.043C266.379 232.837 273.671 228.81 277.039 228.47 281.086 228.062 284.754 231.057 285.162 235.103 285.571 239.149 282.575 242.816 278.529 243.225 273.695 243.713 265.251 237.244 262.654 234.044" fill="#36B357" fill-rule="evenodd" transform="matrix(1.00127 0 0 1 1409.27 1193.12)"/><path d="M272.883 216.171C276.269 218.106 284.124 220.774 286.634 223.027 289.648 225.733 289.901 230.442 287.195 233.456 284.489 236.47 279.779 236.723 276.765 234.017 273.165 230.785 272.267 220.229 272.883 216.171" fill="#52BA6E" fill-rule="evenodd" transform="matrix(1.00127 0 0 1 1409.27 1193.12)"/><path d="M322.347 217.122C321.531 222.111 321.848 232.864 320.247 236.933 318.324 241.821 312.717 244.262 307.828 242.34 302.939 240.418 300.498 234.811 302.42 229.923 304.717 224.086 317.137 218.213 322.347 217.122" fill="#52BA6E" fill-rule="evenodd" transform="matrix(1.00127 0 0 1 1409.27 1193.12)"/><path d="M300.201 219.532C301.79 224.333 307.053 233.715 307.52 238.062 308.081 243.284 304.243 248.046 299.021 248.606 293.798 249.168 289.036 245.33 288.474 240.108 287.804 233.871 296.089 222.912 300.201 219.532" fill="#52BA6E" fill-rule="evenodd" transform="matrix(1.00127 0 0 1 1409.27 1193.12)"/><path d="M321.306 202.672C323.783 204.047 329.514 205.916 331.358 207.53 333.572 209.469 333.798 212.888 331.859 215.102 329.919 217.316 326.5 217.542 324.286 215.603 321.641 213.286 320.895 205.625 321.306 202.671" fill="#36B357" fill-rule="evenodd" transform="matrix(1.00127 0 0 1 1409.27 1193.12)"/><path d="M335.991 191.477C338.087 194.498 343.687 199.961 344.907 202.898 346.372 206.425 344.674 210.535 341.146 212 337.618 213.466 333.507 211.767 332.042 208.24 330.292 204.027 333.818 194.68 335.991 191.477" fill="#36B357" fill-rule="evenodd" transform="matrix(1.00127 0 0 1 1409.27 1193.12)"/><path d="M356.792 200.557C356.589 204.229 357.655 211.979 356.814 215.045 355.804 218.729 351.94 220.93 348.255 219.921 344.571 218.911 342.369 215.047 343.38 211.363 344.585 206.964 353.109 201.751 356.791 200.557" fill="#36B357" fill-rule="evenodd" transform="matrix(1.00127 0 0 1 1409.27 1193.12)"/><path d="M370.481 213.433C368.067 216.207 364.148 222.978 361.601 224.882 358.542 227.169 354.14 226.534 351.852 223.476 349.564 220.417 350.2 216.015 353.259 213.727 356.913 210.996 366.841 212.114 370.481 213.433" fill="#36B357" fill-rule="evenodd" transform="matrix(1.00127 0 0 1 1409.27 1193.12)"/><path d="M372.344 235.29C370.427 232.864 367.406 227.021 365.343 225.319 362.865 223.276 359.142 223.633 357.098 226.111 355.054 228.589 355.411 232.312 357.89 234.355 360.85 236.796 369.234 236.253 372.344 235.291" fill="#36B357" fill-rule="evenodd" transform="matrix(1.00127 0 0 1 1409.27 1193.12)"/><path d="M350.441 248.333C350.446 245.486 351.61 239.543 351.094 237.135 350.475 234.243 347.585 232.372 344.692 232.991 341.8 233.609 339.928 236.5 340.548 239.392 341.287 242.846 347.647 247.249 350.441 248.333" fill="#36B357" fill-rule="evenodd" transform="matrix(1.00127 0 0 1 1409.27 1193.12)"/><path d="M360.526 237.268C358.432 235.355 354.834 230.513 352.716 229.278 350.17 227.794 346.854 228.668 345.371 231.213 343.887 233.758 344.761 237.074 347.306 238.557 350.346 240.329 357.854 238.598 360.526 237.267" fill="#52BA6E" fill-rule="evenodd" transform="matrix(1.00127 0 0 1 1409.27 1193.12)"/><path d="M348.852 203.242C345.579 204.919 338.064 207.096 335.603 209.11 332.648 211.53 332.207 215.955 334.627 218.911 337.047 221.866 341.473 222.307 344.429 219.887 347.959 216.997 349.258 207.092 348.852 203.243" fill="#52BA6E" fill-rule="evenodd" transform="matrix(1.00127 0 0 1 1409.27 1193.12)"/><path d="M352.122 219.114C348.444 219.084 340.776 217.531 337.662 218.177 333.922 218.952 331.48 222.67 332.255 226.41 333.031 230.15 336.749 232.591 340.489 231.815 344.956 230.89 350.697 222.713 352.121 219.114" fill="#52BA6E" fill-rule="evenodd" transform="matrix(1.00127 0 0 1 1409.27 1193.12)"/><path d="M245.238 230.933C241.372 230.445 233.496 227.862 230.138 228.155 226.106 228.508 223.076 232.117 223.429 236.149 223.781 240.18 227.391 243.21 231.424 242.857 236.24 242.436 243.294 234.544 245.238 230.933" fill="#36B357" fill-rule="evenodd" transform="matrix(1.00127 0 0 1 1409.27 1193.12)"/><path d="M238.036 206.581C233.256 208.231 222.603 209.741 218.864 212.007 214.372 214.731 212.915 220.67 215.638 225.161 218.362 229.653 224.302 231.109 228.794 228.386 234.159 225.134 237.843 211.9 238.036 206.581" fill="#36B357" fill-rule="evenodd" transform="matrix(1.00127 0 0 1 1409.27 1193.12)"/><path d="M207.585 199.759C204.825 203.996 197.345 211.727 195.785 215.813 193.912 220.72 196.41 226.302 201.318 228.174 206.225 230.048 211.807 227.55 213.681 222.643 215.919 216.782 210.699 204.075 207.584 199.759" fill="#36B357" fill-rule="evenodd" transform="matrix(1.00127 0 0 1 1409.27 1193.12)"/><path d="M181.932 202.923C182.356 207.962 181.2 218.656 182.479 222.838 184.013 227.861 189.413 230.733 194.437 229.198 199.46 227.663 202.333 222.264 200.798 217.242 198.965 211.242 187.041 204.416 181.932 202.923" fill="#36B357" fill-rule="evenodd" transform="matrix(1.00127 0 0 1 1409.27 1193.12)"/><path d="M162.105 225.647C166.204 224.513 174.304 220.484 177.976 220.273 182.386 220.02 186.225 223.441 186.479 227.85 186.732 232.26 183.31 236.099 178.9 236.352 173.633 236.655 164.774 229.241 162.105 225.647" fill="#36B357" fill-rule="evenodd" transform="matrix(1.00127 0 0 1 1409.27 1193.12)"/><path d="M175.81 257.916C178.118 254.753 181.658 247.214 184.186 244.962 187.223 242.257 191.951 242.529 194.657 245.566 197.362 248.602 197.089 253.33 194.053 256.035 190.425 259.266 179.791 258.983 175.81 257.916" fill="#36B357" fill-rule="evenodd" transform="matrix(1.00127 0 0 1 1409.27 1193.12)"/><path d="M173.604 237.443C177.481 237.022 185.408 234.573 188.762 234.924 192.792 235.347 195.761 239.011 195.338 243.039 194.915 247.068 191.251 250.036 187.223 249.614 182.411 249.109 175.488 241.09 173.605 237.443" fill="#52BA6E" fill-rule="evenodd" transform="matrix(1.00127 0 0 1 1409.27 1193.12)"/><path d="M214.209 209.189C216.477 213.708 223.045 222.228 224.137 226.462 225.45 231.548 222.342 236.815 217.256 238.128 212.17 239.44 206.902 236.334 205.589 231.248 204.022 225.173 210.631 213.13 214.209 209.189" fill="#52BA6E" fill-rule="evenodd" transform="matrix(1.00127 0 0 1 1409.27 1193.12)"/><path d="M197.69 224.134C201.794 227.088 211.563 231.596 214.492 234.842 218.012 238.741 217.699 244.848 213.8 248.367 209.9 251.886 203.792 251.573 200.273 247.674 196.069 243.018 196.345 229.283 197.69 224.133" fill="#52BA6E" fill-rule="evenodd" transform="matrix(1.00127 0 0 1 1409.27 1193.12)"/><path d="M327.025 205.372C323.668 203.392 317.46 197.901 314.262 196.84 310.42 195.566 306.208 197.68 304.935 201.521 303.661 205.363 305.774 209.573 309.616 210.848 314.205 212.369 323.809 207.917 327.025 205.372" fill="#36B357" fill-rule="evenodd" transform="matrix(1.00127 0 0 1 1409.27 1193.12)"/><path d="M317.29 188.435C312.47 186.905 303.024 181.757 298.67 181.343 293.441 180.846 288.726 184.741 288.228 189.969 287.731 195.198 291.626 199.912 296.856 200.41 303.102 201.003 313.96 192.587 317.29 188.435" fill="#36B357" fill-rule="evenodd" transform="matrix(1.00127 0 0 1 1409.27 1193.12)"/><path d="M298.756 153.139C294.543 155.936 284.611 160.072 281.56 163.205 277.896 166.968 277.977 173.083 281.74 176.747 285.504 180.411 291.62 180.329 295.284 176.566 299.661 172.072 299.904 158.336 298.755 153.139" fill="#36B357" fill-rule="evenodd" transform="matrix(1.00127 0 0 1 1409.27 1193.12)"/><path d="M273.955 145.876C272.348 150.67 267.048 160.031 266.564 164.378 265.983 169.598 269.803 174.374 275.024 174.955 280.244 175.536 285.021 171.717 285.602 166.497 286.296 160.263 278.053 149.272 273.955 145.876" fill="#36B357" fill-rule="evenodd" transform="matrix(1.00127 0 0 1 1409.27 1193.12)"/><path d="M246.744 158.888C250.957 159.471 259.99 158.981 263.445 160.242 267.595 161.756 269.764 166.419 268.249 170.568 266.735 174.717 262.072 176.886 257.922 175.371 252.966 173.563 247.77 163.245 246.744 158.888" fill="#36B357" fill-rule="evenodd" transform="matrix(1.00127 0 0 1 1409.27 1193.12)"/><path d="M246.531 193.941C249.903 191.952 256.141 186.432 259.355 185.365 263.216 184.084 267.448 186.208 268.729 190.068 270.01 193.928 267.886 198.16 264.026 199.44 259.415 200.97 249.763 196.497 246.531 193.94" fill="#36B357" fill-rule="evenodd" transform="matrix(1.00127 0 0 1 1409.27 1193.12)"/><path d="M236.37 169.072C239.391 170.004 246.075 170.726 248.457 172.065 251.319 173.672 252.352 177.352 250.744 180.214 249.136 183.075 245.456 184.107 242.594 182.5 239.176 180.58 236.601 172.389 236.37 169.071" fill="#36B357" fill-rule="evenodd" transform="matrix(1.00127 0 0 1 1409.27 1193.12)"/><path d="M314.392 169.155C311.236 173.106 306.243 182.634 302.854 185.397 298.783 188.717 292.699 188.098 289.378 184.028 286.059 179.957 286.677 173.874 290.748 170.554 295.611 166.59 309.316 167.554 314.393 169.155" fill="#36B357" fill-rule="evenodd" transform="matrix(1.00127 0 0 1 1409.27 1193.12)"/><path d="M342.402 188.123C338.484 189.674 330.931 194.5 327.336 195.097 323.018 195.814 318.873 192.85 318.156 188.533 317.439 184.215 320.404 180.071 324.722 179.354 329.879 178.498 339.392 184.864 342.402 188.123" fill="#36B357" fill-rule="evenodd" transform="matrix(1.00127 0 0 1 1409.27 1193.12)"/><path d="M381.288 308.757C378.77 311.731 374.716 318.959 372.045 321.014 368.836 323.481 364.163 322.871 361.695 319.663 359.228 316.456 359.837 311.783 363.046 309.316 366.878 306.369 377.413 307.412 381.288 308.756" fill="#249957" fill-rule="evenodd" transform="matrix(1.00127 0 0 1 1409.27 1193.12)"/><path d="M377.668 327.96C373.62 330.992 366.395 338.96 362.419 340.785 357.646 342.975 351.911 340.849 349.72 336.075 347.529 331.302 349.655 325.568 354.429 323.377 360.132 320.761 373.156 325.135 377.668 327.96" fill="#249957" fill-rule="evenodd" transform="matrix(1.00127 0 0 1 1409.27 1193.12)"/><path d="M371.789 367.386C366.89 366.131 356.15 365.495 352.238 363.54 347.539 361.193 345.603 355.392 347.951 350.694 350.298 345.996 356.1 344.06 360.799 346.407 366.412 349.211 371.164 362.101 371.789 367.386" fill="#249957" fill-rule="evenodd" transform="matrix(1.00127 0 0 1 1409.27 1193.12)"/><path d="M350.753 382.406C347.657 378.408 339.571 371.312 337.683 367.368 335.416 362.63 337.45 356.864 342.189 354.596 346.928 352.329 352.695 354.363 354.963 359.1 357.671 364.759 353.506 377.85 350.753 382.406" fill="#249957" fill-rule="evenodd" transform="matrix(1.00127 0 0 1 1409.27 1193.12)"/><path d="M320.781 379.075C324.567 377.138 333.258 374.628 336.105 372.301 339.525 369.504 340.038 364.388 337.243 360.969 334.446 357.55 329.329 357.036 325.909 359.832 321.825 363.171 320.315 374.624 320.781 379.075" fill="#249957" fill-rule="evenodd" transform="matrix(1.00127 0 0 1 1409.27 1193.12)"/><path d="M309.046 346.045C312.886 346.814 320.593 349.974 323.979 349.922 328.045 349.862 331.343 346.463 331.282 342.397 331.221 338.331 327.822 335.033 323.755 335.095 318.898 335.167 311.256 342.567 309.046 346.046" fill="#249957" fill-rule="evenodd" transform="matrix(1.00127 0 0 1 1409.27 1193.12)"/><path d="M307.631 372.869C310.176 370.995 316.25 368.113 318.06 366.065 320.233 363.605 319.997 359.791 317.537 357.617 315.076 355.445 311.261 355.681 309.088 358.141 306.492 361.079 306.756 369.66 307.631 372.869" fill="#249957" fill-rule="evenodd" transform="matrix(1.00127 0 0 1 1409.27 1193.12)"/><path d="M381.28 347.118C376.999 344.427 369.148 337.072 365.038 335.578 360.1 333.783 354.559 336.371 352.764 341.306 350.969 346.243 353.556 351.784 358.493 353.578 364.39 355.721 377.014 350.3 381.28 347.117" fill="#249957" fill-rule="evenodd" transform="matrix(1.00127 0 0 1 1409.27 1193.12)"/><path d="M401.487 319.982C397.277 319.807 388.556 317.735 384.965 318.355 380.652 319.099 377.714 323.262 378.458 327.574 379.203 331.887 383.366 334.825 387.68 334.08 392.831 333.191 399.719 324.049 401.487 319.982" fill="#249957" fill-rule="evenodd" transform="matrix(1.00127 0 0 1 1409.27 1193.12)"/><path d="M317.959 303.646C314.867 304.89 308.914 308.741 306.074 309.229 302.662 309.814 299.371 307.488 298.785 304.077 298.199 300.665 300.526 297.374 303.937 296.788 308.012 296.089 315.565 301.083 317.959 303.646" fill="#249957" fill-rule="evenodd" transform="matrix(1.00127 0 0 1 1409.27 1193.12)"/><path d="M307.555 316.727C303.283 317.404 294.636 320.549 290.901 320.342 286.415 320.094 282.926 316.197 283.174 311.711 283.423 307.226 287.32 303.737 291.806 303.986 297.164 304.282 305.27 312.79 307.555 316.727" fill="#249957" fill-rule="evenodd" transform="matrix(1.00127 0 0 1 1409.27 1193.12)"/><path d="M287.363 344.197C284.159 341.293 276.289 336.525 274.11 333.485 271.492 329.834 272.343 324.674 275.995 322.056 279.647 319.44 284.808 320.291 287.426 323.941 290.552 328.303 289.001 339.95 287.364 344.197" fill="#249957" fill-rule="evenodd" transform="matrix(1.00127 0 0 1 1409.27 1193.12)"/><path d="M265.46 347.163C264.715 342.904 261.431 334.309 261.578 330.572 261.754 326.083 265.596 322.533 270.085 322.709 274.574 322.886 278.125 326.727 277.949 331.215 277.738 336.576 269.361 344.816 265.46 347.163" fill="#249957" fill-rule="evenodd" transform="matrix(1.00127 0 0 1 1409.27 1193.12)"/><path d="M244.113 332.683C247.749 332.73 255.326 334.299 258.409 333.675 262.112 332.926 264.543 329.26 263.793 325.558 263.043 321.855 259.377 319.425 255.675 320.174 251.252 321.069 245.537 329.13 244.113 332.683" fill="#249957" fill-rule="evenodd" transform="matrix(1.00127 0 0 1 1409.27 1193.12)"/><path d="M248.425 303.015C251.023 305.129 255.591 310.594 258.172 311.907 261.273 313.484 265.124 312.229 266.702 309.129 268.279 306.029 267.024 302.178 263.924 300.601 260.22 298.717 251.485 301.265 248.425 303.014" fill="#249957" fill-rule="evenodd" transform="matrix(1.00127 0 0 1 1409.27 1193.12)"/><path d="M236.652 322.743C239.325 322.342 245.07 322.586 247.257 321.759 249.883 320.765 251.227 317.785 250.233 315.16 249.24 312.534 246.26 311.19 243.633 312.184 240.497 313.37 237.271 319.967 236.652 322.743" fill="#249957" fill-rule="evenodd" transform="matrix(1.00127 0 0 1 1409.27 1193.12)"/><path d="M302.642 332.66C300.478 328.915 297.475 320.219 294.963 317.448 291.945 314.12 286.72 313.865 283.391 316.883 280.064 319.9 279.807 325.125 282.826 328.453 286.431 332.427 298.144 333.365 302.642 332.66" fill="#249957" fill-rule="evenodd" transform="matrix(1.00127 0 0 1 1409.27 1193.12)"/><path d="M328.759 320.195C325.644 318.382 319.873 313.334 316.91 312.369 313.35 311.212 309.466 313.188 308.307 316.747 307.149 320.307 309.126 324.191 312.686 325.35 316.937 326.733 325.797 322.566 328.759 320.196" fill="#249957" fill-rule="evenodd" transform="matrix(1.00127 0 0 1 1409.27 1193.12)"/><path d="M379.881 376.002C376.336 377.62 369.589 382.435 366.297 383.156 362.343 384.022 358.375 381.48 357.509 377.527 356.643 373.574 359.185 369.606 363.139 368.74 367.861 367.705 376.948 373.135 379.881 376.002" fill="#249957" fill-rule="evenodd" transform="matrix(1.00127 0 0 1 1409.27 1193.12)"/><path d="M368.428 391.836C363.474 392.855 353.541 396.989 349.168 396.946 343.915 396.895 339.633 392.529 339.684 387.277 339.735 382.025 344.102 377.743 349.355 377.795 355.629 377.856 365.549 387.36 368.428 391.837" fill="#249957" fill-rule="evenodd" transform="matrix(1.00127 0 0 1 1409.27 1193.12)"/><path d="M346.312 425.003C342.413 421.781 332.968 416.632 330.261 413.198 327.009 409.073 327.729 403 331.854 399.749 335.98 396.498 342.054 397.217 345.306 401.342 349.189 406.269 347.997 419.955 346.312 425.003" fill="#249957" fill-rule="evenodd" transform="matrix(1.00127 0 0 1 1409.27 1193.12)"/><path d="M320.887 429.634C319.789 424.698 315.496 414.835 315.469 410.462 315.436 405.21 319.733 400.859 324.986 400.826 330.239 400.793 334.591 405.089 334.624 410.341 334.664 416.614 325.318 426.684 320.887 429.634" fill="#249957" fill-rule="evenodd" transform="matrix(1.00127 0 0 1 1409.27 1193.12)"/><path d="M295.182 413.854C299.432 413.714 308.365 415.144 311.932 414.25 316.217 413.177 318.861 408.767 317.788 404.482 316.715 400.198 312.304 397.554 308.018 398.627 302.901 399.909 296.656 409.627 295.181 413.854" fill="#249957" fill-rule="evenodd" transform="matrix(1.00127 0 0 1 1409.27 1193.12)"/><path d="M298.634 378.968C301.781 381.299 307.408 387.44 310.493 388.835 314.199 390.512 318.63 388.842 320.307 385.137 321.984 381.432 320.314 377.002 316.608 375.325 312.182 373.322 302.116 376.763 298.634 378.968" fill="#249957" fill-rule="evenodd" transform="matrix(1.00127 0 0 1 1409.27 1193.12)"/><path d="M285.934 402.643C289.034 402.032 295.757 402.011 298.267 400.928 301.282 399.628 302.692 396.077 301.392 393.063 300.092 390.049 296.54 388.638 293.525 389.939 289.925 391.492 286.509 399.367 285.934 402.644" fill="#249957" fill-rule="evenodd" transform="matrix(1.00127 0 0 1 1409.27 1193.12)"/><path d="M363.537 410.705C360.81 406.447 356.84 396.449 353.758 393.347 350.056 389.621 343.939 389.601 340.213 393.303 336.486 397.005 336.466 403.12 340.169 406.846 344.591 411.296 358.322 411.767 363.538 410.705" fill="#249957" fill-rule="evenodd" transform="matrix(1.00127 0 0 1 1409.27 1193.12)"/><path d="M393.373 394.757C389.638 392.805 382.63 387.217 379.117 386.248 374.898 385.085 370.466 387.6 369.303 391.819 368.139 396.038 370.655 400.469 374.875 401.633 379.914 403.022 390.04 397.683 393.373 394.757" fill="#249957" fill-rule="evenodd" transform="matrix(1.00127 0 0 1 1409.27 1193.12)"/><path d="M131.175 324.447C133.592 327.503 137.401 334.864 140.002 337.007 143.126 339.58 147.817 339.127 150.39 336.004 152.964 332.881 152.512 328.19 149.387 325.617 145.656 322.544 135.093 323.233 131.175 324.447" fill="#249957" fill-rule="evenodd" transform="matrix(1.00127 0 0 1 1409.27 1193.12)"/><path d="M134.141 343.756C138.085 346.921 145.039 355.128 148.951 357.085 153.649 359.435 159.451 357.501 161.801 352.804 164.151 348.107 162.218 342.305 157.519 339.956 151.908 337.149 138.745 341.085 134.141 343.757" fill="#249957" fill-rule="evenodd" transform="matrix(1.00127 0 0 1 1409.27 1193.12)"/><path d="M138.696 383.364C143.634 382.274 154.389 381.998 158.365 380.177 163.141 377.988 165.27 372.255 163.081 367.48 160.892 362.706 155.158 360.577 150.383 362.765 144.679 365.379 139.498 378.103 138.696 383.364" fill="#249957" fill-rule="evenodd" transform="matrix(1.00127 0 0 1 1409.27 1193.12)"/><path d="M159.215 399.077C162.444 395.185 170.763 388.364 172.782 384.484 175.207 379.825 173.367 373.994 168.707 371.569 164.047 369.144 158.215 370.984 155.789 375.643 152.893 381.208 156.618 394.431 159.215 399.077" fill="#249957" fill-rule="evenodd" transform="matrix(1.00127 0 0 1 1409.27 1193.12)"/><path d="M189.286 396.749C185.567 394.687 176.965 391.887 174.198 389.465 170.873 386.557 170.532 381.426 173.441 378.102 176.35 374.778 181.482 374.436 184.806 377.345 188.776 380.819 189.901 392.316 189.286 396.749" fill="#249957" fill-rule="evenodd" transform="matrix(1.00127 0 0 1 1409.27 1193.12)"/><path d="M202.124 364.131C198.261 364.77 190.452 367.669 187.07 367.505 183.007 367.307 179.825 363.8 180.022 359.739 180.22 355.677 183.727 352.495 187.79 352.692 192.642 352.928 200.031 360.58 202.124 364.131" fill="#249957" fill-rule="evenodd" transform="matrix(1.00127 0 0 1 1409.27 1193.12)"/><path d="M202.634 390.992C200.153 389.035 194.179 385.95 192.44 383.843 190.35 381.311 190.714 377.507 193.246 375.418 195.778 373.328 199.583 373.692 201.673 376.224 204.169 379.247 203.616 387.815 202.634 390.993" fill="#249957" fill-rule="evenodd" transform="matrix(1.00127 0 0 1 1409.27 1193.12)"/><path d="M129.89 362.784C134.259 360.238 142.352 353.152 146.51 351.796 151.504 350.168 156.957 352.939 158.585 357.932 160.213 362.926 157.442 368.377 152.448 370.006 146.482 371.95 134.047 366.109 129.89 362.785" fill="#249957" fill-rule="evenodd" transform="matrix(1.00127 0 0 1 1409.27 1193.12)"/><path d="M110.603 334.987C114.816 334.953 123.602 333.175 127.171 333.915 131.456 334.803 134.253 339.063 133.364 343.348 132.476 347.633 128.216 350.429 123.93 349.541 118.811 348.48 112.234 339.111 110.603 334.987" fill="#249957" fill-rule="evenodd" transform="matrix(1.00127 0 0 1 1409.27 1193.12)"/><path d="M260.433 352.86C257.812 353.41 252.559 355.62 250.242 355.607 247.46 355.591 245.182 353.288 245.198 350.506 245.214 347.723 247.518 345.446 250.3 345.462 253.624 345.481 258.898 350.494 260.433 352.86" fill="#249957" fill-rule="evenodd" transform="matrix(1.00127 0 0 1 1409.27 1193.12)"/><path d="M250.364 361.75C246.888 361.686 239.603 362.959 236.676 362.271 233.161 361.444 230.948 357.869 231.775 354.354 232.602 350.84 236.177 348.627 239.693 349.454 243.891 350.442 249.109 358.313 250.364 361.75" fill="#249957" fill-rule="evenodd" transform="matrix(1.00127 0 0 1 1409.27 1193.12)"/><path d="M230.522 380.657C228.394 377.908 222.836 373.029 221.539 370.317 219.981 367.059 221.38 363.095 224.638 361.537 227.896 359.979 231.861 361.378 233.419 364.636 235.28 368.526 232.415 377.525 230.522 380.656" fill="#249957" fill-rule="evenodd" transform="matrix(1.00127 0 0 1 1409.27 1193.12)"/><path d="M212.771 379.927C212.78 376.45 211.39 369.188 212.032 366.251 212.802 362.723 216.341 360.453 219.869 361.224 223.398 361.995 225.667 365.533 224.897 369.061 223.976 373.274 216.188 378.618 212.771 379.927" fill="#249957" fill-rule="evenodd" transform="matrix(1.00127 0 0 1 1409.27 1193.12)"/><path d="M197.918 365.462C200.79 366.01 206.566 368.317 209.093 368.256 212.129 368.183 214.568 365.624 214.495 362.589 214.422 359.553 211.863 357.114 208.827 357.187 205.201 357.274 199.546 362.85 197.918 365.462" fill="#249957" fill-rule="evenodd" transform="matrix(1.00127 0 0 1 1409.27 1193.12)"/><path d="M205.493 342.593C207.252 344.63 210.099 349.598 211.957 350.999 214.189 352.683 217.414 352.232 219.097 350 220.782 347.768 220.33 344.544 218.098 342.861 215.432 340.85 208.162 341.638 205.493 342.592" fill="#249957" fill-rule="evenodd" transform="matrix(1.00127 0 0 1 1409.27 1193.12)"/><path d="M193.401 356.548C195.572 356.606 200.085 357.606 201.932 357.259 204.15 356.842 205.632 354.673 205.215 352.455 204.798 350.238 202.628 348.756 200.41 349.173 197.761 349.671 194.281 354.438 193.401 356.548" fill="#249957" fill-rule="evenodd" transform="matrix(1.00127 0 0 1 1409.27 1193.12)"/><path d="M244.234 373.675C243.048 370.407 241.894 363.103 240.296 360.558 238.375 357.5 234.276 356.563 231.217 358.484 228.159 360.404 227.223 364.502 229.143 367.56 231.437 371.212 240.575 373.6 244.234 373.675" fill="#249957" fill-rule="evenodd" transform="matrix(1.00127 0 0 1 1409.27 1193.12)"/><path d="M266.654 367.477C264.444 365.604 260.588 360.799 258.378 359.618 255.723 358.201 252.371 359.22 250.954 361.873 249.537 364.527 250.555 367.879 253.21 369.296 256.38 370.989 263.977 368.936 266.654 367.477" fill="#249957" fill-rule="evenodd" transform="matrix(1.00127 0 0 1 1409.27 1193.12)"/><path d="M212.885 339.003C209.996 337.469 203.34 335.436 201.178 333.613 198.58 331.423 198.245 327.481 200.436 324.884 202.626 322.286 206.569 321.951 209.166 324.141 212.268 326.757 213.296 335.584 212.885 339.003" fill="#249957" fill-rule="evenodd" transform="matrix(1.00127 0 0 1 1409.27 1193.12)"/><path d="M196.489 339.467C193.278 336.689 185.449 332.187 183.242 329.253 180.591 325.729 181.311 320.645 184.835 317.996 188.36 315.345 193.443 316.065 196.095 319.589 199.261 323.798 198 335.261 196.489 339.467" fill="#249957" fill-rule="evenodd" transform="matrix(1.00127 0 0 1 1409.27 1193.12)"/><path d="M163.094 341.688C163.248 337.445 161.85 328.524 162.754 324.965 163.84 320.692 168.252 318.067 172.527 319.153 176.801 320.238 179.426 324.65 178.34 328.925 177.043 334.029 167.318 340.23 163.094 341.688" fill="#249957" fill-rule="evenodd" transform="matrix(1.00127 0 0 1 1409.27 1193.12)"/><path d="M147.017 327.124C149.743 323.869 154.119 315.97 157.017 313.716 160.498 311.01 165.593 311.647 168.301 315.129 171.007 318.61 170.369 323.703 166.888 326.41 162.73 329.642 151.246 328.566 147.016 327.123" fill="#249957" fill-rule="evenodd" transform="matrix(1.00127 0 0 1 1409.27 1193.12)"/><path d="M144.385 301.943C146.651 304.702 150.264 311.382 152.682 313.3 155.587 315.605 159.876 315.112 162.181 312.207 164.487 309.303 163.993 305.014 161.089 302.71 157.619 299.956 147.954 300.765 144.385 301.943" fill="#249957" fill-rule="evenodd" transform="matrix(1.00127 0 0 1 1409.27 1193.12)"/><path d="M169.391 286.413C169.447 289.699 168.233 296.585 168.88 299.353 169.657 302.678 173.034 304.775 176.359 303.998 179.684 303.221 181.782 299.844 181.005 296.52 180.076 292.549 172.64 287.604 169.391 286.413" fill="#249957" fill-rule="evenodd" transform="matrix(1.00127 0 0 1 1409.27 1193.12)"/><path d="M147.131 290.056C149.122 291.808 152.573 296.274 154.577 297.392 156.983 298.735 160.07 297.859 161.413 295.453 162.756 293.047 161.88 289.96 159.473 288.618 156.599 287.014 149.606 288.764 147.131 290.056" fill="#249957" fill-rule="evenodd" transform="matrix(1.00127 0 0 1 1409.27 1193.12)"/><path d="M181.423 345.855C182.865 341.863 187.496 334.109 187.986 330.471 188.576 326.1 185.464 322.018 181.093 321.428 176.723 320.838 172.64 323.951 172.05 328.321 171.345 333.54 178.05 342.925 181.423 345.855" fill="#249957" fill-rule="evenodd" transform="matrix(1.00127 0 0 1 1409.27 1193.12)"/><path d="M207.296 357.575C206.687 354.09 206.827 346.567 205.677 343.733 204.296 340.328 200.355 338.663 196.95 340.044 193.545 341.425 191.88 345.365 193.261 348.77 194.911 352.836 203.643 356.851 207.295 357.575" fill="#249957" fill-rule="evenodd" transform="matrix(1.00127 0 0 1 1409.27 1193.12)"/><path d="M208.436 264.685C210.752 266.158 214.993 270.172 217.22 270.994 219.894 271.982 222.91 270.594 223.897 267.92 224.886 265.246 223.498 262.23 220.823 261.242 217.629 260.062 210.761 262.969 208.437 264.685" fill="#269E59" fill-rule="evenodd" transform="matrix(1.00127 0 0 1 1409.27 1193.12)"/><path d="M214.886 276.845C218.243 278.037 224.772 281.885 227.827 282.28 231.496 282.754 234.908 280.123 235.383 276.454 235.857 272.785 233.226 269.373 229.555 268.899 225.173 268.333 217.329 274.001 214.886 276.845" fill="#269E59" fill-rule="evenodd" transform="matrix(1.00127 0 0 1 1409.27 1193.12)"/><path d="M227.1 302.133C230.133 300.263 237.223 297.588 239.444 295.454 242.113 292.892 242.201 288.585 239.639 285.916 237.076 283.247 232.768 283.159 230.099 285.722 226.911 288.782 226.413 298.447 227.099 302.132" fill="#269E59" fill-rule="evenodd" transform="matrix(1.00127 0 0 1 1409.27 1193.12)"/><path d="M244.386 307.829C245.632 304.492 249.585 298.027 250.029 294.979 250.561 291.317 247.985 287.864 244.324 287.331 240.662 286.798 237.208 289.373 236.675 293.035 236.038 297.408 241.581 305.341 244.386 307.829" fill="#269E59" fill-rule="evenodd" transform="matrix(1.00127 0 0 1 1409.27 1193.12)"/><path d="M263.856 299.311C260.903 298.801 254.532 298.932 252.129 297.962 249.244 296.797 247.827 293.464 248.992 290.579 250.157 287.693 253.491 286.277 256.377 287.442 259.823 288.833 263.237 296.22 263.855 299.311" fill="#269E59" fill-rule="evenodd" transform="matrix(1.00127 0 0 1 1409.27 1193.12)"/><path d="M264.837 274.64C262.415 275.961 257.892 279.699 255.604 280.374 252.856 281.183 249.926 279.588 249.116 276.841 248.306 274.093 249.901 271.164 252.65 270.353 255.932 269.386 262.621 272.763 264.836 274.64" fill="#269E59" fill-rule="evenodd" transform="matrix(1.00127 0 0 1 1409.27 1193.12)"/><path d="M271.4 292.391C269.296 291.663 264.607 290.995 262.961 289.997 260.984 288.797 260.345 286.182 261.544 284.206 262.745 282.229 265.36 281.59 267.336 282.789 269.698 284.222 271.317 290.049 271.4 292.391" fill="#269E59" fill-rule="evenodd" transform="matrix(1.00127 0 0 1 1409.27 1193.12)"/><path d="M216.468 290.482C218.784 287.775 222.525 281.185 224.976 279.32 227.921 277.08 232.19 277.66 234.431 280.604 236.671 283.549 236.092 287.817 233.147 290.057 229.63 292.733 220.003 291.73 216.467 290.482" fill="#269E59" fill-rule="evenodd" transform="matrix(1.00127 0 0 1 1409.27 1193.12)"/><path d="M197.196 276.465C199.991 275.466 205.424 272.247 207.969 271.912 211.026 271.51 213.874 273.695 214.276 276.751 214.678 279.808 212.492 282.655 209.435 283.058 205.784 283.538 199.238 278.83 197.195 276.465" fill="#269E59" fill-rule="evenodd" transform="matrix(1.00127 0 0 1 1409.27 1193.12)"/><path d="M361.796 253.672C358.633 255.949 352.951 261.983 349.862 263.331 346.153 264.95 341.766 263.228 340.147 259.519 338.528 255.809 340.25 251.423 343.96 249.804 348.391 247.871 358.361 251.431 361.796 253.673" fill="#269E59" fill-rule="evenodd" transform="matrix(1.00127 0 0 1 1409.27 1193.12)"/><path d="M353.643 271.43C348.982 273.393 340.043 279.379 335.746 280.187 330.583 281.158 325.533 277.709 324.561 272.546 323.59 267.385 327.041 262.335 332.202 261.364 338.368 260.205 349.948 267.598 353.642 271.43" fill="#269E59" fill-rule="evenodd" transform="matrix(1.00127 0 0 1 1409.27 1193.12)"/><path d="M338.402 308.27C333.952 305.868 323.684 302.654 320.362 299.812 316.369 296.398 315.894 290.301 319.309 286.309 322.723 282.318 328.821 281.843 332.813 285.256 337.58 289.334 339.074 302.99 338.402 308.27" fill="#269E59" fill-rule="evenodd" transform="matrix(1.00127 0 0 1 1409.27 1193.12)"/><path d="M314.362 317.754C312.324 313.125 306.195 304.285 305.318 300.001 304.264 294.856 307.632 289.752 312.778 288.698 317.924 287.644 323.029 291.013 324.083 296.158 325.342 302.303 318.134 313.998 314.361 317.754" fill="#269E59" fill-rule="evenodd" transform="matrix(1.00127 0 0 1 1409.27 1193.12)"/><path d="M286.078 307.274C290.22 306.31 299.26 305.976 302.586 304.406 306.58 302.52 308.316 297.679 306.43 293.686 304.544 289.692 299.703 287.956 295.708 289.842 290.937 292.094 286.702 302.842 286.078 307.274" fill="#269E59" fill-rule="evenodd" transform="matrix(1.00127 0 0 1 1409.27 1193.12)"/><path d="M282.679 272.381C286.219 274.055 292.934 278.985 296.231 279.754 300.192 280.678 304.214 278.178 305.138 274.218 306.061 270.257 303.561 266.236 299.6 265.312 294.87 264.208 285.665 269.54 282.678 272.381" fill="#269E59" fill-rule="evenodd" transform="matrix(1.00127 0 0 1 1409.27 1193.12)"/><path d="M274.822 298.072C277.745 296.868 284.337 295.541 286.587 293.991 289.291 292.129 289.984 288.371 288.123 285.667 286.261 282.963 282.502 282.27 279.798 284.132 276.569 286.356 274.75 294.746 274.823 298.072" fill="#269E59" fill-rule="evenodd" transform="matrix(1.00127 0 0 1 1409.27 1193.12)"/><path d="M352.517 290.892C349.014 287.246 343.175 278.211 339.548 275.768 335.192 272.833 329.188 274.003 326.253 278.358 323.317 282.714 324.487 288.717 328.844 291.651 334.047 295.157 347.608 292.95 352.517 290.893" fill="#269E59" fill-rule="evenodd" transform="matrix(1.00127 0 0 1 1409.27 1193.12)"/><path d="M378.679 269.446C374.637 268.257 366.675 264.138 363.042 263.871 358.676 263.551 354.818 266.88 354.498 271.245 354.177 275.609 357.507 279.467 361.872 279.787 367.085 280.17 375.979 272.964 378.679 269.446" fill="#269E59" fill-rule="evenodd" transform="matrix(1.00127 0 0 1 1409.27 1193.12)"/><path d="M217.411 208.284C219.479 206.348 223.014 201.466 225.115 200.206 227.64 198.693 230.964 199.525 232.478 202.05 233.991 204.574 233.159 207.898 230.634 209.411 227.619 211.218 220.097 209.581 217.41 208.285" fill="#36B357" fill-rule="evenodd" transform="matrix(1.00127 0 0 1 1409.27 1193.12)"/><path d="M211.25 190.876C214.769 189.807 221.685 186.151 224.855 185.89 228.663 185.576 232.055 188.452 232.369 192.259 232.683 196.065 229.806 199.457 226 199.771 221.452 200.146 213.634 193.926 211.251 190.876" fill="#36B357" fill-rule="evenodd" transform="matrix(1.00127 0 0 1 1409.27 1193.12)"/><path d="M226.271 173.863C229.704 175.18 237.409 176.541 240.071 178.281 243.268 180.37 244.18 184.723 242.09 187.92 240 191.117 235.647 192.029 232.449 189.939 228.63 187.443 226.279 177.733 226.271 173.863" fill="#36B357" fill-rule="evenodd" transform="matrix(1.00127 0 0 1 1409.27 1193.12)"/><path d="M242.728 164.782C244.629 167.93 249.875 173.734 250.908 176.742 252.148 180.354 250.195 184.349 246.582 185.59 242.968 186.83 238.973 184.877 237.732 181.264 236.251 176.949 240.358 167.842 242.728 164.782" fill="#36B357" fill-rule="evenodd" transform="matrix(1.00127 0 0 1 1409.27 1193.12)"/><path d="M264.099 169.703C261.202 170.784 254.713 171.869 252.462 173.312 249.757 175.044 248.956 178.697 250.689 181.401 252.422 184.105 256.076 184.905 258.781 183.173 262.011 181.104 264.063 172.957 264.099 169.703" fill="#36B357" fill-rule="evenodd" transform="matrix(1.00127 0 0 1 1409.27 1193.12)"/><path d="M269.811 194.549C267.102 193.672 261.799 190.744 259.349 190.496 256.406 190.2 253.739 192.378 253.442 195.32 253.145 198.263 255.323 200.929 258.266 201.226 261.781 201.581 267.922 196.877 269.81 194.549" fill="#36B357" fill-rule="evenodd" transform="matrix(1.00127 0 0 1 1409.27 1193.12)"/><path d="M262.365 181.552C259.903 182.959 254.19 184.899 252.365 186.538 250.173 188.506 249.989 191.93 251.957 194.122 253.925 196.313 257.35 196.498 259.542 194.53 262.16 192.179 262.813 184.503 262.365 181.552" fill="#52BA6E" fill-rule="evenodd" transform="matrix(1.00127 0 0 1 1409.27 1193.12)"/><path d="M226.4 182.244C226.993 185.873 226.763 193.692 227.927 196.651 229.326 200.206 233.404 201.981 236.958 200.583 240.514 199.185 242.289 195.108 240.891 191.554 239.221 187.308 230.189 183.037 226.4 182.244" fill="#52BA6E" fill-rule="evenodd" transform="matrix(1.00127 0 0 1 1409.27 1193.12)"/><path d="M242.5 183.993C241.345 187.484 237.517 194.307 237.178 197.469 236.77 201.266 239.56 204.729 243.359 205.137 247.157 205.545 250.62 202.755 251.028 198.957 251.515 194.421 245.491 186.452 242.501 183.993" fill="#52BA6E" fill-rule="evenodd" transform="matrix(1.00127 0 0 1 1409.27 1193.12)"/></g></g></g><path d="M1420 1732 1420 1808 1449 1801.68 1449 1732Z" fill="#787340" fill-rule="evenodd"/><path d="M1420 1732 1420 1774.53 1449 1781 1449 1732Z" fill="#595937" fill-rule="evenodd"/><path d="M1352 1762.56 1522 1771 1434.63 1606Z" fill="#80C242" fill-rule="evenodd"/><path d="M1370 1744.97 1522 1771 1434.62 1606 1377.03 1715.24Z" fill="#4AAC44" fill-rule="evenodd"/><path d="M1486 1702 1434.94 1606 1390 1690.94Z" fill="#1F953E" fill-rule="evenodd"/><path d="M1367 1694 1490 1670.7 1434.72 1567Z" fill="#80C242" fill-rule="evenodd"/><path d="M1391 1680 1484.17 1671.6 1490 1670.55 1434.74 1567 1397.75 1636.44Z" fill="#4AAC44" fill-rule="evenodd"/><path d="M1462 1618.35 1434.95 1567 1405 1624Z" fill="#1F953E" fill-rule="evenodd"/><path d="M1434.79 1538 1400 1604.72 1478 1621Z" fill="#80C242" fill-rule="evenodd"/><path d="M1414 1596.65 1478 1621 1434.51 1537Z" fill="#4AAC44" fill-rule="evenodd"/><path d="M1699 1856.81C1703.72 1855.68 1714.54 1853.25 1721.62 1846.12 1728.7 1839.18 1735.39 1831.3 1735.39 1808.79 1735.39 1786.28 1735.39 1724 1735.39 1724L1754.66 1724C1754.66 1724 1754.86 1794.72 1755.45 1807.48 1756.04 1820.23 1757.22 1833.17 1764.5 1840.68 1771.77 1848.18 1774.13 1850.43 1782.99 1853.62 1791.84 1856.81 1794 1857.56 1794 1857.56 1794 1857.56 1783.97 1858.12 1777.48 1856.81 1771.18 1855.5 1764.1 1852.68 1764.1 1852.68 1764.1 1852.68 1761.55 1852.68 1762.92 1853.81 1764.3 1854.93 1763.91 1855.87 1769.02 1857.75 1774.13 1859.62 1780.04 1861.69 1780.04 1861.69 1780.04 1861.69 1769.81 1862.44 1761.94 1860.37 1754.27 1858.31 1749.55 1855.5 1748.76 1856.25 1747.98 1857 1747.39 1863 1745.02 1863 1742.66 1863 1741.88 1856.43 1740.89 1856.25 1739.91 1856.06 1734.4 1859.81 1726.54 1860.75 1718.67 1861.87 1711.78 1861.87 1711.78 1861.87 1711.78 1861.87 1717.1 1860.37 1720.64 1858.31 1723.98 1856.25 1723.78 1854.56 1723.78 1854.56 1723.78 1854.56 1721.42 1855.87 1714.74 1856.81 1708.64 1857.56 1699 1856.81 1699 1856.81Z" fill="#896737" fill-rule="evenodd"/><path d="M1735.2 1724 1754.53 1724C1754.53 1724 1754.73 1794.81 1755.32 1807.58 1755.92 1820.36 1757.1 1833.32 1764.4 1840.83 1771.7 1848.34 1774.07 1850.6 1782.95 1853.79 1791.83 1856.98 1794 1857.73 1794 1857.73 1794 1857.73 1783.94 1858.3 1777.42 1856.98 1771.11 1855.67 1764.01 1852.85 1764.01 1852.85 1764.01 1852.85 1761.44 1852.85 1762.82 1853.98 1764.2 1855.11 1763.81 1856.04 1768.94 1857.92 1774.07 1859.8 1779.99 1861.87 1779.99 1861.87 1779.99 1861.87 1769.73 1862.62 1761.84 1860.55 1759.27 1859.8 1756.9 1859.05 1755.13 1858.3 1751.38 1856.98 1743.68 1853.23 1743.29 1824.3 1743.29 1817.54 1744.08 1820.17 1743.09 1815.1 1742.1 1809.84 1735 1795.19 1735 1795.19L1735 1724Z" fill="#77582C" fill-rule="evenodd"/><path d="M1783.58 1746.91C1758.92 1718.25 1746.2 1696 1746.2 1696 1746.2 1696 1733.47 1718.25 1708.81 1746.91 1684.15 1775.57 1645 1800.65 1645 1800.65 1645 1800.65 1655.57 1808 1746 1808 1836.04 1808 1847 1800.65 1847 1800.65 1847 1800.65 1808.24 1775.57 1783.58 1746.91Z" fill="#269342" fill-rule="evenodd"/><path d="M1777.01 1719.45C1756.6 1693.89 1746 1674 1746 1674 1746 1674 1735.4 1693.89 1714.99 1719.45 1694.58 1745.02 1662 1767.37 1662 1767.37 1662 1767.37 1670.83 1774 1746 1774 1820.78 1774 1830 1767.37 1830 1767.37 1830 1767.37 1797.42 1745.02 1777.01 1719.45Z" fill="#399E43" fill-rule="evenodd"/><path d="M1771.48 1692.17C1754.63 1668.45 1746 1650 1746 1650 1746 1650 1737.38 1668.45 1720.52 1692.17 1703.66 1715.89 1677 1736.79 1677 1736.79 1677 1736.79 1684.25 1743 1746 1743 1807.55 1743 1815 1736.79 1815 1736.79 1815 1736.79 1788.34 1715.89 1771.48 1692.17Z" fill="#50A744" fill-rule="evenodd"/><path d="M1767.43 1671.51C1753.54 1652.09 1746.3 1637 1746.3 1637 1746.3 1637 1739.07 1652.09 1725.18 1671.51 1711.3 1690.94 1689 1707.91 1689 1707.91 1689 1707.91 1695.06 1713 1746.5 1713 1797.74 1713 1804 1707.91 1804 1707.91 1804 1707.91 1781.31 1690.94 1767.43 1671.51Z" fill="#65B345" fill-rule="evenodd"/><path d="M1763.64 1646.51C1752.41 1627.09 1746.5 1612 1746.5 1612 1746.5 1612 1740.59 1627.09 1729.36 1646.51 1718.13 1665.94 1700 1682.91 1700 1682.91 1700 1682.91 1704.93 1688 1746.5 1688 1787.88 1688 1793 1682.91 1793 1682.91 1793 1682.91 1775.07 1665.94 1763.64 1646.51Z" fill="#81BA41" fill-rule="evenodd"/><path d="M1720 1636C1720 1636 1732.06 1641 1746.5 1641 1760.74 1641 1773 1636 1773 1636" fill="#2DA34A" fill-rule="evenodd"/><path d="M1759.38 1623.51C1750.72 1604.09 1746 1589 1746 1589 1746 1589 1741.48 1604.09 1732.62 1623.51 1723.97 1642.94 1710 1659.91 1710 1659.91 1710 1659.91 1713.74 1665 1746 1665 1778.07 1665 1782 1659.91 1782 1659.91 1782 1659.91 1768.03 1642.94 1759.38 1623.51Z" fill="#8BC53F" fill-rule="evenodd"/><path d="M1755.9 1602.24C1749.49 1584.16 1746.19 1570 1746.19 1570 1746.19 1570 1742.9 1584.16 1736.49 1602.24 1730.09 1620.32 1720 1636.34 1720 1636.34 1720 1636.34 1722.72 1641 1746 1641 1769.28 1641 1772 1636.34 1772 1636.34 1772 1636.34 1762.1 1620.32 1755.9 1602.24Z" fill="#A5CD39" fill-rule="evenodd"/></g></svg>